<svg width="314" height="234" viewBox="0 0 314 234" fill="none" xmlns="http://www.w3.org/2000/svg">
<g clip-path="url(#clip0_3_2769)">
<path d="M314 205.261H0V205.417H314V205.261Z" fill="#EBEBEB"/>
<path d="M148.836 177.371H27.5755C26.6255 177.37 25.715 176.993 25.0439 176.323C24.3728 175.654 23.9958 174.747 23.9958 173.801V4.07057C23.9958 3.12468 24.3728 2.21744 25.0439 1.548C25.715 0.878572 26.6255 0.501657 27.5755 0.5L148.836 0.5C149.787 0.5 150.699 0.876184 151.372 1.5458C152.044 2.21541 152.422 3.1236 152.422 4.07057V173.801C152.422 174.27 152.329 174.734 152.149 175.167C151.969 175.6 151.705 175.994 151.372 176.326C151.039 176.657 150.643 176.92 150.208 177.1C149.773 177.279 149.307 177.371 148.836 177.371ZM27.5755 0.65633C26.6671 0.657986 25.7966 1.01843 25.1549 1.65855C24.5132 2.29866 24.1528 3.16614 24.1528 4.07057V173.801C24.1528 174.705 24.5132 175.573 25.1549 176.213C25.7966 176.853 26.6671 177.213 27.5755 177.215H148.836C149.745 177.213 150.616 176.853 151.259 176.213C151.901 175.573 152.263 174.706 152.265 173.801V4.07057C152.263 3.16556 151.901 2.2981 151.259 1.65816C150.616 1.01823 149.745 0.657983 148.836 0.65633H27.5755Z" fill="#EBEBEB"/>
<path d="M284.679 177.371H163.412C162.461 177.37 161.55 176.993 160.878 176.324C160.206 175.655 159.828 174.747 159.826 173.801V4.07057C159.828 3.1241 160.206 2.21688 160.878 1.54762C161.55 0.878368 162.461 0.501653 163.412 0.5L284.679 0.5C285.627 0.503309 286.536 0.880954 287.206 1.55021C287.876 2.21946 288.252 3.12576 288.252 4.07057V173.801C288.252 174.746 287.876 175.652 287.206 176.321C286.536 176.99 285.627 177.368 284.679 177.371ZM163.412 0.65633C162.503 0.657983 161.632 1.01823 160.989 1.65816C160.346 2.2981 159.985 3.16556 159.983 4.07057V173.801C159.985 174.706 160.346 175.573 160.989 176.213C161.632 176.853 162.503 177.213 163.412 177.215H284.679C285.587 177.213 286.459 176.853 287.101 176.213C287.744 175.573 288.106 174.706 288.107 173.801V4.07057C288.106 3.16556 287.744 2.2981 287.101 1.65816C286.459 1.01823 285.587 0.657983 284.679 0.65633H163.412Z" fill="#EBEBEB"/>
<path d="M125.876 211.214H109.548V211.37H125.876V211.214Z" fill="#EBEBEB"/>
<path d="M66.9196 209.519H32.9448V209.675H66.9196V209.519Z" fill="#EBEBEB"/>
<path d="M108.92 217.023H92.3914V217.179H108.92V217.023Z" fill="#EBEBEB"/>
<path d="M186.553 215.972H162.168V216.129H186.553V215.972Z" fill="#EBEBEB"/>
<path d="M198.856 215.972H192.143V216.129H198.856V215.972Z" fill="#EBEBEB"/>
<path d="M282.544 213.327H248.28V213.484H282.544V213.327Z" fill="#EBEBEB"/>
<path d="M141.488 23.1991H48.3057V121.112H141.488V23.1991Z" fill="#E6E6E6"/>
<path d="M151.48 20.0287H42.2771C42.1553 20.0279 42.0346 20.0511 41.9219 20.0969C41.8092 20.1427 41.7067 20.2103 41.6203 20.2957C41.5339 20.3812 41.4653 20.4828 41.4185 20.5947C41.3717 20.7066 41.3477 20.8267 41.3477 20.9479C41.3477 21.1934 41.4456 21.4288 41.6199 21.6023C41.7942 21.7759 42.0306 21.8734 42.2771 21.8734H151.48C151.602 21.8734 151.722 21.8494 151.835 21.8028C151.947 21.7562 152.049 21.688 152.135 21.602C152.221 21.5159 152.289 21.4139 152.335 21.3016C152.381 21.1894 152.404 21.0692 152.403 20.9479C152.403 20.7041 152.306 20.4703 152.133 20.2979C151.96 20.1256 151.725 20.0287 151.48 20.0287Z" fill="#E6E6E6"/>
<path d="M145.451 23.1991H50.1582V121.112H145.451V23.1991Z" fill="#F0F0F0"/>
<path d="M141.488 121.111H48.3057V124.77H141.488V121.111Z" fill="#E6E6E6"/>
<path d="M152.033 121.111H56.74V124.77H152.033V121.111Z" fill="#F0F0F0"/>
<path d="M139.912 115.602V28.7144L55.691 28.7144V115.602H139.912Z" fill="#FAFAFA"/>
<path d="M74.8074 115.596L107.3 28.7081H122.636L90.1494 115.596H74.8074Z" fill="white"/>
<path d="M93.4402 115.596L125.933 28.7081H131.911L99.4188 115.596H93.4402Z" fill="white"/>
<path d="M139.912 115.596V28.7081H139.209V115.596H139.912Z" fill="#E6E6E6"/>
<g opacity="0.6">
<path opacity="0.6" d="M53.405 106.823H41.7053L48.0104 18.3778H59.7101L53.405 106.823Z" fill="#F0F0F0"/>
<path opacity="0.6" d="M57.9643 106.823H48.8457L55.1508 18.3778H64.2694L57.9643 106.823Z" fill="#E6E6E6"/>
<path opacity="0.6" d="M65.1047 106.823H53.405L59.7101 18.3778H71.4098L65.1047 106.823Z" fill="#F0F0F0"/>
<path opacity="0.6" d="M69.664 106.823H60.5454L66.8568 18.3778H75.9691L69.664 106.823Z" fill="#E6E6E6"/>
<path opacity="0.6" d="M76.8044 106.823H65.1047L71.4099 18.3778H83.1158L76.8044 106.823Z" fill="#F0F0F0"/>
</g>
<g opacity="0.6">
<path opacity="0.6" d="M143.517 106.823H150.13L146.569 18.3778H139.956L143.517 106.823Z" fill="#F0F0F0"/>
<path opacity="0.6" d="M140.942 106.823H146.092L142.531 18.3778H137.375L140.942 106.823Z" fill="#E6E6E6"/>
<path opacity="0.6" d="M136.904 106.823H143.517L139.956 18.3778H133.343L136.904 106.823Z" fill="#F0F0F0"/>
<path opacity="0.6" d="M134.329 106.823H139.479L135.918 18.3778H130.762L134.329 106.823Z" fill="#E6E6E6"/>
<path opacity="0.6" d="M130.291 106.823H136.904L133.343 18.3778H126.73L130.291 106.823Z" fill="#F0F0F0"/>
</g>
<path d="M267.943 18.3778H203.503V103.684H267.943V18.3778Z" fill="#E6E6E6"/>
<path d="M272.835 18.3778H205.513V103.684H272.835V18.3778Z" fill="#F5F5F5"/>
<path d="M214.234 21.8694L208.242 95.704L264.103 100.199L270.095 26.3642L214.234 21.8694Z" fill="white"/>
<path d="M268.714 26.2523L262.722 100.087L264.099 100.198L270.091 26.3631L268.714 26.2523Z" fill="#E6E6E6"/>
<path d="M276.389 135.55H240.398V205.254H276.389V135.55Z" fill="#F5F5F5"/>
<path d="M276.389 135.55H273.419V205.254H276.389V135.55Z" fill="#F0F0F0"/>
<path d="M160.303 167.041H243.174V137.545H160.303V167.041Z" fill="#E6E6E6"/>
<path d="M164.291 140.784H276.383V135.556H164.291V140.784Z" fill="#F0F0F0"/>
<path d="M164.298 135.55H128.307V205.254H164.298V135.55Z" fill="#F5F5F5"/>
<path d="M129.607 157.761H129.77C132.067 157.761 134.269 158.67 135.894 160.287C137.518 161.904 138.43 164.098 138.43 166.385V205.254H120.947V166.385C120.947 164.098 121.859 161.904 123.483 160.287C125.107 158.67 127.31 157.761 129.607 157.761Z" fill="#E6E6E6"/>
<path d="M164.298 135.55H161.327V205.254H164.298V135.55Z" fill="#F0F0F0"/>
<path d="M204.804 135.55H197.042L198.926 120.505H206.694L204.804 135.55Z" fill="#F0F0F0"/>
<path d="M206.524 135.55H198.756L200.646 120.505H208.408L206.524 135.55Z" fill="#F5F5F5"/>
<path d="M207.466 128.027H199.704L200.646 120.505H208.408L207.466 128.027Z" fill="#F0F0F0"/>
<path d="M178.936 126.227H233.861C233.969 126.227 234.075 126.204 234.173 126.16C234.272 126.115 234.359 126.051 234.43 125.971C234.502 125.89 234.555 125.796 234.587 125.693C234.618 125.591 234.628 125.483 234.615 125.376L230.382 91.659C230.359 91.4754 230.27 91.3064 230.131 91.1833C229.993 91.0602 229.814 90.9915 229.628 90.9899H174.703C174.595 90.9899 174.488 91.0129 174.389 91.0574C174.29 91.1019 174.201 91.1667 174.13 91.2477C174.058 91.3287 174.004 91.424 173.972 91.5272C173.94 91.6305 173.93 91.7393 173.944 91.8466L178.176 125.564C178.201 125.747 178.291 125.916 178.431 126.038C178.571 126.159 178.75 126.227 178.936 126.227Z" fill="#F0F0F0"/>
<path d="M179.753 126.227H234.677C234.785 126.227 234.892 126.204 234.99 126.16C235.088 126.115 235.176 126.051 235.247 125.971C235.318 125.89 235.371 125.796 235.403 125.693C235.435 125.591 235.444 125.483 235.431 125.376L231.198 91.659C231.176 91.4754 231.087 91.3064 230.948 91.1833C230.809 91.0602 230.63 90.9915 230.445 90.9899H175.52C175.411 90.9899 175.304 91.0129 175.205 91.0574C175.106 91.1019 175.018 91.1667 174.946 91.2477C174.874 91.3287 174.82 91.424 174.788 91.5272C174.756 91.6305 174.747 91.7393 174.76 91.8466L178.98 125.564C179.005 125.749 179.097 125.919 179.24 126.042C179.382 126.164 179.565 126.23 179.753 126.227Z" fill="#F5F5F5"/>
<path d="M233.66 124.363L229.697 92.8033C229.691 92.7514 229.666 92.7035 229.626 92.6689C229.587 92.6343 229.536 92.6154 229.484 92.6157H176.732C176.702 92.6165 176.672 92.6233 176.645 92.6359C176.618 92.6484 176.593 92.6663 176.573 92.6886C176.553 92.7108 176.538 92.7369 176.529 92.7653C176.519 92.7936 176.516 92.8236 176.518 92.8534L180.481 124.413C180.488 124.465 180.514 124.512 180.553 124.546C180.592 124.58 180.642 124.6 180.694 124.601H233.446C233.477 124.601 233.507 124.595 233.534 124.583C233.562 124.57 233.587 124.552 233.607 124.53C233.627 124.507 233.642 124.481 233.651 124.452C233.661 124.423 233.663 124.393 233.66 124.363Z" fill="#E6E6E6"/>
<path d="M228.033 124.601L214.091 92.6157H201.864L215.806 124.601H228.033Z" fill="#EBEBEB"/>
<path d="M213.451 124.601L199.509 92.6157H195.107L209.049 124.601H213.451Z" fill="#EBEBEB"/>
<path d="M213.57 135.55H200.922V135.375C200.922 135.043 201.055 134.725 201.29 134.491C201.526 134.256 201.845 134.124 202.178 134.124H212.314C212.647 134.124 212.967 134.256 213.202 134.491C213.438 134.725 213.57 135.043 213.57 135.375V135.531V135.55Z" fill="#F5F5F5"/>
<path d="M202.405 135.55H193.826V135.375C193.826 135.043 193.958 134.725 194.194 134.491C194.429 134.256 194.749 134.124 195.082 134.124H201.142C201.475 134.124 201.795 134.256 202.03 134.491C202.266 134.725 202.398 135.043 202.398 135.375V135.531L202.405 135.55Z" fill="#F0F0F0"/>
<path d="M227.562 135.55H188.463L187.408 132.43H222.475L227.562 135.55Z" fill="#F5F5F5"/>
<path d="M192.765 135.55H186.303L185.43 132.43H191.892L192.765 135.55Z" fill="#F0F0F0"/>
<path d="M180.324 135.556H169.196C169.191 134.865 169.461 134.2 169.947 133.707C170.433 133.214 171.095 132.932 171.789 132.924H177.668C178.364 132.924 179.031 133.199 179.524 133.689C180.016 134.18 180.293 134.844 180.293 135.538L180.324 135.556Z" fill="#F0F0F0"/>
<path d="M56.0301 205.261H66.9385V154.779H56.0301L56.0301 205.261Z" fill="#E0E0E0"/>
<path d="M104.461 205.261H60.3631L54.9121 145.605H99.0103L104.461 205.261Z" fill="#E6E6E6"/>
<path d="M106.747 205.261H62.6492L57.1919 145.605H101.296L106.747 205.261Z" fill="#F0F0F0"/>
<path d="M68.6781 198.651L64.4265 152.209H95.2676L99.5129 198.651H68.6781Z" fill="white"/>
<path d="M157 233.5C224.248 233.5 278.763 230.331 278.763 226.421C278.763 222.512 224.248 219.343 157 219.343C89.7519 219.343 35.2368 222.512 35.2368 226.421C35.2368 230.331 89.7519 233.5 157 233.5Z" fill="#F5F5F5"/>
<path d="M62.2212 76.8167L61.5935 76.8372L61.8658 85.1683L62.4935 85.1478L62.2212 76.8167Z" fill="#407BFF"/>
<path d="M61.9868 69.6269L61.3591 69.6473L61.4886 73.6098L62.1163 73.5893L61.9868 69.6269Z" fill="#407BFF"/>
<path d="M70.4614 129.891H190.321C190.962 129.893 191.596 129.766 192.186 129.518C192.776 129.27 193.31 128.906 193.755 128.448C194.2 127.989 194.548 127.446 194.777 126.85C195.006 126.255 195.112 125.619 195.088 124.982L192.419 43.5407C192.361 42.2315 191.802 40.9941 190.855 40.0833C189.909 39.1725 188.648 38.6576 187.332 38.6444H67.4721C66.8314 38.6423 66.1969 38.7691 65.6065 39.017C65.0162 39.265 64.4822 39.629 64.0365 40.0874C63.5909 40.5457 63.2427 41.0889 63.0129 41.6845C62.7832 42.28 62.6765 42.9156 62.6993 43.5532L65.3683 124.995C65.4277 126.304 65.9886 127.542 66.9359 128.452C67.8831 129.363 69.1447 129.878 70.4614 129.891Z" fill="#407BFF"/>
<path d="M70.8447 129.891H190.705C191.346 129.893 191.98 129.766 192.57 129.518C193.161 129.27 193.695 128.906 194.14 128.448C194.586 127.99 194.934 127.446 195.164 126.851C195.394 126.255 195.5 125.62 195.478 124.982L192.796 43.5407C192.737 42.2331 192.178 40.9975 191.233 40.0872C190.288 39.1768 189.03 38.6607 187.716 38.6444H67.8555C67.215 38.6423 66.5808 38.7691 65.9908 39.0171C65.4007 39.2651 64.8671 39.6292 64.422 40.0877C63.9768 40.5461 63.6293 41.0894 63.4002 41.6849C63.1711 42.2805 63.0653 42.9159 63.0889 43.5532L65.7579 124.995C65.8157 126.304 66.3753 127.541 67.3216 128.452C68.2678 129.363 69.5287 129.878 70.8447 129.891Z" fill="#407BFF"/>
<path opacity="0.5" d="M70.8447 129.891H190.705C191.346 129.893 191.98 129.766 192.57 129.518C193.161 129.27 193.695 128.906 194.14 128.448C194.586 127.99 194.934 127.446 195.164 126.851C195.394 126.255 195.5 125.62 195.478 124.982L192.796 43.5407C192.737 42.2331 192.178 40.9975 191.233 40.0872C190.288 39.1768 189.03 38.6607 187.716 38.6444H67.8555C67.215 38.6423 66.5808 38.7691 65.9908 39.0171C65.4007 39.2651 64.8671 39.6292 64.422 40.0877C63.9768 40.5461 63.6293 41.0894 63.4002 41.6849C63.1711 42.2805 63.0653 42.9159 63.0889 43.5532L65.7579 124.995C65.8157 126.304 66.3753 127.541 67.3216 128.452C68.2678 129.363 69.5287 129.878 70.8447 129.891Z" fill="white"/>
<path opacity="0.5" d="M187.414 41.0895H67.5478H67.1459C64.0749 41.3459 64.5145 45.9857 67.6106 45.9857H187.678C190.768 45.9857 190.906 41.3459 187.816 41.0895H187.414Z" fill="#407BFF"/>
<path d="M70.5747 43.5407C70.5806 43.687 70.5567 43.8329 70.5044 43.9696C70.4521 44.1064 70.3724 44.2312 70.2703 44.3364C70.1681 44.4416 70.0456 44.5251 69.9101 44.5818C69.7746 44.6385 69.6289 44.6673 69.482 44.6663C69.1791 44.6649 68.8884 44.547 68.6707 44.3373C68.4531 44.1275 68.3252 43.8421 68.3139 43.5407C68.3088 43.3947 68.3333 43.2492 68.386 43.1128C68.4386 42.9765 68.5183 42.852 68.6203 42.747C68.7223 42.642 68.8445 42.5584 68.9795 42.5014C69.1146 42.4444 69.2599 42.4151 69.4066 42.4152C69.7095 42.4166 70.0002 42.5345 70.2178 42.7442C70.4355 42.9539 70.5634 43.2393 70.5747 43.5407Z" fill="#FAFAFA"/>
<path d="M74.4179 43.5407C74.4248 43.6872 74.4015 43.8335 74.3495 43.9707C74.2975 44.1078 74.2179 44.233 74.1156 44.3384C74.0132 44.4438 73.8903 44.5273 73.7544 44.5837C73.6185 44.64 73.4725 44.6682 73.3252 44.6663C73.0228 44.6634 72.733 44.545 72.5157 44.3356C72.2983 44.1261 72.17 43.8416 72.1571 43.5407C72.1521 43.3947 72.1766 43.2492 72.2293 43.1128C72.2819 42.9765 72.3616 42.852 72.4636 42.747C72.5655 42.642 72.6877 42.5584 72.8228 42.5014C72.9579 42.4444 73.1031 42.4151 73.2499 42.4152C73.5528 42.4166 73.8434 42.5345 74.0611 42.7442C74.2787 42.9539 74.4066 43.2393 74.4179 43.5407Z" fill="#FAFAFA"/>
<path d="M77.9477 44.3465C78.378 43.9106 78.36 43.198 77.9073 42.755C77.4547 42.3119 76.7389 42.3062 76.3085 42.7421C75.8782 43.178 75.8962 43.8905 76.3489 44.3336C76.8015 44.7766 77.5173 44.7824 77.9477 44.3465Z" fill="#FAFAFA"/>
<path d="M73.1683 121.762H187.854C188.086 121.763 188.316 121.717 188.53 121.627C188.745 121.537 188.938 121.405 189.1 121.238C189.261 121.072 189.387 120.874 189.47 120.658C189.552 120.442 189.59 120.211 189.581 119.98L187.383 53.0268C187.357 52.5532 187.153 52.1068 186.81 51.7773C186.468 51.4478 186.013 51.2597 185.536 51.2509H70.8573C70.6252 51.249 70.3951 51.2941 70.181 51.3834C69.9668 51.4727 69.7732 51.6044 69.6117 51.7704C69.4502 51.9365 69.3243 52.1335 69.2415 52.3494C69.1588 52.5654 69.1209 52.7959 69.1303 53.0268L71.322 119.998C71.3504 120.47 71.5563 120.913 71.8985 121.24C72.2407 121.567 72.6942 121.753 73.1683 121.762Z" fill="white"/>
<g opacity="0.3">
<path opacity="0.3" d="M157.333 113.47H155.235V112.882H156.717L156.667 111.407L157.264 111.388L157.333 113.47Z" fill="#407BFF"/>
<path opacity="0.3" d="M151.901 113.47H148.566V112.882H151.901V113.47ZM145.231 113.47H141.928V112.882H145.263L145.231 113.47ZM138.562 113.47H135.227V112.882H138.562V113.47ZM131.893 113.47H128.558V112.882H131.88L131.893 113.47ZM125.23 113.47H121.889V112.882H125.23V113.47ZM118.56 113.47H115.226V112.882H118.56V113.47ZM111.891 113.47H108.556V112.882H111.891V113.47Z" fill="#407BFF"/>
<path opacity="0.3" d="M105.221 113.47H103.143L103.08 111.407L103.67 111.388L103.72 112.882H105.221V113.47Z" fill="#407BFF"/>
<path opacity="0.3" d="M102.991 108.086L102.885 104.766H103.513L103.619 108.086H102.991ZM102.778 101.445L102.665 98.1248H103.261L103.368 101.445H102.778ZM102.558 94.8044L102.451 91.4839H103.042L103.155 94.8044H102.558ZM102.338 88.1635L102.231 84.843H102.828L102.935 88.1635H102.338ZM102.125 81.5226L102.012 78.2022H102.608L102.715 81.5226H102.125ZM101.88 74.913L101.773 71.5925H102.363L102.476 74.913H101.88ZM101.66 68.2721L101.553 64.9517H102.15L102.257 68.2721H101.66Z" fill="#407BFF"/>
<path opacity="0.3" d="M101.447 61.6001L101.378 59.5178H103.469V60.1119H101.993L102.037 61.5814L101.447 61.6001Z" fill="#407BFF"/>
<path opacity="0.3" d="M150.155 60.1116H146.82V59.4863H150.155V60.1116ZM143.485 60.1116H140.151V59.4863H143.485V60.1116ZM136.816 60.1116H133.481V59.4863H136.816V60.1116ZM130.147 60.1116H126.812V59.4863H130.147V60.1116ZM123.477 60.1116H120.143V59.4863H123.477V60.1116ZM116.808 60.1116H113.473V59.4863H116.808V60.1116ZM110.139 60.1116H106.804V59.4863H110.139V60.1116Z" fill="#407BFF"/>
<path opacity="0.3" d="M155.034 61.5999L154.984 60.1116H153.489V59.5176H155.562L155.631 61.5811L155.034 61.5999Z" fill="#407BFF"/>
<path opacity="0.3" d="M156.56 108.086L156.453 104.766H157.044L157.157 108.086H156.56ZM156.372 101.445L156.265 98.1248H156.862L156.968 101.445H156.372ZM156.158 94.8044L156.045 91.4839H156.642L156.749 94.8044H156.158ZM155.938 88.1635L155.832 84.843H156.422L156.535 88.1635H155.938ZM155.719 81.5226L155.612 78.2022H156.209L156.315 81.5226H155.719ZM155.474 74.913L155.361 71.5925H155.989L156.095 74.913H155.474ZM155.254 68.2721L155.147 64.9517H155.738L155.851 68.2721H155.254Z" fill="#407BFF"/>
</g>
<path d="M141.187 94.9607H119.263C117.234 94.9464 115.287 94.1555 113.827 92.7516C112.367 91.3478 111.505 89.4386 111.419 87.4193C111.35 85.6027 111.961 83.8251 113.134 82.4323C114.308 81.0396 115.96 80.1313 117.769 79.8843C118.243 78.0776 119.306 76.479 120.792 75.3393C122.278 74.1996 124.101 73.5834 125.977 73.5873C127.52 73.5884 129.036 73.9854 130.381 74.7401C131.725 75.4948 132.851 76.5816 133.651 77.8957C134.341 77.688 135.058 77.5826 135.78 77.5831C137.65 77.6005 139.449 78.2989 140.837 79.5466C142.225 80.7942 143.107 82.5047 143.316 84.3553C144.274 84.8102 145.09 85.516 145.676 86.3972C146.262 87.2784 146.597 88.3018 146.644 89.3578C146.674 90.0885 146.554 90.8175 146.293 91.5009C146.032 92.1843 145.634 92.8079 145.124 93.3339C144.614 93.86 144.002 94.2775 143.325 94.5615C142.649 94.8454 141.921 94.9897 141.187 94.9857V94.9607ZM125.977 75.0193C124.347 75.0095 122.765 75.5663 121.504 76.5938C120.243 77.6212 119.382 79.0548 119.069 80.6471L118.962 81.2037H118.397C116.857 81.2989 115.417 81.9901 114.383 83.1296C113.349 84.269 112.803 85.766 112.864 87.3005C112.928 88.9464 113.628 90.5043 114.816 91.6502C116.004 92.7962 117.59 93.4421 119.244 93.4537H141.168C141.705 93.4584 142.237 93.3543 142.733 93.1478C143.228 92.9413 143.676 92.6367 144.05 92.2525C144.423 91.8682 144.715 91.4124 144.906 90.9126C145.097 90.4129 145.184 89.8797 145.162 89.3453C145.123 88.4941 144.836 87.6726 144.335 86.9817C143.834 86.2908 143.141 85.7605 142.342 85.4558L141.89 85.287V84.8055C141.81 83.2402 141.133 81.7643 139.998 80.6789C138.862 79.5935 137.354 78.9805 135.78 78.965C135.03 78.9634 134.288 79.1078 133.594 79.3903L132.966 79.6404L132.658 79.0526C132.021 77.8364 131.062 76.8173 129.883 76.1063C128.705 75.3952 127.354 75.0192 125.977 75.0193Z" fill="#407BFF"/>
<path d="M134.869 87.8757L128.822 82.0415L123.157 87.8757H126.473L126.674 93.9038H131.754L131.553 87.8757H134.869Z" fill="#407BFF"/>
<path d="M230.476 64.1887C231.054 65.0141 231.519 65.7208 231.996 66.4961C232.473 67.2715 232.925 68.0219 233.365 68.7973C234.244 70.3544 235.061 71.9239 235.808 73.581C236.578 75.227 237.257 76.9137 237.843 78.6336C238.449 80.3997 238.926 82.2075 239.268 84.0426L239.507 85.4683L239.538 85.6497L239.576 85.8748C239.576 86.0936 239.626 86.2812 239.632 86.5001C239.645 86.7459 239.645 86.9922 239.632 87.238L239.601 87.6319L239.532 88.0697C239.48 88.3784 239.4 88.6818 239.293 88.9764C239.178 89.3086 239.031 89.629 238.854 89.9331C238.501 90.5453 238.029 91.0811 237.466 91.5089C236.636 92.1369 235.663 92.5495 234.634 92.7095C233.957 92.8167 233.27 92.8502 232.586 92.8096C232.028 92.7806 231.472 92.7158 230.922 92.6157C229.951 92.4307 228.992 92.1842 228.052 91.8779C226.332 91.3089 224.653 90.6214 223.028 89.8205C221.426 89.0482 219.87 88.1838 218.368 87.2317L220.177 83.2422C223.298 84.0791 226.458 84.7594 229.647 85.2807C230.352 85.3869 231.063 85.4474 231.776 85.4621C232.232 85.501 232.691 85.4501 233.126 85.312C233.164 85.312 233.02 85.237 232.605 85.5121C232.376 85.6817 232.182 85.8941 232.034 86.1374C231.962 86.2567 231.901 86.3823 231.852 86.5126C231.813 86.6083 231.782 86.7065 231.757 86.8065L231.72 87.0129C231.722 87.0462 231.722 87.0796 231.72 87.1129C231.72 87.1129 231.72 87.1442 231.72 87.1129V87.0316V86.9003L231.437 85.8435C230.494 82.9299 229.286 80.1084 227.826 77.4142C227.116 76.0073 226.338 74.6128 225.546 73.2308C225.151 72.5367 224.743 71.8551 224.334 71.1735C223.926 70.4919 223.487 69.7791 223.122 69.21L230.476 64.1887Z" fill="#FFB573"/>
<path d="M220.924 83.5798L218.199 80.8722L215.492 86.8877C215.492 86.8877 218.054 88.301 220.334 87.2692L220.924 83.5798Z" fill="#FFB573"/>
<path d="M214.173 78.7212L212.164 83.7988L215.486 86.8878L218.199 80.8723L214.173 78.7212Z" fill="#FFB573"/>
<path d="M223.371 66.1956L171.084 57.0249L161.874 109.088L214.161 118.259L223.371 66.1956Z" fill="#407BFF"/>
<path opacity="0.6" d="M223.371 66.1956L171.084 57.0249L161.874 109.088L214.161 118.259L223.371 66.1956Z" fill="white"/>
<path d="M220.374 68.286L173.178 60.0081L164.864 107.003L212.06 115.281L220.374 68.286Z" fill="white"/>
<path opacity="0.3" d="M195.382 84.0069C199.385 81.2152 200.357 75.7211 197.553 71.7356C194.75 67.75 189.232 66.7823 185.229 69.574C181.227 72.3658 180.255 77.8598 183.059 81.8454C185.862 85.8309 191.38 86.7987 195.382 84.0069Z" fill="#407BFF"/>
<path opacity="0.2" d="M201.375 89.6267L185.555 100.651L178.283 90.3146L166.345 98.6376L164.863 107.004L212.057 115.284L213.539 106.917L201.375 89.6267Z" fill="#407BFF"/>
<path d="M203.968 45.2479C203.968 45.6668 203.767 46.0045 203.491 46.0108C203.215 46.017 202.989 45.6856 202.982 45.2666C202.976 44.8477 203.19 44.51 203.46 44.5037C203.73 44.4975 203.962 44.8352 203.968 45.2479Z" fill="#263238"/>
<path d="M203.805 46.0045C203.331 47.2861 202.684 48.4978 201.883 49.6064C202.173 49.8029 202.502 49.9344 202.848 49.9916C203.194 50.0489 203.549 50.0305 203.887 49.9378L203.805 46.0045Z" fill="#FF5652"/>
<path d="M205.444 42.9092C205.379 42.9221 205.311 42.9086 205.256 42.8717C205.01 42.6861 204.723 42.5634 204.418 42.5143C204.114 42.4653 203.802 42.4914 203.51 42.5903C203.48 42.6024 203.448 42.6085 203.415 42.6082C203.383 42.6078 203.351 42.601 203.321 42.5882C203.291 42.5754 203.264 42.5568 203.242 42.5336C203.219 42.5103 203.202 42.4828 203.19 42.4527C203.177 42.4232 203.171 42.3915 203.171 42.3594C203.171 42.3274 203.177 42.2957 203.189 42.2661C203.202 42.2365 203.22 42.2095 203.242 42.1868C203.265 42.1641 203.292 42.1461 203.322 42.1338C203.691 42.0094 204.085 41.9745 204.47 42.0322C204.856 42.0898 205.222 42.2383 205.538 42.4652C205.592 42.503 205.628 42.5602 205.64 42.6245C205.652 42.6887 205.638 42.755 205.601 42.8092C205.564 42.8613 205.508 42.8971 205.444 42.9092Z" fill="#263238"/>
<path d="M216.076 46.8362C215.812 50.6756 216.114 58.4233 219.059 60.5932C219.059 60.5932 218.337 63.7198 211.347 64.5952C203.667 65.5582 207.196 61.256 207.196 61.256C211.266 59.7365 210.769 56.6537 209.671 53.8335L216.076 46.8362Z" fill="#FFB573"/>
<path d="M235.117 212.871H235.073C234.98 212.822 234.905 212.746 234.858 212.653C234.81 212.56 234.793 212.455 234.809 212.352C234.811 212.269 234.832 212.187 234.869 212.113C234.905 212.038 234.958 211.973 235.023 211.92C235.613 211.42 237.334 211.639 237.409 211.651C237.433 211.653 237.456 211.663 237.475 211.678C237.493 211.693 237.507 211.713 237.514 211.736C237.521 211.759 237.52 211.784 237.513 211.807C237.505 211.829 237.491 211.849 237.472 211.864C237.07 212.189 235.739 213.108 235.117 212.871ZM237.083 211.845C236.499 211.802 235.531 211.789 235.199 212.089C235.16 212.119 235.129 212.156 235.107 212.2C235.085 212.243 235.074 212.291 235.073 212.339C235.073 212.571 235.161 212.614 235.192 212.627C235.5 212.79 236.448 212.314 237.083 211.858V211.845Z" fill="#407BFF"/>
<path d="M236.524 211.689C235.896 211.476 235.268 211.126 235.174 210.763C235.147 210.675 235.153 210.58 235.19 210.496C235.227 210.411 235.292 210.342 235.375 210.301C235.452 210.248 235.539 210.213 235.631 210.197C235.723 210.18 235.818 210.184 235.908 210.207C236.668 210.363 237.459 211.633 237.497 211.689C237.51 211.707 237.516 211.729 237.516 211.751C237.516 211.774 237.51 211.795 237.497 211.814C237.487 211.833 237.471 211.849 237.453 211.86C237.434 211.871 237.412 211.877 237.39 211.877C237.094 211.854 236.802 211.791 236.524 211.689ZM235.946 210.438H235.858C235.8 210.422 235.739 210.418 235.679 210.428C235.619 210.437 235.562 210.46 235.513 210.495C235.381 210.588 235.4 210.657 235.406 210.688C235.506 211.02 236.486 211.483 237.145 211.595C236.849 211.122 236.436 210.733 235.946 210.463V210.438Z" fill="#407BFF"/>
<path d="M196.985 221.419C196.319 221.419 195.679 221.325 195.459 221.025C195.404 220.947 195.375 220.854 195.375 220.759C195.375 220.664 195.404 220.571 195.459 220.493C195.501 220.422 195.558 220.36 195.624 220.311C195.691 220.261 195.767 220.226 195.848 220.206C196.709 219.974 198.523 221 198.599 221.044C198.619 221.057 198.635 221.076 198.644 221.098C198.654 221.12 198.657 221.145 198.653 221.168C198.649 221.192 198.638 221.214 198.622 221.232C198.606 221.25 198.585 221.263 198.561 221.269C198.041 221.366 197.514 221.416 196.985 221.419ZM196.162 220.412C196.082 220.412 196.001 220.423 195.924 220.443C195.825 220.466 195.739 220.527 195.685 220.612C195.597 220.769 195.628 220.844 195.685 220.887C195.924 221.219 197.236 221.225 198.197 221.088C197.569 220.733 196.878 220.504 196.162 220.412Z" fill="#407BFF"/>
<path d="M198.549 221.275H198.499C197.871 220.994 196.615 219.881 196.728 219.299C196.728 219.161 196.847 218.986 197.186 218.955C197.308 218.942 197.431 218.953 197.548 218.99C197.665 219.027 197.772 219.087 197.864 219.168C198.524 219.706 198.668 221.094 198.668 221.15C198.672 221.172 198.669 221.194 198.66 221.214C198.651 221.234 198.636 221.251 198.618 221.263C198.596 221.273 198.573 221.277 198.549 221.275ZM197.293 219.18H197.192C196.973 219.18 196.96 219.287 196.954 219.318C196.897 219.668 197.739 220.568 198.373 220.925C198.317 220.338 198.08 219.784 197.695 219.337C197.58 219.24 197.436 219.185 197.287 219.18H197.293Z" fill="#407BFF"/>
<path d="M204.245 221.15H199.064L198.549 209.206H203.73L204.245 221.15Z" fill="#FFB573"/>
<path d="M242.986 210.257L238.182 211.57L232.034 200.371L236.838 199.057L242.986 210.257Z" fill="#FFB573"/>
<path d="M237.459 211.045L242.647 208.406C242.738 208.36 242.842 208.345 242.943 208.366C243.043 208.386 243.134 208.44 243.199 208.519L246.208 212.139C246.28 212.228 246.331 212.332 246.357 212.443C246.383 212.555 246.384 212.671 246.359 212.782C246.335 212.894 246.285 212.999 246.214 213.089C246.143 213.179 246.053 213.252 245.95 213.302C244.129 214.19 243.193 214.553 240.926 215.691C239.526 216.41 235.356 219.493 233.252 220.068C231.148 220.643 230.332 218.611 231.142 218.192C233.802 216.833 235.847 214.524 236.869 211.726C236.978 211.436 237.187 211.194 237.459 211.045Z" fill="#263238"/>
<path d="M199.076 220.556H204.728C204.83 220.556 204.929 220.591 205.009 220.655C205.089 220.718 205.145 220.807 205.168 220.906L206.191 225.49C206.217 225.601 206.217 225.716 206.191 225.827C206.166 225.938 206.115 226.042 206.043 226.131C205.971 226.219 205.879 226.29 205.776 226.339C205.672 226.387 205.558 226.411 205.444 226.409C203.403 226.409 200.451 226.253 197.908 226.253C194.906 226.253 192.319 226.421 188.802 226.421C186.673 226.421 186.083 224.277 186.974 224.083C191.025 223.201 194.335 223.107 197.839 220.956C198.206 220.712 198.634 220.573 199.076 220.556Z" fill="#263238"/>
<path d="M221.357 70.1418C221.898 71.53 222.494 72.8807 223.097 74.1501C224.127 76.3387 225.157 78.2584 225.904 79.5778C226.57 80.7722 227.009 81.4538 227.009 81.4538L238.313 75.8697C238.313 75.8697 233.754 62.813 228.994 61.3623C224.127 59.9053 218.915 63.9198 221.357 70.1418Z" fill="#263238"/>
<path opacity="0.2" d="M226.376 71.4362C225.39 72.1553 224.686 74.1 224.184 76.3824C224.812 77.6331 225.44 78.7274 225.905 79.5778C226.57 80.7722 227.01 81.4538 227.01 81.4538L228.303 80.8284C228.279 77.6028 227.624 74.4127 226.376 71.4362Z" fill="black"/>
<path d="M197.431 78.4648C197.431 80.2219 197.475 82.1542 197.569 84.2802C197.826 90.0707 198.461 97.2806 199.673 106.241H227.38C227.575 102.008 224.899 81.3412 229.007 61.3811C225.941 60.7963 222.84 60.4078 219.725 60.218C215.801 59.9928 211.867 59.9928 207.943 60.218C205.254 60.4899 202.589 60.9687 199.974 61.65C199.974 61.65 197.424 64.5202 197.431 78.4648Z" fill="#263238"/>
<path d="M204.559 70.2793C204.147 71.1376 203.688 71.9727 203.183 72.7805C202.725 73.5184 202.26 74.225 201.783 74.9129C200.828 76.2948 199.83 77.6205 198.781 78.9087C196.674 81.5455 194.335 83.9897 191.791 86.2124C190.439 87.3984 188.987 88.4674 187.452 89.4078L186.824 89.7642L186.661 89.858L186.434 89.9706L185.976 90.1894C185.383 90.4502 184.764 90.6493 184.13 90.7835C183.002 91.0091 181.846 91.0681 180.701 90.9586C178.788 90.7261 176.931 90.1632 175.212 89.2952C174.418 88.9047 173.648 88.4661 172.907 87.982C172.16 87.4967 171.445 86.9641 170.766 86.3875L172.989 82.6356C175.708 83.3422 178.773 83.98 180.883 83.6861C181.319 83.6416 181.743 83.5232 182.139 83.3359C182.267 83.2704 182.389 83.1929 182.503 83.1046L182.56 83.0483L182.597 83.017L182.685 82.9545L183.068 82.6856C184.145 81.8741 185.165 80.9904 186.12 80.0405C188.169 77.9731 190.076 75.7712 191.829 73.4496C192.727 72.274 193.594 71.0734 194.429 69.8728C194.837 69.2475 195.245 68.6659 195.622 68.0781C195.999 67.4903 196.376 66.8775 196.57 66.4961L204.559 70.2793Z" fill="#FFB573"/>
<path d="M174.094 83.1859L169.315 80.9285L168.882 87.3067C168.882 87.3067 172.6 87.932 174.565 86.5063L174.094 83.1859Z" fill="#FFB573"/>
<path d="M163.293 82.0103L165.133 86.8753L168.882 87.3067L169.315 80.9285L163.293 82.0103Z" fill="#FFB573"/>
<path d="M207.981 66.8964C207.818 71.8239 197.619 83.1547 197.619 83.1547L186.849 76.1636C186.849 76.1636 190.284 69.8166 194.68 65.208C201.393 58.2607 208.176 60.9809 207.981 66.8964Z" fill="#263238"/>
<path opacity="0.2" d="M198.549 209.206L198.812 215.366H204L203.736 209.206H198.549Z" fill="black"/>
<path opacity="0.2" d="M236.838 199.057L232.034 200.371L235.205 206.149L240.009 204.829L236.838 199.057Z" fill="black"/>
<path d="M217.916 44.0785C217.709 49.1936 217.853 52.2077 215.316 54.8715C211.498 58.8986 205.117 56.6912 203.786 51.6199C202.587 47.0488 203.127 39.4512 208.107 37.3126C209.202 36.8349 210.403 36.6444 211.593 36.7592C212.784 36.874 213.925 37.2904 214.908 37.9686C215.892 38.6468 216.684 39.5643 217.211 40.6338C217.737 41.7033 217.98 42.8892 217.916 44.0785Z" fill="#FFB573"/>
<path d="M207.661 46.5172C205.808 45.2041 203.993 42.4964 204.138 40.4829C202.423 40.4141 201.274 37.6002 202.216 35.5491C202.807 36.8686 204.848 35.8931 205.645 34.855C205.218 33.8483 205.287 32.1787 208.22 30.9968C207.975 31.8473 208.101 33.2792 211.046 32.2475C214.619 30.9968 220.899 31.8285 219.059 36.0682C221.571 36.5184 224.843 41.696 222.067 44.4162C219.292 47.1363 218.72 51.526 216.346 51.9825C213.972 52.439 207.799 52.5828 207.661 46.5172Z" fill="#263238"/>
<path d="M217.388 35.8993C218.387 35.4832 219.497 35.4155 220.54 35.7073C221.582 35.999 222.494 36.6331 223.128 37.5064C221.321 36.6475 219.38 36.104 217.388 35.8993Z" fill="#263238"/>
<path d="M209.011 46.2984C208.965 47.4454 208.539 48.5449 207.799 49.425C206.819 50.563 205.746 49.9002 205.526 48.5558C205.331 47.3427 205.607 45.2979 206.826 44.6475C208.044 43.9972 209.055 44.9289 209.011 46.2984Z" fill="#FFB573"/>
<path d="M209.501 106.241C209.501 106.241 207.058 145.28 211.693 159.675C219.028 182.474 232.115 205.767 232.115 205.767L241.473 202.959C241.473 202.959 231.18 178.378 227.795 159.187C224.755 141.935 227.38 120.355 227.38 106.26L209.501 106.241Z" fill="#1A79E8"/>
<path opacity="0.2" d="M209.124 114.933C211.737 114.17 213.778 114.458 214.305 116.809C215.687 122.856 211.542 138.808 209.476 146.105C208.622 135.625 208.816 123.119 209.124 114.933Z" fill="black"/>
<path d="M229.471 203.103C229.433 203.103 231.914 205.992 231.914 205.992L242.138 202.928L240.838 199.483L229.471 203.103Z" fill="#263238"/>
<path d="M199.704 106.241C199.704 106.241 191.898 139.177 191.346 154.91C190.718 172.556 196.916 214.171 196.916 214.171H205.708C205.708 214.171 206.788 172.231 207.178 156.161C207.605 138.652 217.929 106.241 217.929 106.241H199.704Z" fill="#1A79E8"/>
<path d="M195.195 210.695C195.158 210.695 195.691 214.322 195.691 214.322H206.367L206.656 211.082L195.195 210.695Z" fill="#263238"/>
<path d="M203.547 59.0048C204.741 58.5984 213.79 57.454 220.359 57.8042C224.127 57.9981 226.224 58.4295 227.757 59.1487C229.289 59.8678 226.545 63.6009 225.276 64.0574C225.791 65.4831 222.934 67.3028 221.307 68.1658C220.679 69.504 214.23 70.7421 210.462 67.8656C207.567 65.652 200.162 60.1742 203.547 59.0048Z" fill="#1A79E8"/>
</g>
<defs>
<clipPath id="clip0_3_2769">
<rect width="314" height="233" fill="white" transform="translate(0 0.5)"/>
</clipPath>
</defs>
</svg>
