<svg width="45" height="46" viewBox="0 0 45 46" fill="none" xmlns="http://www.w3.org/2000/svg">
<circle cx="22.5" cy="23" r="22.5" fill="#293341" fill-opacity="0.6"/>
<path d="M20.6314 24.6314L14.25 31.0128V28.75C14.25 28.267 13.858 27.875 13.375 27.875C12.892 27.875 12.5 28.267 12.5 28.75V33.125C12.5 33.608 12.892 34 13.375 34H17.75C18.233 34 18.625 33.608 18.625 33.125C18.625 32.642 18.233 32.25 17.75 32.25H15.4872L21.8686 25.8686C22.2103 25.527 22.2103 24.9731 21.8686 24.6314C21.5274 24.2897 20.9726 24.2897 20.6314 24.6314Z" fill="white"/>
<path d="M32.6249 13H28.2499C27.7669 13 27.3749 13.392 27.3749 13.875C27.3749 14.358 27.7669 14.75 28.2499 14.75H30.5126L24.1313 21.1314C23.7896 21.4731 23.7896 22.0269 24.1313 22.3686C24.3019 22.5397 24.5259 22.625 24.7499 22.625C24.9739 22.625 25.1979 22.5397 25.3685 22.3686L31.7499 15.9873V18.25C31.7499 18.733 32.1419 19.125 32.6249 19.125C33.1079 19.125 33.4999 18.733 33.4999 18.25V13.875C33.4999 13.392 33.1079 13 32.6249 13Z" fill="white"/>
</svg>
