<svg width="19" height="20" viewBox="0 0 19 20" fill="none" xmlns="http://www.w3.org/2000/svg">
<path d="M5.42426 1.07573C5.18995 0.841419 4.81005 0.841419 4.57574 1.07573L0.757359 4.89411C0.523044 5.12843 0.523044 5.50832 0.757359 5.74264C0.991674 5.97695 1.37157 5.97695 1.60589 5.74264L5 2.34853L8.39411 5.74264C8.62843 5.97695 9.00833 5.97695 9.24264 5.74264C9.47696 5.50832 9.47696 5.12843 9.24264 4.89411L5.42426 1.07573ZM5.6 14.9211L5.6 1.5L4.4 1.5L4.4 14.9211L5.6 14.9211Z" fill="#1A79E8"/>
<path d="M13.5757 18.9243C13.8101 19.1586 14.1899 19.1586 14.4243 18.9243L18.2426 15.1059C18.477 14.8716 18.477 14.4917 18.2426 14.2574C18.0083 14.023 17.6284 14.023 17.3941 14.2574L14 17.6515L10.6059 14.2574C10.3716 14.023 9.99167 14.023 9.75736 14.2574C9.52304 14.4917 9.52304 14.8716 9.75736 15.1059L13.5757 18.9243ZM13.4 5.07895L13.4 18.5H14.6L14.6 5.07895H13.4Z" fill="#1A79E8"/>
</svg>
