<svg width="24" height="26" viewBox="0 0 24 26" fill="none" xmlns="http://www.w3.org/2000/svg">
<g clip-path="url(#clip0_3_2706)">
<path d="M17 1.65967H7C4.23858 1.65967 2 3.89824 2 6.65967V16.6597C2 19.4211 4.23858 21.6597 7 21.6597H17C19.7614 21.6597 22 19.4211 22 16.6597V6.65967C22 3.89824 19.7614 1.65967 17 1.65967Z" stroke="#293341" stroke-width="2" stroke-linecap="round" stroke-linejoin="round"/>
<path d="M16 11.0297C16.1234 11.862 15.9812 12.7119 15.5937 13.4587C15.2062 14.2055 14.5931 14.8111 13.8416 15.1894C13.0901 15.5677 12.2384 15.6993 11.4077 15.5657C10.5771 15.432 9.80971 15.0398 9.21479 14.4449C8.61987 13.85 8.22768 13.0826 8.09402 12.2519C7.96035 11.4213 8.09202 10.5696 8.47028 9.8181C8.84854 9.06658 9.45414 8.45347 10.2009 8.06597C10.9477 7.67847 11.7977 7.53631 12.63 7.65973C13.4789 7.78561 14.2648 8.18119 14.8716 8.78803C15.4785 9.39487 15.8741 10.1808 16 11.0297Z" stroke="#293341" stroke-width="2" stroke-linecap="round" stroke-linejoin="round"/>
<path d="M17.5 6.15967H17.51" stroke="#293341" stroke-width="2" stroke-linecap="round" stroke-linejoin="round"/>
</g>
<defs>
<clipPath id="clip0_3_2706">
<rect width="24" height="24.8067" fill="white" transform="translate(0 0.5)"/>
</clipPath>
</defs>
</svg>
