<svg width="578" height="45" viewBox="0 0 578 45" fill="none" xmlns="http://www.w3.org/2000/svg">
<path d="M2.1 40.576H6.86V41.5H1.12V31.7H6.79V32.624H2.1V36.096H6.44V37.02H2.1V40.576ZM12.0998 34.332C12.9492 34.332 13.6165 34.5933 14.1018 35.116C14.5965 35.6293 14.8438 36.3247 14.8438 37.202V41.5H13.9198V37.202C13.9198 36.5767 13.7518 36.0913 13.4158 35.746C13.0892 35.4007 12.6225 35.228 12.0158 35.228C11.3438 35.228 10.7978 35.4427 10.3778 35.872C9.95783 36.292 9.74783 36.9453 9.74783 37.832V41.5H8.82383V34.5H9.74783V35.592C10.2705 34.752 11.0545 34.332 12.0998 34.332ZM20.7605 35.396H18.7445V39.638C18.7445 40.0207 18.8191 40.296 18.9685 40.464C19.1178 40.6227 19.3418 40.7067 19.6405 40.716C19.9391 40.716 20.3125 40.7067 20.7605 40.688V41.5C19.7805 41.6493 19.0431 41.5793 18.5485 41.29C18.0631 41.0007 17.8205 40.45 17.8205 39.638V35.396H16.3505V34.5H17.8205V32.82L18.7445 32.54V34.5H20.7605V35.396ZM25.5306 34.332C26.5666 34.332 27.402 34.7007 28.0366 35.438C28.6806 36.166 29.0026 37.0293 29.0026 38.028C29.0026 38.1307 28.9933 38.2753 28.9746 38.462H22.8286C22.922 39.1713 23.2206 39.736 23.7246 40.156C24.238 40.5667 24.868 40.772 25.6146 40.772C26.1466 40.772 26.604 40.6647 26.9866 40.45C27.3786 40.226 27.6726 39.9367 27.8686 39.582L28.6806 40.058C28.3726 40.5527 27.9526 40.9447 27.4206 41.234C26.8886 41.5233 26.282 41.668 25.6006 41.668C24.4993 41.668 23.6033 41.3227 22.9126 40.632C22.222 39.9413 21.8766 39.064 21.8766 38C21.8766 36.9547 22.2173 36.082 22.8986 35.382C23.58 34.682 24.4573 34.332 25.5306 34.332ZM25.5306 35.228C24.8026 35.228 24.1913 35.4473 23.6966 35.886C23.2113 36.3153 22.922 36.8753 22.8286 37.566H28.0506C27.9573 36.8287 27.6726 36.2547 27.1966 35.844C26.7206 35.4333 26.1653 35.228 25.5306 35.228ZM31.8164 35.662C32.2458 34.8127 32.9831 34.388 34.0284 34.388V35.284C33.3938 35.284 32.8664 35.4707 32.4464 35.844C32.0264 36.2173 31.8164 36.8053 31.8164 37.608V41.5H30.8924V34.5H31.8164V35.662ZM43.3448 35.396H41.3288V39.638C41.3288 40.0207 41.4034 40.296 41.5528 40.464C41.7021 40.6227 41.9261 40.7067 42.2248 40.716C42.5234 40.716 42.8968 40.7067 43.3448 40.688V41.5C42.3648 41.6493 41.6274 41.5793 41.1328 41.29C40.6474 41.0007 40.4048 40.45 40.4048 39.638V35.396H38.9348V34.5H40.4048V32.82L41.3288 32.54V34.5H43.3448V35.396ZM48.5808 34.332C49.4301 34.332 50.0974 34.5933 50.5828 35.116C51.0774 35.6293 51.3248 36.3247 51.3248 37.202V41.5H50.4008V37.202C50.4008 36.5767 50.2328 36.0913 49.8968 35.746C49.5701 35.4007 49.1034 35.228 48.4968 35.228C47.8248 35.228 47.2788 35.4427 46.8588 35.872C46.4388 36.292 46.2288 36.9453 46.2288 37.832V41.5H45.3048V31.7H46.2288V35.592C46.7514 34.752 47.5354 34.332 48.5808 34.332ZM56.7654 34.332C57.8014 34.332 58.6367 34.7007 59.2714 35.438C59.9154 36.166 60.2374 37.0293 60.2374 38.028C60.2374 38.1307 60.2281 38.2753 60.2094 38.462H54.0634C54.1567 39.1713 54.4554 39.736 54.9594 40.156C55.4727 40.5667 56.1027 40.772 56.8494 40.772C57.3814 40.772 57.8387 40.6647 58.2214 40.45C58.6134 40.226 58.9074 39.9367 59.1034 39.582L59.9154 40.058C59.6074 40.5527 59.1874 40.9447 58.6554 41.234C58.1234 41.5233 57.5167 41.668 56.8354 41.668C55.7341 41.668 54.8381 41.3227 54.1474 40.632C53.4567 39.9413 53.1114 39.064 53.1114 38C53.1114 36.9547 53.4521 36.082 54.1334 35.382C54.8147 34.682 55.6921 34.332 56.7654 34.332ZM56.7654 35.228C56.0374 35.228 55.4261 35.4473 54.9314 35.886C54.4461 36.3153 54.1567 36.8753 54.0634 37.566H59.2854C59.1921 36.8287 58.9074 36.2547 58.4314 35.844C57.9554 35.4333 57.4001 35.228 56.7654 35.228ZM69.7992 34.332C70.7979 34.332 71.6472 34.6867 72.3472 35.396C73.0565 36.1053 73.4112 36.9733 73.4112 38C73.4112 39.0267 73.0565 39.8947 72.3472 40.604C71.6472 41.3133 70.7979 41.668 69.7992 41.668C68.5579 41.668 67.6152 41.1547 66.9712 40.128V44.3H66.0472V34.5H66.9712V35.872C67.6152 34.8453 68.5579 34.332 69.7992 34.332ZM67.7692 39.974C68.3012 40.506 68.9545 40.772 69.7292 40.772C70.5039 40.772 71.1572 40.506 71.6892 39.974C72.2212 39.4327 72.4872 38.7747 72.4872 38C72.4872 37.2253 72.2212 36.572 71.6892 36.04C71.1572 35.4987 70.5039 35.228 69.7292 35.228C68.9545 35.228 68.3012 35.4987 67.7692 36.04C67.2372 36.572 66.9712 37.2253 66.9712 38C66.9712 38.7747 67.2372 39.4327 67.7692 39.974ZM76.2916 35.662C76.7209 34.8127 77.4582 34.388 78.5036 34.388V35.284C77.8689 35.284 77.3416 35.4707 76.9216 35.844C76.5016 36.2173 76.2916 36.8053 76.2916 37.608V41.5H75.3676V34.5H76.2916V35.662ZM81.1279 32.82C80.9973 32.9507 80.8386 33.016 80.6519 33.016C80.4653 33.016 80.3066 32.9507 80.1759 32.82C80.0453 32.6893 79.9799 32.5307 79.9799 32.344C79.9799 32.1573 80.0453 31.9987 80.1759 31.868C80.3066 31.7373 80.4653 31.672 80.6519 31.672C80.8386 31.672 80.9973 31.7373 81.1279 31.868C81.2586 31.9987 81.3239 32.1573 81.3239 32.344C81.3239 32.5307 81.2586 32.6893 81.1279 32.82ZM80.1899 41.5V34.5H81.1139V41.5H80.1899ZM86.7567 41.668C85.702 41.668 84.8247 41.318 84.1247 40.618C83.4247 39.9087 83.0747 39.036 83.0747 38C83.0747 36.964 83.4247 36.096 84.1247 35.396C84.8247 34.6867 85.702 34.332 86.7567 34.332C87.4474 34.332 88.068 34.5 88.6187 34.836C89.1694 35.1627 89.5707 35.606 89.8227 36.166L89.0667 36.6C88.88 36.18 88.5767 35.8487 88.1567 35.606C87.746 35.354 87.2794 35.228 86.7567 35.228C85.982 35.228 85.3287 35.4987 84.7967 36.04C84.2647 36.572 83.9987 37.2253 83.9987 38C83.9987 38.7747 84.2647 39.4327 84.7967 39.974C85.3287 40.506 85.982 40.772 86.7567 40.772C87.2794 40.772 87.746 40.6507 88.1567 40.408C88.5674 40.156 88.8894 39.82 89.1227 39.4L89.8927 39.848C89.6034 40.408 89.1787 40.8513 88.6187 41.178C88.0587 41.5047 87.438 41.668 86.7567 41.668ZM94.8049 34.332C95.8409 34.332 96.6763 34.7007 97.3109 35.438C97.9549 36.166 98.2769 37.0293 98.2769 38.028C98.2769 38.1307 98.2676 38.2753 98.2489 38.462H92.1029C92.1963 39.1713 92.4949 39.736 92.9989 40.156C93.5123 40.5667 94.1423 40.772 94.8889 40.772C95.4209 40.772 95.8783 40.6647 96.2609 40.45C96.6529 40.226 96.9469 39.9367 97.1429 39.582L97.9549 40.058C97.6469 40.5527 97.2269 40.9447 96.6949 41.234C96.1629 41.5233 95.5563 41.668 94.8749 41.668C93.7736 41.668 92.8776 41.3227 92.1869 40.632C91.4963 39.9413 91.1509 39.064 91.1509 38C91.1509 36.9547 91.4916 36.082 92.1729 35.382C92.8543 34.682 93.7316 34.332 94.8049 34.332ZM94.8049 35.228C94.0769 35.228 93.4656 35.4473 92.9709 35.886C92.4856 36.3153 92.1963 36.8753 92.1029 37.566H97.3249C97.2316 36.8287 96.9469 36.2547 96.4709 35.844C95.9949 35.4333 95.4396 35.228 94.8049 35.228ZM107.587 32.428C106.905 32.372 106.397 32.4887 106.061 32.778C105.734 33.0673 105.571 33.548 105.571 34.22V34.5H107.587V35.396H105.571V41.5H104.647V35.396H103.457V34.5H104.647V34.22C104.647 33.3053 104.899 32.6147 105.403 32.148C105.916 31.672 106.644 31.4667 107.587 31.532V32.428ZM114.433 40.618C113.724 41.318 112.856 41.668 111.829 41.668C110.803 41.668 109.93 41.318 109.211 40.618C108.502 39.9087 108.147 39.036 108.147 38C108.147 36.964 108.502 36.096 109.211 35.396C109.93 34.6867 110.803 34.332 111.829 34.332C112.856 34.332 113.724 34.6867 114.433 35.396C115.152 36.096 115.511 36.964 115.511 38C115.511 39.036 115.152 39.9087 114.433 40.618ZM109.869 39.974C110.401 40.506 111.055 40.772 111.829 40.772C112.604 40.772 113.257 40.506 113.789 39.974C114.321 39.4327 114.587 38.7747 114.587 38C114.587 37.2253 114.321 36.572 113.789 36.04C113.257 35.4987 112.604 35.228 111.829 35.228C111.055 35.228 110.401 35.4987 109.869 36.04C109.337 36.572 109.071 37.2253 109.071 38C109.071 38.7747 109.337 39.4327 109.869 39.974ZM118.401 35.662C118.831 34.8127 119.568 34.388 120.613 34.388V35.284C119.979 35.284 119.451 35.4707 119.031 35.844C118.611 36.2173 118.401 36.8053 118.401 37.608V41.5H117.477V34.5H118.401V35.662ZM134.648 34.5H135.6L133.444 41.5H132.436L130.63 35.858L128.824 41.5H127.816L125.66 34.5H126.612L128.334 40.31L130.168 34.5H131.092L132.926 40.31L134.648 34.5ZM140.689 34.332C141.539 34.332 142.206 34.5933 142.691 35.116C143.186 35.6293 143.433 36.3247 143.433 37.202V41.5H142.509V37.202C142.509 36.5767 142.341 36.0913 142.005 35.746C141.679 35.4007 141.212 35.228 140.605 35.228C139.933 35.228 139.387 35.4427 138.967 35.872C138.547 36.292 138.337 36.9453 138.337 37.832V41.5H137.413V31.7H138.337V35.592C138.86 34.752 139.644 34.332 140.689 34.332ZM146.578 32.82C146.447 32.9507 146.289 33.016 146.102 33.016C145.915 33.016 145.757 32.9507 145.626 32.82C145.495 32.6893 145.43 32.5307 145.43 32.344C145.43 32.1573 145.495 31.9987 145.626 31.868C145.757 31.7373 145.915 31.672 146.102 31.672C146.289 31.672 146.447 31.7373 146.578 31.868C146.709 31.9987 146.774 32.1573 146.774 32.344C146.774 32.5307 146.709 32.6893 146.578 32.82ZM145.64 41.5V34.5H146.564V41.5H145.64ZM152.207 41.668C151.152 41.668 150.275 41.318 149.575 40.618C148.875 39.9087 148.525 39.036 148.525 38C148.525 36.964 148.875 36.096 149.575 35.396C150.275 34.6867 151.152 34.332 152.207 34.332C152.897 34.332 153.518 34.5 154.069 34.836C154.619 35.1627 155.021 35.606 155.273 36.166L154.517 36.6C154.33 36.18 154.027 35.8487 153.607 35.606C153.196 35.354 152.729 35.228 152.207 35.228C151.432 35.228 150.779 35.4987 150.247 36.04C149.715 36.572 149.449 37.2253 149.449 38C149.449 38.7747 149.715 39.4327 150.247 39.974C150.779 40.506 151.432 40.772 152.207 40.772C152.729 40.772 153.196 40.6507 153.607 40.408C154.017 40.156 154.339 39.82 154.573 39.4L155.343 39.848C155.053 40.408 154.629 40.8513 154.069 41.178C153.509 41.5047 152.888 41.668 152.207 41.668ZM160.365 34.332C161.215 34.332 161.882 34.5933 162.367 35.116C162.862 35.6293 163.109 36.3247 163.109 37.202V41.5H162.185V37.202C162.185 36.5767 162.017 36.0913 161.681 35.746C161.355 35.4007 160.888 35.228 160.281 35.228C159.609 35.228 159.063 35.4427 158.643 35.872C158.223 36.292 158.013 36.9453 158.013 37.832V41.5H157.089V31.7H158.013V35.592C158.536 34.752 159.32 34.332 160.365 34.332ZM172.946 35.396H170.93V39.638C170.93 40.0207 171.005 40.296 171.154 40.464C171.303 40.6227 171.527 40.7067 171.826 40.716C172.125 40.716 172.498 40.7067 172.946 40.688V41.5C171.966 41.6493 171.229 41.5793 170.734 41.29C170.249 41.0007 170.006 40.45 170.006 39.638V35.396H168.536V34.5H170.006V32.82L170.93 32.54V34.5H172.946V35.396ZM178.182 34.332C179.031 34.332 179.699 34.5933 180.184 35.116C180.679 35.6293 180.926 36.3247 180.926 37.202V41.5H180.002V37.202C180.002 36.5767 179.834 36.0913 179.498 35.746C179.171 35.4007 178.705 35.228 178.098 35.228C177.426 35.228 176.88 35.4427 176.46 35.872C176.04 36.292 175.83 36.9453 175.83 37.832V41.5H174.906V31.7H175.83V35.592C176.353 34.752 177.137 34.332 178.182 34.332ZM186.367 34.332C187.403 34.332 188.238 34.7007 188.873 35.438C189.517 36.166 189.839 37.0293 189.839 38.028C189.839 38.1307 189.829 38.2753 189.811 38.462H183.665C183.758 39.1713 184.057 39.736 184.561 40.156C185.074 40.5667 185.704 40.772 186.451 40.772C186.983 40.772 187.44 40.6647 187.823 40.45C188.215 40.226 188.509 39.9367 188.705 39.582L189.517 40.058C189.209 40.5527 188.789 40.9447 188.257 41.234C187.725 41.5233 187.118 41.668 186.437 41.668C185.335 41.668 184.439 41.3227 183.749 40.632C183.058 39.9413 182.713 39.064 182.713 38C182.713 36.9547 183.053 36.082 183.735 35.382C184.416 34.682 185.293 34.332 186.367 34.332ZM186.367 35.228C185.639 35.228 185.027 35.4473 184.533 35.886C184.047 36.3153 183.758 36.8753 183.665 37.566H188.887C188.793 36.8287 188.509 36.2547 188.033 35.844C187.557 35.4333 187.001 35.228 186.367 35.228ZM196.586 32.82C196.456 32.9507 196.297 33.016 196.11 33.016C195.924 33.016 195.765 32.9507 195.634 32.82C195.504 32.6893 195.438 32.5307 195.438 32.344C195.438 32.1573 195.504 31.9987 195.634 31.868C195.765 31.7373 195.924 31.672 196.11 31.672C196.297 31.672 196.456 31.7373 196.586 31.868C196.717 31.9987 196.782 32.1573 196.782 32.344C196.782 32.5307 196.717 32.6893 196.586 32.82ZM195.648 41.5V34.5H196.572V41.5H195.648ZM202.663 35.396H200.647V39.638C200.647 40.0207 200.722 40.296 200.871 40.464C201.02 40.6227 201.244 40.7067 201.543 40.716C201.842 40.716 202.215 40.7067 202.663 40.688V41.5C201.683 41.6493 200.946 41.5793 200.451 41.29C199.966 41.0007 199.723 40.45 199.723 39.638V35.396H198.253V34.5H199.723V32.82L200.647 32.54V34.5H202.663V35.396ZM207.433 34.332C208.469 34.332 209.305 34.7007 209.939 35.438C210.583 36.166 210.905 37.0293 210.905 38.028C210.905 38.1307 210.896 38.2753 210.877 38.462H204.731C204.825 39.1713 205.123 39.736 205.627 40.156C206.141 40.5667 206.771 40.772 207.517 40.772C208.049 40.772 208.507 40.6647 208.889 40.45C209.281 40.226 209.575 39.9367 209.771 39.582L210.583 40.058C210.275 40.5527 209.855 40.9447 209.323 41.234C208.791 41.5233 208.185 41.668 207.503 41.668C206.402 41.668 205.506 41.3227 204.815 40.632C204.125 39.9413 203.779 39.064 203.779 38C203.779 36.9547 204.12 36.082 204.801 35.382C205.483 34.682 206.36 34.332 207.433 34.332ZM207.433 35.228C206.705 35.228 206.094 35.4473 205.599 35.886C205.114 36.3153 204.825 36.8753 204.731 37.566H209.953C209.86 36.8287 209.575 36.2547 209.099 35.844C208.623 35.4333 208.068 35.228 207.433 35.228ZM220.257 34.332C221.041 34.332 221.671 34.584 222.147 35.088C222.632 35.592 222.875 36.2733 222.875 37.132V41.5H221.951V37.132C221.951 36.5253 221.792 36.0587 221.475 35.732C221.167 35.396 220.756 35.228 220.243 35.228C219.664 35.228 219.193 35.424 218.829 35.816C218.474 36.1987 218.297 36.8007 218.297 37.622V41.5H217.373V37.132C217.373 36.516 217.224 36.0447 216.925 35.718C216.636 35.3913 216.239 35.228 215.735 35.228C215.175 35.228 214.699 35.424 214.307 35.816C213.915 36.208 213.719 36.81 213.719 37.622V41.5H212.795V34.5H213.719V35.522C214.223 34.7287 214.937 34.332 215.861 34.332C216.869 34.332 217.578 34.7567 217.989 35.606C218.493 34.7567 219.249 34.332 220.257 34.332ZM237.43 34.5H238.382L236.226 41.5H235.218L233.412 35.858L231.606 41.5H230.598L228.442 34.5H229.394L231.116 40.31L232.95 34.5H233.874L235.708 40.31L237.43 34.5ZM241.134 32.82C241.003 32.9507 240.844 33.016 240.658 33.016C240.471 33.016 240.312 32.9507 240.182 32.82C240.051 32.6893 239.986 32.5307 239.986 32.344C239.986 32.1573 240.051 31.9987 240.182 31.868C240.312 31.7373 240.471 31.672 240.658 31.672C240.844 31.672 241.003 31.7373 241.134 31.868C241.264 31.9987 241.33 32.1573 241.33 32.344C241.33 32.5307 241.264 32.6893 241.134 32.82ZM240.196 41.5V34.5H241.12V41.5H240.196ZM243.5 41.5V31.28H244.424V41.5H243.5ZM246.805 41.5V31.28H247.729V41.5H246.805ZM257.782 34.332C258.781 34.332 259.63 34.6867 260.33 35.396C261.039 36.1053 261.394 36.9733 261.394 38C261.394 39.0267 261.039 39.8947 260.33 40.604C259.63 41.3133 258.781 41.668 257.782 41.668C256.541 41.668 255.598 41.1547 254.954 40.128V41.5H254.03V31.7H254.954V35.872C255.598 34.8453 256.541 34.332 257.782 34.332ZM255.752 39.974C256.284 40.506 256.937 40.772 257.712 40.772C258.487 40.772 259.14 40.506 259.672 39.974C260.204 39.4327 260.47 38.7747 260.47 38C260.47 37.2253 260.204 36.572 259.672 36.04C259.14 35.4987 258.487 35.228 257.712 35.228C256.937 35.228 256.284 35.4987 255.752 36.04C255.22 36.572 254.954 37.2253 254.954 38C254.954 38.7747 255.22 39.4327 255.752 39.974ZM266.584 34.332C267.62 34.332 268.456 34.7007 269.09 35.438C269.734 36.166 270.056 37.0293 270.056 38.028C270.056 38.1307 270.047 38.2753 270.028 38.462H263.882C263.976 39.1713 264.274 39.736 264.778 40.156C265.292 40.5667 265.922 40.772 266.668 40.772C267.2 40.772 267.658 40.6647 268.04 40.45C268.432 40.226 268.726 39.9367 268.922 39.582L269.734 40.058C269.426 40.5527 269.006 40.9447 268.474 41.234C267.942 41.5233 267.336 41.668 266.654 41.668C265.553 41.668 264.657 41.3227 263.966 40.632C263.276 39.9413 262.93 39.064 262.93 38C262.93 36.9547 263.271 36.082 263.952 35.382C264.634 34.682 265.511 34.332 266.584 34.332ZM266.584 35.228C265.856 35.228 265.245 35.4473 264.75 35.886C264.265 36.3153 263.976 36.8753 263.882 37.566H269.104C269.011 36.8287 268.726 36.2547 268.25 35.844C267.774 35.4333 267.219 35.228 266.584 35.228ZM276.804 32.82C276.674 32.9507 276.515 33.016 276.328 33.016C276.142 33.016 275.983 32.9507 275.852 32.82C275.722 32.6893 275.656 32.5307 275.656 32.344C275.656 32.1573 275.722 31.9987 275.852 31.868C275.983 31.7373 276.142 31.672 276.328 31.672C276.515 31.672 276.674 31.7373 276.804 31.868C276.935 31.9987 277 32.1573 277 32.344C277 32.5307 276.935 32.6893 276.804 32.82ZM275.866 41.5V34.5H276.79V41.5H275.866ZM282.447 34.332C283.296 34.332 283.964 34.5933 284.449 35.116C284.944 35.6293 285.191 36.3247 285.191 37.202V41.5H284.267V37.202C284.267 36.5767 284.099 36.0913 283.763 35.746C283.436 35.4007 282.97 35.228 282.363 35.228C281.691 35.228 281.145 35.4427 280.725 35.872C280.305 36.292 280.095 36.9453 280.095 37.832V41.5H279.171V34.5H280.095V35.592C280.618 34.752 281.402 34.332 282.447 34.332ZM288.126 36.334C288.126 36.6513 288.266 36.9033 288.546 37.09C288.826 37.2767 289.166 37.4213 289.568 37.524C289.969 37.6267 290.37 37.7433 290.772 37.874C291.173 37.9953 291.514 38.2053 291.794 38.504C292.074 38.7933 292.214 39.176 292.214 39.652C292.214 40.2493 291.976 40.7347 291.5 41.108C291.033 41.4813 290.426 41.668 289.68 41.668C289.008 41.668 288.434 41.5187 287.958 41.22C287.491 40.9213 287.164 40.534 286.978 40.058L287.762 39.596C287.892 39.96 288.126 40.2493 288.462 40.464C288.807 40.6693 289.213 40.772 289.68 40.772C290.137 40.772 290.52 40.6833 290.828 40.506C291.136 40.3193 291.29 40.0347 291.29 39.652C291.29 39.3347 291.15 39.0827 290.87 38.896C290.59 38.7093 290.249 38.5647 289.848 38.462C289.446 38.3593 289.045 38.2473 288.644 38.126C288.242 37.9953 287.902 37.7853 287.622 37.496C287.342 37.1973 287.202 36.81 287.202 36.334C287.202 35.7647 287.426 35.2887 287.874 34.906C288.331 34.5233 288.905 34.332 289.596 34.332C290.165 34.332 290.664 34.4627 291.094 34.724C291.523 34.976 291.84 35.3213 292.046 35.76L291.276 36.208C291.005 35.5547 290.445 35.228 289.596 35.228C289.194 35.228 288.849 35.326 288.56 35.522C288.27 35.7087 288.126 35.9793 288.126 36.334ZM297.612 35.396H295.596V39.638C295.596 40.0207 295.67 40.296 295.82 40.464C295.969 40.6227 296.193 40.7067 296.492 40.716C296.79 40.716 297.164 40.7067 297.612 40.688V41.5C296.632 41.6493 295.894 41.5793 295.4 41.29C294.914 41.0007 294.672 40.45 294.672 39.638V35.396H293.202V34.5H294.672V32.82L295.596 32.54V34.5H297.612V35.396ZM305.168 34.5H306.092V41.5H305.168V40.128C304.524 41.1547 303.581 41.668 302.34 41.668C301.341 41.668 300.487 41.3133 299.778 40.604C299.078 39.8947 298.728 39.0267 298.728 38C298.728 36.9733 299.078 36.1053 299.778 35.396C300.487 34.6867 301.341 34.332 302.34 34.332C303.581 34.332 304.524 34.8453 305.168 35.872V34.5ZM300.45 39.974C300.982 40.506 301.635 40.772 302.41 40.772C303.184 40.772 303.838 40.506 304.37 39.974C304.902 39.4327 305.168 38.7747 305.168 38C305.168 37.2253 304.902 36.572 304.37 36.04C303.838 35.4987 303.184 35.228 302.41 35.228C301.635 35.228 300.982 35.4987 300.45 36.04C299.918 36.572 299.652 37.2253 299.652 38C299.652 38.7747 299.918 39.4327 300.45 39.974ZM311.744 34.332C312.593 34.332 313.261 34.5933 313.746 35.116C314.241 35.6293 314.488 36.3247 314.488 37.202V41.5H313.564V37.202C313.564 36.5767 313.396 36.0913 313.06 35.746C312.733 35.4007 312.267 35.228 311.66 35.228C310.988 35.228 310.442 35.4427 310.022 35.872C309.602 36.292 309.392 36.9453 309.392 37.832V41.5H308.468V34.5H309.392V35.592C309.915 34.752 310.699 34.332 311.744 34.332ZM320.405 35.396H318.389V39.638C318.389 40.0207 318.463 40.296 318.613 40.464C318.762 40.6227 318.986 40.7067 319.285 40.716C319.583 40.716 319.957 40.7067 320.405 40.688V41.5C319.425 41.6493 318.687 41.5793 318.193 41.29C317.707 41.0007 317.465 40.45 317.465 39.638V35.396H315.995V34.5H317.465V32.82L318.389 32.54V34.5H320.405V35.396ZM322.365 41.5V31.28H323.289V41.5H322.365ZM330.71 34.5H331.69L328.694 42.144C328.423 42.8347 328.036 43.376 327.532 43.768C327.037 44.1693 326.482 44.3467 325.866 44.3V43.432C326.706 43.5253 327.345 43.04 327.784 41.976L327.966 41.542L324.83 34.5H325.81L328.442 40.366L330.71 34.5ZM337.874 36.334C337.874 36.6513 338.014 36.9033 338.294 37.09C338.574 37.2767 338.915 37.4213 339.316 37.524C339.718 37.6267 340.119 37.7433 340.52 37.874C340.922 37.9953 341.262 38.2053 341.542 38.504C341.822 38.7933 341.962 39.176 341.962 39.652C341.962 40.2493 341.724 40.7347 341.248 41.108C340.782 41.4813 340.175 41.668 339.428 41.668C338.756 41.668 338.182 41.5187 337.706 41.22C337.24 40.9213 336.913 40.534 336.726 40.058L337.51 39.596C337.641 39.96 337.874 40.2493 338.21 40.464C338.556 40.6693 338.962 40.772 339.428 40.772C339.886 40.772 340.268 40.6833 340.576 40.506C340.884 40.3193 341.038 40.0347 341.038 39.652C341.038 39.3347 340.898 39.0827 340.618 38.896C340.338 38.7093 339.998 38.5647 339.596 38.462C339.195 38.3593 338.794 38.2473 338.392 38.126C337.991 37.9953 337.65 37.7853 337.37 37.496C337.09 37.1973 336.95 36.81 336.95 36.334C336.95 35.7647 337.174 35.2887 337.622 34.906C338.08 34.5233 338.654 34.332 339.344 34.332C339.914 34.332 340.413 34.4627 340.842 34.724C341.272 34.976 341.589 35.3213 341.794 35.76L341.024 36.208C340.754 35.5547 340.194 35.228 339.344 35.228C338.943 35.228 338.598 35.326 338.308 35.522C338.019 35.7087 337.874 35.9793 337.874 36.334ZM349.585 40.618C348.875 41.318 348.007 41.668 346.981 41.668C345.954 41.668 345.081 41.318 344.363 40.618C343.653 39.9087 343.299 39.036 343.299 38C343.299 36.964 343.653 36.096 344.363 35.396C345.081 34.6867 345.954 34.332 346.981 34.332C348.007 34.332 348.875 34.6867 349.585 35.396C350.303 36.096 350.663 36.964 350.663 38C350.663 39.036 350.303 39.9087 349.585 40.618ZM345.021 39.974C345.553 40.506 346.206 40.772 346.981 40.772C347.755 40.772 348.409 40.506 348.941 39.974C349.473 39.4327 349.739 38.7747 349.739 38C349.739 37.2253 349.473 36.572 348.941 36.04C348.409 35.4987 347.755 35.228 346.981 35.228C346.206 35.228 345.553 35.4987 345.021 36.04C344.489 36.572 344.223 37.2253 344.223 38C344.223 38.7747 344.489 39.4327 345.021 39.974ZM352.629 41.5V31.28H353.553V41.5H352.629ZM361.954 31.7H362.878V41.5H361.954V40.128C361.31 41.1547 360.367 41.668 359.126 41.668C358.127 41.668 357.273 41.3133 356.564 40.604C355.864 39.8947 355.514 39.0267 355.514 38C355.514 36.9733 355.864 36.1053 356.564 35.396C357.273 34.6867 358.127 34.332 359.126 34.332C360.367 34.332 361.31 34.8453 361.954 35.872V31.7ZM357.236 39.974C357.768 40.506 358.421 40.772 359.196 40.772C359.97 40.772 360.624 40.506 361.156 39.974C361.688 39.4327 361.954 38.7747 361.954 38C361.954 37.2253 361.688 36.572 361.156 36.04C360.624 35.4987 359.97 35.228 359.196 35.228C358.421 35.228 357.768 35.4987 357.236 36.04C356.704 36.572 356.438 37.2253 356.438 38C356.438 38.7747 356.704 39.4327 357.236 39.974Z" fill="#465364"/>
<path d="M1.2 6.3H2.688V17.5H1.2V6.3ZM9.41063 9.292C10.3493 9.292 11.1013 9.59067 11.6666 10.188C12.232 10.7747 12.5146 11.5747 12.5146 12.588V17.5H11.1226V12.668C11.1226 12.0173 10.9466 11.516 10.5946 11.164C10.2426 10.8013 9.75729 10.62 9.13863 10.62C8.44529 10.62 7.88529 10.8387 7.45863 11.276C7.03196 11.7027 6.81863 12.364 6.81863 13.26V17.5H5.42663V9.5H6.81863V10.652C7.38396 9.74533 8.24796 9.292 9.41063 9.292ZM16.1379 11.66C16.1379 11.9693 16.2925 12.22 16.6019 12.412C16.9112 12.5933 17.2845 12.7427 17.7219 12.86C18.1592 12.9667 18.5965 13.0947 19.0339 13.244C19.4712 13.3827 19.8445 13.628 20.1539 13.98C20.4632 14.3213 20.6179 14.764 20.6179 15.308C20.6179 16.0333 20.3352 16.6147 19.7699 17.052C19.2152 17.4893 18.5005 17.708 17.6259 17.708C16.8472 17.708 16.1805 17.5373 15.6259 17.196C15.0712 16.8547 14.6765 16.4013 14.4419 15.836L15.6419 15.148C15.7699 15.532 16.0099 15.836 16.3619 16.06C16.7139 16.284 17.1352 16.396 17.6259 16.396C18.0845 16.396 18.4632 16.3107 18.7619 16.14C19.0605 15.9587 19.2099 15.6813 19.2099 15.308C19.2099 14.9987 19.0552 14.7533 18.7459 14.572C18.4365 14.38 18.0632 14.2307 17.6259 14.124C17.1885 14.0067 16.7512 13.8733 16.3139 13.724C15.8765 13.5747 15.5032 13.3293 15.1939 12.988C14.8845 12.6467 14.7299 12.2093 14.7299 11.676C14.7299 10.9827 14.9965 10.412 15.5299 9.964C16.0739 9.516 16.7512 9.292 17.5619 9.292C18.2125 9.292 18.7885 9.44133 19.2899 9.74C19.8019 10.028 20.1859 10.4333 20.4419 10.956L19.2739 11.612C18.9859 10.9293 18.4152 10.588 17.5619 10.588C17.1672 10.588 16.8312 10.684 16.5539 10.876C16.2765 11.0573 16.1379 11.3187 16.1379 11.66ZM26.7855 10.844H24.6575V15.18C24.6575 15.5747 24.7322 15.8573 24.8815 16.028C25.0415 16.188 25.2815 16.2733 25.6015 16.284C25.9215 16.284 26.3162 16.2733 26.7855 16.252V17.5C25.5695 17.66 24.6788 17.564 24.1135 17.212C23.5482 16.8493 23.2655 16.172 23.2655 15.18V10.844H21.6815V9.5H23.2655V7.676L24.6575 7.26V9.5H26.7855V10.844ZM35.1313 9.5H36.5233V17.5H35.1313V16.124C34.4379 17.18 33.4299 17.708 32.1073 17.708C30.9873 17.708 30.0326 17.3027 29.2433 16.492C28.4539 15.6707 28.0593 14.6733 28.0593 13.5C28.0593 12.3267 28.4539 11.3347 29.2433 10.524C30.0326 9.70267 30.9873 9.292 32.1073 9.292C33.4299 9.292 34.4379 9.82 35.1313 10.876V9.5ZM32.2833 16.364C33.0939 16.364 33.7713 16.092 34.3153 15.548C34.8593 14.9933 35.1313 14.3107 35.1313 13.5C35.1313 12.6893 34.8593 12.012 34.3153 11.468C33.7713 10.9133 33.0939 10.636 32.2833 10.636C31.4833 10.636 30.8113 10.9133 30.2673 11.468C29.7233 12.012 29.4513 12.6893 29.4513 13.5C29.4513 14.3107 29.7233 14.9933 30.2673 15.548C30.8113 16.092 31.4833 16.364 32.2833 16.364ZM43.0963 9.292C44.0349 9.292 44.7869 9.59067 45.3523 10.188C45.9176 10.7747 46.2003 11.5747 46.2003 12.588V17.5H44.8083V12.668C44.8083 12.0173 44.6323 11.516 44.2803 11.164C43.9283 10.8013 43.4429 10.62 42.8243 10.62C42.1309 10.62 41.5709 10.8387 41.1443 11.276C40.7176 11.7027 40.5043 12.364 40.5043 13.26V17.5H39.1123V9.5H40.5043V10.652C41.0696 9.74533 41.9336 9.292 43.0963 9.292ZM52.9755 10.844H50.8475V15.18C50.8475 15.5747 50.9222 15.8573 51.0715 16.028C51.2315 16.188 51.4715 16.2733 51.7915 16.284C52.1115 16.284 52.5062 16.2733 52.9755 16.252V17.5C51.7595 17.66 50.8688 17.564 50.3035 17.212C49.7382 16.8493 49.4555 16.172 49.4555 15.18V10.844H47.8715V9.5H49.4555V7.676L50.8475 7.26V9.5H52.9755V10.844ZM60.8304 11.66C60.8304 11.9693 60.985 12.22 61.2944 12.412C61.6037 12.5933 61.977 12.7427 62.4144 12.86C62.8517 12.9667 63.289 13.0947 63.7264 13.244C64.1637 13.3827 64.537 13.628 64.8464 13.98C65.1557 14.3213 65.3104 14.764 65.3104 15.308C65.3104 16.0333 65.0277 16.6147 64.4624 17.052C63.9077 17.4893 63.193 17.708 62.3184 17.708C61.5397 17.708 60.873 17.5373 60.3184 17.196C59.7637 16.8547 59.369 16.4013 59.1344 15.836L60.3344 15.148C60.4624 15.532 60.7024 15.836 61.0544 16.06C61.4064 16.284 61.8277 16.396 62.3184 16.396C62.777 16.396 63.1557 16.3107 63.4544 16.14C63.753 15.9587 63.9024 15.6813 63.9024 15.308C63.9024 14.9987 63.7477 14.7533 63.4384 14.572C63.129 14.38 62.7557 14.2307 62.3184 14.124C61.881 14.0067 61.4437 13.8733 61.0064 13.724C60.569 13.5747 60.1957 13.3293 59.8864 12.988C59.577 12.6467 59.4224 12.2093 59.4224 11.676C59.4224 10.9827 59.689 10.412 60.2224 9.964C60.7664 9.516 61.4437 9.292 62.2544 9.292C62.905 9.292 63.481 9.44133 63.9824 9.74C64.4944 10.028 64.8784 10.4333 65.1344 10.956L63.9664 11.612C63.6784 10.9293 63.1077 10.588 62.2544 10.588C61.8597 10.588 61.5237 10.684 61.2464 10.876C60.969 11.0573 60.8304 11.3187 60.8304 11.66ZM73.8438 9.5H75.2358V17.5H73.8438V16.124C73.1504 17.18 72.1424 17.708 70.8197 17.708C69.6997 17.708 68.7451 17.3027 67.9557 16.492C67.1664 15.6707 66.7717 14.6733 66.7717 13.5C66.7717 12.3267 67.1664 11.3347 67.9557 10.524C68.7451 9.70267 69.6997 9.292 70.8197 9.292C72.1424 9.292 73.1504 9.82 73.8438 10.876V9.5ZM70.9957 16.364C71.8064 16.364 72.4838 16.092 73.0278 15.548C73.5718 14.9933 73.8438 14.3107 73.8438 13.5C73.8438 12.6893 73.5718 12.012 73.0278 11.468C72.4838 10.9133 71.8064 10.636 70.9957 10.636C70.1957 10.636 69.5237 10.9133 68.9797 11.468C68.4357 12.012 68.1637 12.6893 68.1637 13.5C68.1637 14.3107 68.4357 14.9933 68.9797 15.548C69.5237 16.092 70.1957 16.364 70.9957 16.364ZM77.8248 17.5V5.82H79.2168V17.5H77.8248ZM82.7964 14.14C82.935 14.8547 83.2604 15.4093 83.7724 15.804C84.295 16.1987 84.935 16.396 85.6924 16.396C86.7484 16.396 87.5164 16.0067 87.9964 15.228L89.1804 15.9C88.4017 17.1053 87.2284 17.708 85.6604 17.708C84.391 17.708 83.3564 17.3133 82.5564 16.524C81.767 15.724 81.3724 14.716 81.3724 13.5C81.3724 12.2947 81.7617 11.292 82.5404 10.492C83.319 9.692 84.327 9.292 85.5644 9.292C86.7377 9.292 87.6924 9.708 88.4284 10.54C89.175 11.3613 89.5484 12.3533 89.5484 13.516C89.5484 13.7187 89.5324 13.9267 89.5004 14.14H82.7964ZM85.5644 10.604C84.8177 10.604 84.199 10.8173 83.7084 11.244C83.2177 11.66 82.9137 12.22 82.7964 12.924H88.1404C88.023 12.1667 87.7244 11.5907 87.2444 11.196C86.7644 10.8013 86.2044 10.604 85.5644 10.604ZM100.524 9.292C101.644 9.292 102.599 9.70267 103.388 10.524C104.178 11.3347 104.572 12.3267 104.572 13.5C104.572 14.6733 104.178 15.6707 103.388 16.492C102.599 17.3027 101.644 17.708 100.524 17.708C99.2018 17.708 98.1938 17.18 97.5005 16.124V20.7H96.1085V9.5H97.5005V10.876C98.1938 9.82 99.2018 9.292 100.524 9.292ZM100.348 16.364C101.148 16.364 101.82 16.092 102.364 15.548C102.908 14.9933 103.18 14.3107 103.18 13.5C103.18 12.6893 102.908 12.012 102.364 11.468C101.82 10.9133 101.148 10.636 100.348 10.636C99.5378 10.636 98.8605 10.9133 98.3165 11.468C97.7725 12.012 97.5005 12.6893 97.5005 13.5C97.5005 14.3107 97.7725 14.9933 98.3165 15.548C98.8605 16.092 99.5378 16.364 100.348 16.364ZM108.106 10.844C108.564 9.852 109.396 9.356 110.602 9.356V10.812C109.919 10.78 109.332 10.9613 108.842 11.356C108.351 11.7507 108.106 12.3853 108.106 13.26V17.5H106.714V9.5H108.106V10.844ZM113.147 8.044C112.881 8.044 112.657 7.95333 112.475 7.772C112.294 7.59067 112.203 7.372 112.203 7.116C112.203 6.86 112.294 6.64133 112.475 6.46C112.657 6.268 112.881 6.172 113.147 6.172C113.403 6.172 113.622 6.268 113.803 6.46C113.985 6.64133 114.075 6.86 114.075 7.116C114.075 7.372 113.985 7.59067 113.803 7.772C113.622 7.95333 113.403 8.044 113.147 8.044ZM112.443 17.5V9.5H113.835V17.5H112.443ZM120.199 17.708C118.994 17.708 117.991 17.308 117.191 16.508C116.391 15.6973 115.991 14.6947 115.991 13.5C115.991 12.3053 116.391 11.308 117.191 10.508C117.991 9.69733 118.994 9.292 120.199 9.292C120.988 9.292 121.698 9.484 122.327 9.868C122.956 10.2413 123.426 10.748 123.735 11.388L122.567 12.06C122.364 11.6333 122.05 11.292 121.623 11.036C121.207 10.78 120.732 10.652 120.199 10.652C119.399 10.652 118.727 10.924 118.183 11.468C117.65 12.012 117.383 12.6893 117.383 13.5C117.383 14.3 117.65 14.972 118.183 15.516C118.727 16.06 119.399 16.332 120.199 16.332C120.732 16.332 121.212 16.2093 121.639 15.964C122.066 15.708 122.391 15.3667 122.615 14.94L123.799 15.628C123.458 16.2573 122.967 16.764 122.327 17.148C121.687 17.5213 120.978 17.708 120.199 17.708ZM126.52 14.14C126.659 14.8547 126.984 15.4093 127.496 15.804C128.019 16.1987 128.659 16.396 129.416 16.396C130.472 16.396 131.24 16.0067 131.72 15.228L132.904 15.9C132.125 17.1053 130.952 17.708 129.384 17.708C128.115 17.708 127.08 17.3133 126.28 16.524C125.491 15.724 125.096 14.716 125.096 13.5C125.096 12.2947 125.485 11.292 126.264 10.492C127.043 9.692 128.051 9.292 129.288 9.292C130.461 9.292 131.416 9.708 132.152 10.54C132.899 11.3613 133.272 12.3533 133.272 13.516C133.272 13.7187 133.256 13.9267 133.224 14.14H126.52ZM129.288 10.604C128.541 10.604 127.923 10.8173 127.432 11.244C126.941 11.66 126.637 12.22 126.52 12.924H131.864C131.747 12.1667 131.448 11.5907 130.968 11.196C130.488 10.8013 129.928 10.604 129.288 10.604Z" fill="#293341"/>
<path d="M532.5 22.5C532.5 15.5964 538.096 10 545 10H565C571.904 10 577.5 15.5964 577.5 22.5C577.5 29.4036 571.904 35 565 35H545C538.096 35 532.5 29.4036 532.5 22.5Z" fill="white" stroke="#1A79E8"/>
<path fill-rule="evenodd" clip-rule="evenodd" d="M557 22.5C557 18.0817 560.582 14.5 565 14.5C569.418 14.5 573 18.0817 573 22.5C573 26.9183 569.418 30.5 565 30.5C560.582 30.5 557 26.9183 557 22.5Z" fill="#1A79E8"/>
</svg>
