<svg width="24" height="26" viewBox="0 0 24 26" fill="none" xmlns="http://www.w3.org/2000/svg">
<g clip-path="url(#clip0_3_2713)">
<path d="M16 7.65967C17.5913 7.65967 19.1174 8.29181 20.2426 9.41703C21.3679 10.5422 22 12.0684 22 13.6597V20.6597H18V13.6597C18 13.1292 17.7893 12.6205 17.4142 12.2455C17.0391 11.8704 16.5304 11.6597 16 11.6597C15.4696 11.6597 14.9609 11.8704 14.5858 12.2455C14.2107 12.6205 14 13.1292 14 13.6597V20.6597H10V13.6597C10 12.0684 10.6321 10.5422 11.7574 9.41703C12.8826 8.29181 14.4087 7.65967 16 7.65967V7.65967Z" stroke="#293341" stroke-width="2" stroke-linecap="round" stroke-linejoin="round"/>
<path d="M6 8.65967H2V20.6597H6V8.65967Z" stroke="#293341" stroke-width="2" stroke-linecap="round" stroke-linejoin="round"/>
<path d="M4 5.65967C5.10457 5.65967 6 4.76424 6 3.65967C6 2.5551 5.10457 1.65967 4 1.65967C2.89543 1.65967 2 2.5551 2 3.65967C2 4.76424 2.89543 5.65967 4 5.65967Z" stroke="#293341" stroke-width="2" stroke-linecap="round" stroke-linejoin="round"/>
</g>
<defs>
<clipPath id="clip0_3_2713">
<rect width="24" height="24.8067" fill="white" transform="translate(0 0.5)"/>
</clipPath>
</defs>
</svg>
