<svg width="340" height="493" viewBox="0 0 340 493" fill="none" xmlns="http://www.w3.org/2000/svg">
<g filter="url(#filter0_dd_3_681)">
<rect x="30" y="35.5" width="280" height="432" rx="5" fill="white"/>
</g>
<rect x="40" y="424.5" width="105" height="17" fill="#ABB2BD" fill-opacity="0.5"/>
<rect x="79" y="45.5" width="66" height="14" fill="#ABB2BD" fill-opacity="0.5"/>
<rect x="195" y="45.5" width="66" height="14" fill="#ABB2BD" fill-opacity="0.5"/>
<rect x="79" y="66.5" width="51" height="10" fill="#ABB2BD" fill-opacity="0.5"/>
<rect x="210" y="66.5" width="51" height="10" fill="#ABB2BD" fill-opacity="0.5"/>
<rect x="40" y="380.5" width="122" height="17" fill="#ABB2BD" fill-opacity="0.5"/>
<rect x="40" y="348.5" width="214" height="17" fill="#ABB2BD" fill-opacity="0.5"/>
<rect x="40" y="318.5" width="248" height="17" fill="#ABB2BD" fill-opacity="0.5"/>
<rect x="40" y="91.5" width="260" height="217" rx="5" fill="#ABB2BD" fill-opacity="0.5"/>
<circle cx="57" cy="62.5" r="17" fill="#ABB2BD" fill-opacity="0.5"/>
<circle cx="283" cy="62.5" r="17" fill="#ABB2BD" fill-opacity="0.5"/>
<path d="M173 45.5L173 81.5" stroke="#F1F4F5" stroke-linecap="round"/>
<rect x="175" y="412.5" width="125" height="40" rx="20" fill="#ABB2BD" fill-opacity="0.5"/>
<defs>
<filter id="filter0_dd_3_681" x="0" y="0.5" width="340" height="492" filterUnits="userSpaceOnUse" color-interpolation-filters="sRGB">
<feFlood flood-opacity="0" result="BackgroundImageFix"/>
<feColorMatrix in="SourceAlpha" type="matrix" values="0 0 0 0 0 0 0 0 0 0 0 0 0 0 0 0 0 0 127 0" result="hardAlpha"/>
<feOffset dy="5"/>
<feGaussianBlur stdDeviation="6.5"/>
<feColorMatrix type="matrix" values="0 0 0 0 0 0 0 0 0 0.415686 0 0 0 0 0.898039 0 0 0 0.03 0"/>
<feBlend mode="normal" in2="BackgroundImageFix" result="effect1_dropShadow_3_681"/>
<feColorMatrix in="SourceAlpha" type="matrix" values="0 0 0 0 0 0 0 0 0 0 0 0 0 0 0 0 0 0 127 0" result="hardAlpha"/>
<feOffset dy="-5"/>
<feGaussianBlur stdDeviation="15"/>
<feColorMatrix type="matrix" values="0 0 0 0 0 0 0 0 0 0.415686 0 0 0 0 0.898039 0 0 0 0.02 0"/>
<feBlend mode="normal" in2="effect1_dropShadow_3_681" result="effect2_dropShadow_3_681"/>
<feBlend mode="normal" in="SourceGraphic" in2="effect2_dropShadow_3_681" result="shape"/>
</filter>
</defs>
</svg>
