<svg width="580" height="93" viewBox="0 0 580 93" fill="none" xmlns="http://www.w3.org/2000/svg">
<path d="M7.14 2.7H8.442V12.5H7.392L2.352 5.178V12.5H1.05V2.7H2.1L7.14 10.008V2.7ZM16.6283 5.5H17.8463V12.5H16.6283V11.296C16.0216 12.22 15.1396 12.682 13.9823 12.682C13.0023 12.682 12.1669 12.3273 11.4763 11.618C10.7856 10.8993 10.4403 10.0267 10.4403 9C10.4403 7.97333 10.7856 7.10533 11.4763 6.396C12.1669 5.67733 13.0023 5.318 13.9823 5.318C15.1396 5.318 16.0216 5.78 16.6283 6.704V5.5ZM14.1363 11.506C14.8456 11.506 15.4383 11.268 15.9143 10.792C16.3903 10.3067 16.6283 9.70933 16.6283 9C16.6283 8.29067 16.3903 7.698 15.9143 7.222C15.4383 6.73667 14.8456 6.494 14.1363 6.494C13.4363 6.494 12.8483 6.73667 12.3723 7.222C11.8963 7.698 11.6583 8.29067 11.6583 9C11.6583 9.70933 11.8963 10.3067 12.3723 10.792C12.8483 11.268 13.4363 11.506 14.1363 11.506ZM27.6717 5.318C28.4557 5.318 29.0903 5.57467 29.5757 6.088C30.061 6.592 30.3037 7.278 30.3037 8.146V12.5H29.0857V8.188C29.0857 7.64667 28.9457 7.22667 28.6657 6.928C28.3857 6.62933 28.0123 6.48 27.5457 6.48C27.023 6.48 26.603 6.65733 26.2857 7.012C25.9777 7.35733 25.8237 7.88933 25.8237 8.608V12.5H24.6057V8.188C24.6057 7.64667 24.4703 7.22667 24.1997 6.928C23.9383 6.62933 23.579 6.48 23.1217 6.48C22.6083 6.48 22.179 6.65733 21.8337 7.012C21.4977 7.36667 21.3297 7.89867 21.3297 8.608V12.5H20.1117V5.5H21.3297V6.438C21.8057 5.69133 22.501 5.318 23.4157 5.318C24.3583 5.318 25.0443 5.71467 25.4737 6.508C25.959 5.71467 26.6917 5.318 27.6717 5.318ZM33.2665 9.56C33.3878 10.1853 33.6725 10.6707 34.1205 11.016C34.5778 11.3613 35.1378 11.534 35.8005 11.534C36.7245 11.534 37.3965 11.1933 37.8165 10.512L38.8525 11.1C38.1712 12.1547 37.1445 12.682 35.7725 12.682C34.6618 12.682 33.7565 12.3367 33.0565 11.646C32.3658 10.946 32.0205 10.064 32.0205 9C32.0205 7.94533 32.3612 7.068 33.0425 6.368C33.7238 5.668 34.6058 5.318 35.6885 5.318C36.7152 5.318 37.5505 5.682 38.1945 6.41C38.8478 7.12867 39.1745 7.99667 39.1745 9.014C39.1745 9.19133 39.1605 9.37333 39.1325 9.56H33.2665ZM35.6885 6.466C35.0352 6.466 34.4938 6.65267 34.0645 7.026C33.6352 7.39 33.3692 7.88 33.2665 8.496H37.9425C37.8398 7.83333 37.5785 7.32933 37.1585 6.984C36.7385 6.63867 36.2485 6.466 35.6885 6.466Z" fill="#465364"/>
<rect x="0.25" y="27.75" width="579.5" height="39.5" rx="19.75" fill="#F7F9FA" stroke="#1A79E8" stroke-width="0.5"/>
<path opacity="0.6" d="M17.1 50.576H21.86V51.5H16.12V41.7H21.79V42.624H17.1V46.096H21.44V47.02H17.1V50.576ZM27.0998 44.332C27.9492 44.332 28.6165 44.5933 29.1018 45.116C29.5965 45.6293 29.8438 46.3247 29.8438 47.202V51.5H28.9198V47.202C28.9198 46.5767 28.7518 46.0913 28.4158 45.746C28.0892 45.4007 27.6225 45.228 27.0158 45.228C26.3438 45.228 25.7978 45.4427 25.3778 45.872C24.9578 46.292 24.7478 46.9453 24.7478 47.832V51.5H23.8238V44.5H24.7478V45.592C25.2705 44.752 26.0545 44.332 27.0998 44.332ZM35.7605 45.396H33.7445V49.638C33.7445 50.0207 33.8191 50.296 33.9685 50.464C34.1178 50.6227 34.3418 50.7067 34.6405 50.716C34.9391 50.716 35.3125 50.7067 35.7605 50.688V51.5C34.7805 51.6493 34.0431 51.5793 33.5485 51.29C33.0631 51.0007 32.8205 50.45 32.8205 49.638V45.396H31.3505V44.5H32.8205V42.82L33.7445 42.54V44.5H35.7605V45.396ZM40.5306 44.332C41.5666 44.332 42.402 44.7007 43.0366 45.438C43.6806 46.166 44.0026 47.0293 44.0026 48.028C44.0026 48.1307 43.9933 48.2753 43.9746 48.462H37.8286C37.922 49.1713 38.2206 49.736 38.7246 50.156C39.238 50.5667 39.868 50.772 40.6146 50.772C41.1466 50.772 41.604 50.6647 41.9866 50.45C42.3786 50.226 42.6726 49.9367 42.8686 49.582L43.6806 50.058C43.3726 50.5527 42.9526 50.9447 42.4206 51.234C41.8886 51.5233 41.282 51.668 40.6006 51.668C39.4993 51.668 38.6033 51.3227 37.9126 50.632C37.222 49.9413 36.8766 49.064 36.8766 48C36.8766 46.9547 37.2173 46.082 37.8986 45.382C38.58 44.682 39.4573 44.332 40.5306 44.332ZM40.5306 45.228C39.8026 45.228 39.1913 45.4473 38.6966 45.886C38.2113 46.3153 37.922 46.8753 37.8286 47.566H43.0506C42.9573 46.8287 42.6726 46.2547 42.1966 45.844C41.7206 45.4333 41.1653 45.228 40.5306 45.228ZM46.8164 45.662C47.2458 44.8127 47.9831 44.388 49.0284 44.388V45.284C48.3938 45.284 47.8664 45.4707 47.4464 45.844C47.0264 46.2173 46.8164 46.8053 46.8164 47.608V51.5H45.8924V44.5H46.8164V45.662ZM58.3448 45.396H56.3288V49.638C56.3288 50.0207 56.4034 50.296 56.5528 50.464C56.7021 50.6227 56.9261 50.7067 57.2248 50.716C57.5234 50.716 57.8968 50.7067 58.3448 50.688V51.5C57.3648 51.6493 56.6274 51.5793 56.1328 51.29C55.6474 51.0007 55.4048 50.45 55.4048 49.638V45.396H53.9348V44.5H55.4048V42.82L56.3288 42.54V44.5H58.3448V45.396ZM63.5808 44.332C64.4301 44.332 65.0974 44.5933 65.5828 45.116C66.0774 45.6293 66.3248 46.3247 66.3248 47.202V51.5H65.4008V47.202C65.4008 46.5767 65.2328 46.0913 64.8968 45.746C64.5701 45.4007 64.1034 45.228 63.4968 45.228C62.8248 45.228 62.2788 45.4427 61.8588 45.872C61.4388 46.292 61.2288 46.9453 61.2288 47.832V51.5H60.3048V41.7H61.2288V45.592C61.7514 44.752 62.5354 44.332 63.5808 44.332ZM71.7654 44.332C72.8014 44.332 73.6367 44.7007 74.2714 45.438C74.9154 46.166 75.2374 47.0293 75.2374 48.028C75.2374 48.1307 75.2281 48.2753 75.2094 48.462H69.0634C69.1567 49.1713 69.4554 49.736 69.9594 50.156C70.4727 50.5667 71.1027 50.772 71.8494 50.772C72.3814 50.772 72.8387 50.6647 73.2214 50.45C73.6134 50.226 73.9074 49.9367 74.1034 49.582L74.9154 50.058C74.6074 50.5527 74.1874 50.9447 73.6554 51.234C73.1234 51.5233 72.5167 51.668 71.8354 51.668C70.7341 51.668 69.8381 51.3227 69.1474 50.632C68.4567 49.9413 68.1114 49.064 68.1114 48C68.1114 46.9547 68.4521 46.082 69.1334 45.382C69.8147 44.682 70.6921 44.332 71.7654 44.332ZM71.7654 45.228C71.0374 45.228 70.4261 45.4473 69.9314 45.886C69.4461 46.3153 69.1567 46.8753 69.0634 47.566H74.2854C74.1921 46.8287 73.9074 46.2547 73.4314 45.844C72.9554 45.4333 72.4001 45.228 71.7654 45.228ZM84.7572 45.396H82.7412V49.638C82.7412 50.0207 82.8159 50.296 82.9652 50.464C83.1145 50.6227 83.3385 50.7067 83.6372 50.716C83.9359 50.716 84.3092 50.7067 84.7572 50.688V51.5C83.7772 51.6493 83.0399 51.5793 82.5452 51.29C82.0599 51.0007 81.8172 50.45 81.8172 49.638V45.396H80.3472V44.5H81.8172V42.82L82.7412 42.54V44.5H84.7572V45.396ZM87.6552 42.82C87.5245 42.9507 87.3659 43.016 87.1792 43.016C86.9925 43.016 86.8339 42.9507 86.7032 42.82C86.5725 42.6893 86.5072 42.5307 86.5072 42.344C86.5072 42.1573 86.5725 41.9987 86.7032 41.868C86.8339 41.7373 86.9925 41.672 87.1792 41.672C87.3659 41.672 87.5245 41.7373 87.6552 41.868C87.7859 41.9987 87.8512 42.1573 87.8512 42.344C87.8512 42.5307 87.7859 42.6893 87.6552 42.82ZM86.7172 51.5V44.5H87.6412V51.5H86.7172ZM93.732 45.396H91.716V49.638C91.716 50.0207 91.7906 50.296 91.94 50.464C92.0893 50.6227 92.3133 50.7067 92.612 50.716C92.9106 50.716 93.284 50.7067 93.732 50.688V51.5C92.752 51.6493 92.0146 51.5793 91.52 51.29C91.0346 51.0007 90.792 50.45 90.792 49.638V45.396H89.322V44.5H90.792V42.82L91.716 42.54V44.5H93.732V45.396ZM95.692 51.5V41.28H96.616V51.5H95.692ZM102.231 44.332C103.267 44.332 104.102 44.7007 104.737 45.438C105.381 46.166 105.703 47.0293 105.703 48.028C105.703 48.1307 105.693 48.2753 105.675 48.462H99.5287C99.622 49.1713 99.9207 49.736 100.425 50.156C100.938 50.5667 101.568 50.772 102.315 50.772C102.847 50.772 103.304 50.6647 103.687 50.45C104.079 50.226 104.373 49.9367 104.569 49.582L105.381 50.058C105.073 50.5527 104.653 50.9447 104.121 51.234C103.589 51.5233 102.982 51.668 102.301 51.668C101.199 51.668 100.303 51.3227 99.6127 50.632C98.922 49.9413 98.5767 49.064 98.5767 48C98.5767 46.9547 98.9174 46.082 99.5987 45.382C100.28 44.682 101.157 44.332 102.231 44.332ZM102.231 45.228C101.503 45.228 100.891 45.4473 100.397 45.886C99.9114 46.3153 99.622 46.8753 99.5287 47.566H104.751C104.657 46.8287 104.373 46.2547 103.897 45.844C103.421 45.4333 102.865 45.228 102.231 45.228ZM117.379 50.618C116.669 51.318 115.801 51.668 114.775 51.668C113.748 51.668 112.875 51.318 112.157 50.618C111.447 49.9087 111.093 49.036 111.093 48C111.093 46.964 111.447 46.096 112.157 45.396C112.875 44.6867 113.748 44.332 114.775 44.332C115.801 44.332 116.669 44.6867 117.379 45.396C118.097 46.096 118.457 46.964 118.457 48C118.457 49.036 118.097 49.9087 117.379 50.618ZM112.815 49.974C113.347 50.506 114 50.772 114.775 50.772C115.549 50.772 116.203 50.506 116.735 49.974C117.267 49.4327 117.533 48.7747 117.533 48C117.533 47.2253 117.267 46.572 116.735 46.04C116.203 45.4987 115.549 45.228 114.775 45.228C114 45.228 113.347 45.4987 112.815 46.04C112.283 46.572 112.017 47.2253 112.017 48C112.017 48.7747 112.283 49.4327 112.815 49.974ZM123.649 42.428C122.968 42.372 122.459 42.4887 122.123 42.778C121.797 43.0673 121.633 43.548 121.633 44.22V44.5H123.649V45.396H121.633V51.5H120.709V45.396H119.519V44.5H120.709V44.22C120.709 43.3053 120.961 42.6147 121.465 42.148C121.979 41.672 122.707 41.4667 123.649 41.532V42.428ZM138.074 41.7V51.5H137.094V43.184L133.664 48.924H133.524L130.094 43.184V51.5H129.114V41.7H130.332L133.594 47.16L136.856 41.7H138.074ZM145.519 44.5H146.443V51.5H145.519V50.408C144.996 51.248 144.212 51.668 143.167 51.668C142.318 51.668 141.646 51.4113 141.151 50.898C140.666 50.3753 140.423 49.6753 140.423 48.798V44.5H141.347V48.798C141.347 49.4233 141.51 49.9087 141.837 50.254C142.173 50.5993 142.644 50.772 143.251 50.772C143.923 50.772 144.469 50.562 144.889 50.142C145.309 49.7127 145.519 49.0547 145.519 48.168V44.5ZM149.546 46.334C149.546 46.6513 149.686 46.9033 149.966 47.09C150.246 47.2767 150.586 47.4213 150.988 47.524C151.389 47.6267 151.79 47.7433 152.192 47.874C152.593 47.9953 152.934 48.2053 153.214 48.504C153.494 48.7933 153.634 49.176 153.634 49.652C153.634 50.2493 153.396 50.7347 152.92 51.108C152.453 51.4813 151.846 51.668 151.1 51.668C150.428 51.668 149.854 51.5187 149.378 51.22C148.911 50.9213 148.584 50.534 148.398 50.058L149.182 49.596C149.312 49.96 149.546 50.2493 149.882 50.464C150.227 50.6693 150.633 50.772 151.1 50.772C151.557 50.772 151.94 50.6833 152.248 50.506C152.556 50.3193 152.71 50.0347 152.71 49.652C152.71 49.3347 152.57 49.0827 152.29 48.896C152.01 48.7093 151.669 48.5647 151.268 48.462C150.866 48.3593 150.465 48.2473 150.064 48.126C149.662 47.9953 149.322 47.7853 149.042 47.496C148.762 47.1973 148.622 46.81 148.622 46.334C148.622 45.7647 148.846 45.2887 149.294 44.906C149.751 44.5233 150.325 44.332 151.016 44.332C151.585 44.332 152.084 44.4627 152.514 44.724C152.943 44.976 153.26 45.3213 153.466 45.76L152.696 46.208C152.425 45.5547 151.865 45.228 151.016 45.228C150.614 45.228 150.269 45.326 149.98 45.522C149.69 45.7087 149.546 45.9793 149.546 46.334ZM156.465 42.82C156.334 42.9507 156.175 43.016 155.989 43.016C155.802 43.016 155.643 42.9507 155.513 42.82C155.382 42.6893 155.317 42.5307 155.317 42.344C155.317 42.1573 155.382 41.9987 155.513 41.868C155.643 41.7373 155.802 41.672 155.989 41.672C156.175 41.672 156.334 41.7373 156.465 41.868C156.595 41.9987 156.661 42.1573 156.661 42.344C156.661 42.5307 156.595 42.6893 156.465 42.82ZM155.527 51.5V44.5H156.451V51.5H155.527ZM162.093 51.668C161.039 51.668 160.161 51.318 159.461 50.618C158.761 49.9087 158.411 49.036 158.411 48C158.411 46.964 158.761 46.096 159.461 45.396C160.161 44.6867 161.039 44.332 162.093 44.332C162.784 44.332 163.405 44.5 163.955 44.836C164.506 45.1627 164.907 45.606 165.159 46.166L164.403 46.6C164.217 46.18 163.913 45.8487 163.493 45.606C163.083 45.354 162.616 45.228 162.093 45.228C161.319 45.228 160.665 45.4987 160.133 46.04C159.601 46.572 159.335 47.2253 159.335 48C159.335 48.7747 159.601 49.4327 160.133 49.974C160.665 50.506 161.319 50.772 162.093 50.772C162.616 50.772 163.083 50.6507 163.493 50.408C163.904 50.156 164.226 49.82 164.459 49.4L165.229 49.848C164.94 50.408 164.515 50.8513 163.955 51.178C163.395 51.5047 162.775 51.668 162.093 51.668ZM174.536 41.7C175.413 41.7 176.146 41.994 176.734 42.582C177.322 43.17 177.616 43.9027 177.616 44.78C177.616 45.6573 177.322 46.39 176.734 46.978C176.146 47.566 175.413 47.86 174.536 47.86H172.016V51.5H171.036V41.7H174.536ZM174.536 46.936C175.143 46.936 175.642 46.7353 176.034 46.334C176.435 45.9233 176.636 45.4053 176.636 44.78C176.636 44.1547 176.435 43.6413 176.034 43.24C175.642 42.8293 175.143 42.624 174.536 42.624H172.016V46.936H174.536ZM180.512 42.82C180.381 42.9507 180.222 43.016 180.036 43.016C179.849 43.016 179.69 42.9507 179.56 42.82C179.429 42.6893 179.364 42.5307 179.364 42.344C179.364 42.1573 179.429 41.9987 179.56 41.868C179.69 41.7373 179.849 41.672 180.036 41.672C180.222 41.672 180.381 41.7373 180.512 41.868C180.642 41.9987 180.708 42.1573 180.708 42.344C180.708 42.5307 180.642 42.6893 180.512 42.82ZM179.574 51.5V44.5H180.498V51.5H179.574ZM186.113 44.332C187.149 44.332 187.984 44.7007 188.619 45.438C189.263 46.166 189.585 47.0293 189.585 48.028C189.585 48.1307 189.575 48.2753 189.557 48.462H183.411C183.504 49.1713 183.803 49.736 184.307 50.156C184.82 50.5667 185.45 50.772 186.197 50.772C186.729 50.772 187.186 50.6647 187.569 50.45C187.961 50.226 188.255 49.9367 188.451 49.582L189.263 50.058C188.955 50.5527 188.535 50.9447 188.003 51.234C187.471 51.5233 186.864 51.668 186.183 51.668C185.081 51.668 184.185 51.3227 183.495 50.632C182.804 49.9413 182.459 49.064 182.459 48C182.459 46.9547 182.799 46.082 183.481 45.382C184.162 44.682 185.039 44.332 186.113 44.332ZM186.113 45.228C185.385 45.228 184.773 45.4473 184.279 45.886C183.793 46.3153 183.504 46.8753 183.411 47.566H188.633C188.539 46.8287 188.255 46.2547 187.779 45.844C187.303 45.4333 186.747 45.228 186.113 45.228ZM194.736 51.668C193.682 51.668 192.804 51.318 192.104 50.618C191.404 49.9087 191.054 49.036 191.054 48C191.054 46.964 191.404 46.096 192.104 45.396C192.804 44.6867 193.682 44.332 194.736 44.332C195.427 44.332 196.048 44.5 196.598 44.836C197.149 45.1627 197.55 45.606 197.802 46.166L197.046 46.6C196.86 46.18 196.556 45.8487 196.136 45.606C195.726 45.354 195.259 45.228 194.736 45.228C193.962 45.228 193.308 45.4987 192.776 46.04C192.244 46.572 191.978 47.2253 191.978 48C191.978 48.7747 192.244 49.4327 192.776 49.974C193.308 50.506 193.962 50.772 194.736 50.772C195.259 50.772 195.726 50.6507 196.136 50.408C196.547 50.156 196.869 49.82 197.102 49.4L197.872 49.848C197.583 50.408 197.158 50.8513 196.598 51.178C196.038 51.5047 195.418 51.668 194.736 51.668ZM202.785 44.332C203.821 44.332 204.656 44.7007 205.291 45.438C205.935 46.166 206.257 47.0293 206.257 48.028C206.257 48.1307 206.247 48.2753 206.229 48.462H200.083C200.176 49.1713 200.475 49.736 200.979 50.156C201.492 50.5667 202.122 50.772 202.869 50.772C203.401 50.772 203.858 50.6647 204.241 50.45C204.633 50.226 204.927 49.9367 205.123 49.582L205.935 50.058C205.627 50.5527 205.207 50.9447 204.675 51.234C204.143 51.5233 203.536 51.668 202.855 51.668C201.753 51.668 200.857 51.3227 200.167 50.632C199.476 49.9413 199.131 49.064 199.131 48C199.131 46.9547 199.471 46.082 200.153 45.382C200.834 44.682 201.711 44.332 202.785 44.332ZM202.785 45.228C202.057 45.228 201.445 45.4473 200.951 45.886C200.465 46.3153 200.176 46.8753 200.083 47.566H205.305C205.211 46.8287 204.927 46.2547 204.451 45.844C203.975 45.4333 203.419 45.228 202.785 45.228Z" fill="#8390A2"/>
<path d="M6.276 80.1V81.156H3.792V88.5H2.688V81.156H0.216V80.1H6.276ZM10.6205 82.344C11.3245 82.344 11.8885 82.568 12.3125 83.016C12.7365 83.456 12.9485 84.056 12.9485 84.816V88.5H11.9045V84.876C11.9045 84.388 11.7725 84.012 11.5085 83.748C11.2445 83.476 10.8805 83.34 10.4165 83.34C9.89647 83.34 9.47647 83.504 9.15647 83.832C8.83647 84.152 8.67647 84.648 8.67647 85.32V88.5H7.63247V80.1H8.67647V83.364C9.10047 82.684 9.74847 82.344 10.6205 82.344ZM15.2939 81.408C15.0939 81.408 14.9259 81.34 14.7899 81.204C14.6539 81.068 14.5859 80.904 14.5859 80.712C14.5859 80.52 14.6539 80.356 14.7899 80.22C14.9259 80.076 15.0939 80.004 15.2939 80.004C15.4859 80.004 15.6499 80.076 15.7859 80.22C15.9219 80.356 15.9899 80.52 15.9899 80.712C15.9899 80.904 15.9219 81.068 15.7859 81.204C15.6499 81.34 15.4859 81.408 15.2939 81.408ZM14.7659 88.5V82.5H15.8099V88.5H14.7659ZM18.6509 84.12C18.6509 84.352 18.7669 84.54 18.9989 84.684C19.2309 84.82 19.5109 84.932 19.8389 85.02C20.1669 85.1 20.4949 85.196 20.8229 85.308C21.1509 85.412 21.4309 85.596 21.6629 85.86C21.8949 86.116 22.0109 86.448 22.0109 86.856C22.0109 87.4 21.7989 87.836 21.3749 88.164C20.9589 88.492 20.4229 88.656 19.7669 88.656C19.1829 88.656 18.6829 88.528 18.2669 88.272C17.8509 88.016 17.5549 87.676 17.3789 87.252L18.2789 86.736C18.3749 87.024 18.5549 87.252 18.8189 87.42C19.0829 87.588 19.3989 87.672 19.7669 87.672C20.1109 87.672 20.3949 87.608 20.6189 87.48C20.8429 87.344 20.9549 87.136 20.9549 86.856C20.9549 86.624 20.8389 86.44 20.6069 86.304C20.3749 86.16 20.0949 86.048 19.7669 85.968C19.4389 85.88 19.1109 85.78 18.7829 85.668C18.4549 85.556 18.1749 85.372 17.9429 85.116C17.7109 84.86 17.5949 84.532 17.5949 84.132C17.5949 83.612 17.7949 83.184 18.1949 82.848C18.6029 82.512 19.1109 82.344 19.7189 82.344C20.2069 82.344 20.6389 82.456 21.0149 82.68C21.3989 82.896 21.6869 83.2 21.8789 83.592L21.0029 84.084C20.7869 83.572 20.3589 83.316 19.7189 83.316C19.4229 83.316 19.1709 83.388 18.9629 83.532C18.7549 83.668 18.6509 83.864 18.6509 84.12ZM31.731 82.5V88.5H30.687V83.508H28.467V88.5H27.423V83.508H26.463V82.5H27.423V82.32C27.423 80.736 28.299 79.944 30.051 79.944C30.379 79.944 30.791 79.996 31.287 80.1V81.048C30.799 80.984 30.387 80.952 30.051 80.952C29.507 80.952 29.107 81.056 28.851 81.264C28.595 81.464 28.467 81.816 28.467 82.32V82.5H31.731ZM34.4223 85.98C34.5263 86.516 34.7703 86.932 35.1543 87.228C35.5463 87.524 36.0263 87.672 36.5943 87.672C37.3863 87.672 37.9623 87.38 38.3223 86.796L39.2103 87.3C38.6263 88.204 37.7463 88.656 36.5703 88.656C35.6183 88.656 34.8423 88.36 34.2423 87.768C33.6503 87.168 33.3543 86.412 33.3543 85.5C33.3543 84.596 33.6463 83.844 34.2303 83.244C34.8143 82.644 35.5703 82.344 36.4983 82.344C37.3783 82.344 38.0943 82.656 38.6463 83.28C39.2063 83.896 39.4863 84.64 39.4863 85.512C39.4863 85.664 39.4743 85.82 39.4503 85.98H34.4223ZM36.4983 83.328C35.9383 83.328 35.4743 83.488 35.1063 83.808C34.7383 84.12 34.5103 84.54 34.4223 85.068H38.4303C38.3423 84.5 38.1183 84.068 37.7583 83.772C37.3983 83.476 36.9783 83.328 36.4983 83.328ZM41.0464 88.5V79.74H42.0904V88.5H41.0464ZM49.0111 80.1H50.0551V88.5H49.0111V87.468C48.4911 88.26 47.7351 88.656 46.7431 88.656C45.9031 88.656 45.1871 88.352 44.5951 87.744C44.0031 87.128 43.7071 86.38 43.7071 85.5C43.7071 84.62 44.0031 83.876 44.5951 83.268C45.1871 82.652 45.9031 82.344 46.7431 82.344C47.7351 82.344 48.4911 82.74 49.0111 83.532V80.1ZM46.8751 87.648C47.4831 87.648 47.9911 87.444 48.3991 87.036C48.8071 86.62 49.0111 86.108 49.0111 85.5C49.0111 84.892 48.8071 84.384 48.3991 83.976C47.9911 83.56 47.4831 83.352 46.8751 83.352C46.2751 83.352 45.7711 83.56 45.3631 83.976C44.9551 84.384 44.7511 84.892 44.7511 85.5C44.7511 86.108 44.9551 86.62 45.3631 87.036C45.7711 87.444 46.2751 87.648 46.8751 87.648ZM55.8848 81.408C55.6848 81.408 55.5168 81.34 55.3808 81.204C55.2448 81.068 55.1768 80.904 55.1768 80.712C55.1768 80.52 55.2448 80.356 55.3808 80.22C55.5168 80.076 55.6848 80.004 55.8848 80.004C56.0768 80.004 56.2408 80.076 56.3768 80.22C56.5128 80.356 56.5808 80.52 56.5808 80.712C56.5808 80.904 56.5128 81.068 56.3768 81.204C56.2408 81.34 56.0768 81.408 55.8848 81.408ZM55.3568 88.5V82.5H56.4008V88.5H55.3568ZM59.2418 84.12C59.2418 84.352 59.3578 84.54 59.5898 84.684C59.8218 84.82 60.1018 84.932 60.4298 85.02C60.7578 85.1 61.0858 85.196 61.4138 85.308C61.7418 85.412 62.0218 85.596 62.2538 85.86C62.4858 86.116 62.6018 86.448 62.6018 86.856C62.6018 87.4 62.3898 87.836 61.9658 88.164C61.5498 88.492 61.0138 88.656 60.3578 88.656C59.7738 88.656 59.2738 88.528 58.8578 88.272C58.4418 88.016 58.1458 87.676 57.9698 87.252L58.8698 86.736C58.9658 87.024 59.1458 87.252 59.4098 87.42C59.6738 87.588 59.9898 87.672 60.3578 87.672C60.7018 87.672 60.9858 87.608 61.2098 87.48C61.4338 87.344 61.5458 87.136 61.5458 86.856C61.5458 86.624 61.4298 86.44 61.1978 86.304C60.9658 86.16 60.6858 86.048 60.3578 85.968C60.0298 85.88 59.7018 85.78 59.3738 85.668C59.0458 85.556 58.7658 85.372 58.5338 85.116C58.3018 84.86 58.1858 84.532 58.1858 84.132C58.1858 83.612 58.3858 83.184 58.7858 82.848C59.1938 82.512 59.7018 82.344 60.3098 82.344C60.7978 82.344 61.2298 82.456 61.6058 82.68C61.9898 82.896 62.2778 83.2 62.4698 83.592L61.5938 84.084C61.3778 83.572 60.9498 83.316 60.3098 83.316C60.0138 83.316 59.7618 83.388 59.5538 83.532C59.3458 83.668 59.2418 83.864 59.2418 84.12ZM68.6019 83.508C68.9459 82.764 69.5699 82.392 70.4739 82.392V83.484C69.9619 83.46 69.5219 83.596 69.1539 83.892C68.7859 84.188 68.6019 84.664 68.6019 85.32V88.5H67.5579V82.5H68.6019V83.508ZM72.2593 85.98C72.3633 86.516 72.6073 86.932 72.9913 87.228C73.3833 87.524 73.8633 87.672 74.4313 87.672C75.2233 87.672 75.7993 87.38 76.1593 86.796L77.0473 87.3C76.4633 88.204 75.5833 88.656 74.4073 88.656C73.4553 88.656 72.6793 88.36 72.0793 87.768C71.4873 87.168 71.1913 86.412 71.1913 85.5C71.1913 84.596 71.4833 83.844 72.0673 83.244C72.6513 82.644 73.4073 82.344 74.3353 82.344C75.2153 82.344 75.9313 82.656 76.4833 83.28C77.0433 83.896 77.3233 84.64 77.3233 85.512C77.3233 85.664 77.3113 85.82 77.2873 85.98H72.2593ZM74.3353 83.328C73.7753 83.328 73.3113 83.488 72.9433 83.808C72.5753 84.12 72.3473 84.54 72.2593 85.068H76.2673C76.1793 84.5 75.9553 84.068 75.5953 83.772C75.2353 83.476 74.8153 83.328 74.3353 83.328ZM83.8397 82.5H84.8837V90.9H83.8397V87.468C83.3197 88.26 82.5637 88.656 81.5717 88.656C80.7317 88.656 80.0157 88.352 79.4237 87.744C78.8317 87.128 78.5357 86.38 78.5357 85.5C78.5357 84.62 78.8317 83.876 79.4237 83.268C80.0157 82.652 80.7317 82.344 81.5717 82.344C82.5637 82.344 83.3197 82.74 83.8397 83.532V82.5ZM81.7037 87.648C82.3117 87.648 82.8197 87.444 83.2277 87.036C83.6357 86.62 83.8397 86.108 83.8397 85.5C83.8397 84.892 83.6357 84.384 83.2277 83.976C82.8197 83.56 82.3117 83.352 81.7037 83.352C81.1037 83.352 80.5997 83.56 80.1917 83.976C79.7837 84.384 79.5797 84.892 79.5797 85.5C79.5797 86.108 79.7837 86.62 80.1917 87.036C80.5997 87.444 81.1037 87.648 81.7037 87.648ZM90.9654 82.5H92.0094V88.5H90.9654V87.636C90.5414 88.316 89.8934 88.656 89.0214 88.656C88.3174 88.656 87.7534 88.436 87.3294 87.996C86.9054 87.548 86.6934 86.944 86.6934 86.184V82.5H87.7374V86.124C87.7374 86.612 87.8694 86.992 88.1334 87.264C88.3974 87.528 88.7614 87.66 89.2254 87.66C89.7454 87.66 90.1654 87.5 90.4854 87.18C90.8054 86.852 90.9654 86.352 90.9654 85.68V82.5ZM94.4869 81.408C94.2869 81.408 94.1189 81.34 93.9829 81.204C93.8469 81.068 93.7789 80.904 93.7789 80.712C93.7789 80.52 93.8469 80.356 93.9829 80.22C94.1189 80.076 94.2869 80.004 94.4869 80.004C94.6789 80.004 94.8429 80.076 94.9789 80.22C95.1149 80.356 95.1829 80.52 95.1829 80.712C95.1829 80.904 95.1149 81.068 94.9789 81.204C94.8429 81.34 94.6789 81.408 94.4869 81.408ZM93.9589 88.5V82.5H95.0029V88.5H93.9589ZM97.9996 83.508C98.3436 82.764 98.9676 82.392 99.8716 82.392V83.484C99.3596 83.46 98.9196 83.596 98.5516 83.892C98.1836 84.188 97.9996 84.664 97.9996 85.32V88.5H96.9556V82.5H97.9996V83.508ZM101.657 85.98C101.761 86.516 102.005 86.932 102.389 87.228C102.781 87.524 103.261 87.672 103.829 87.672C104.621 87.672 105.197 87.38 105.557 86.796L106.445 87.3C105.861 88.204 104.981 88.656 103.805 88.656C102.853 88.656 102.077 88.36 101.477 87.768C100.885 87.168 100.589 86.412 100.589 85.5C100.589 84.596 100.881 83.844 101.465 83.244C102.049 82.644 102.805 82.344 103.733 82.344C104.613 82.344 105.329 82.656 105.881 83.28C106.441 83.896 106.721 84.64 106.721 85.512C106.721 85.664 106.709 85.82 106.685 85.98H101.657ZM103.733 83.328C103.173 83.328 102.709 83.488 102.341 83.808C101.973 84.12 101.745 84.54 101.657 85.068H105.665C105.577 84.5 105.353 84.068 104.993 83.772C104.633 83.476 104.213 83.328 103.733 83.328ZM113.237 80.1H114.281V88.5H113.237V87.468C112.717 88.26 111.961 88.656 110.969 88.656C110.129 88.656 109.413 88.352 108.821 87.744C108.229 87.128 107.933 86.38 107.933 85.5C107.933 84.62 108.229 83.876 108.821 83.268C109.413 82.652 110.129 82.344 110.969 82.344C111.961 82.344 112.717 82.74 113.237 83.532V80.1ZM111.101 87.648C111.709 87.648 112.217 87.444 112.625 87.036C113.033 86.62 113.237 86.108 113.237 85.5C113.237 84.892 113.033 84.384 112.625 83.976C112.217 83.56 111.709 83.352 111.101 83.352C110.501 83.352 109.997 83.56 109.589 83.976C109.181 84.384 108.977 84.892 108.977 85.5C108.977 86.108 109.181 86.62 109.589 87.036C109.997 87.444 110.501 87.648 111.101 87.648Z" fill="#FF5555"/>
</svg>
