<svg width="580" height="182" viewBox="0 0 580 182" fill="none" xmlns="http://www.w3.org/2000/svg">
<path d="M4.872 2.7C6.20667 2.7 7.31267 3.176 8.19 4.128C9.07667 5.07067 9.52 6.228 9.52 7.6C9.52 8.972 9.07667 10.134 8.19 11.086C7.31267 12.0287 6.20667 12.5 4.872 12.5H1.05V2.7H4.872ZM4.872 11.268C5.87067 11.268 6.68733 10.918 7.322 10.218C7.95667 9.518 8.274 8.64533 8.274 7.6C8.274 6.55467 7.95667 5.682 7.322 4.982C6.68733 4.282 5.87067 3.932 4.872 3.932H2.352V11.268H4.872ZM12.2468 9.56C12.3682 10.1853 12.6528 10.6707 13.1008 11.016C13.5582 11.3613 14.1182 11.534 14.7808 11.534C15.7048 11.534 16.3768 11.1933 16.7968 10.512L17.8328 11.1C17.1515 12.1547 16.1248 12.682 14.7528 12.682C13.6422 12.682 12.7368 12.3367 12.0368 11.646C11.3462 10.946 11.0008 10.064 11.0008 9C11.0008 7.94533 11.3415 7.068 12.0228 6.368C12.7042 5.668 13.5862 5.318 14.6688 5.318C15.6955 5.318 16.5308 5.682 17.1748 6.41C17.8282 7.12867 18.1548 7.99667 18.1548 9.014C18.1548 9.19133 18.1408 9.37333 18.1128 9.56H12.2468ZM14.6688 6.466C14.0155 6.466 13.4742 6.65267 13.0448 7.026C12.6155 7.39 12.3495 7.88 12.2468 8.496H16.9228C16.8202 7.83333 16.5588 7.32933 16.1388 6.984C15.7188 6.63867 15.2288 6.466 14.6688 6.466ZM20.7515 7.39C20.7515 7.66067 20.8868 7.88 21.1575 8.048C21.4282 8.20667 21.7548 8.33733 22.1375 8.44C22.5202 8.53333 22.9028 8.64533 23.2855 8.776C23.6682 8.89733 23.9948 9.112 24.2655 9.42C24.5362 9.71867 24.6715 10.106 24.6715 10.582C24.6715 11.2167 24.4242 11.7253 23.9295 12.108C23.4442 12.4907 22.8188 12.682 22.0535 12.682C21.3722 12.682 20.7888 12.5327 20.3035 12.234C19.8182 11.9353 19.4728 11.5387 19.2675 11.044L20.3175 10.442C20.4295 10.778 20.6395 11.044 20.9475 11.24C21.2555 11.436 21.6242 11.534 22.0535 11.534C22.4548 11.534 22.7862 11.4593 23.0475 11.31C23.3088 11.1513 23.4395 10.9087 23.4395 10.582C23.4395 10.3113 23.3042 10.0967 23.0335 9.938C22.7628 9.77 22.4362 9.63933 22.0535 9.546C21.6708 9.44333 21.2882 9.32667 20.9055 9.196C20.5228 9.06533 20.1962 8.85067 19.9255 8.552C19.6548 8.25333 19.5195 7.87067 19.5195 7.404C19.5195 6.79733 19.7528 6.298 20.2195 5.906C20.6955 5.514 21.2882 5.318 21.9975 5.318C22.5668 5.318 23.0708 5.44867 23.5095 5.71C23.9575 5.962 24.2935 6.31667 24.5175 6.774L23.4955 7.348C23.2435 6.75067 22.7442 6.452 21.9975 6.452C21.6522 6.452 21.3582 6.536 21.1155 6.704C20.8728 6.86267 20.7515 7.09133 20.7515 7.39ZM29.6322 12.682C28.5775 12.682 27.7002 12.332 27.0002 11.632C26.3002 10.9227 25.9502 10.0453 25.9502 9C25.9502 7.95467 26.3002 7.082 27.0002 6.382C27.7002 5.67267 28.5775 5.318 29.6322 5.318C30.3229 5.318 30.9435 5.486 31.4942 5.822C32.0449 6.14867 32.4555 6.592 32.7262 7.152L31.7042 7.74C31.5269 7.36667 31.2515 7.068 30.8782 6.844C30.5142 6.62 30.0989 6.508 29.6322 6.508C28.9322 6.508 28.3442 6.746 27.8682 7.222C27.4015 7.698 27.1682 8.29067 27.1682 9C27.1682 9.7 27.4015 10.288 27.8682 10.764C28.3442 11.24 28.9322 11.478 29.6322 11.478C30.0989 11.478 30.5189 11.3707 30.8922 11.156C31.2655 10.932 31.5502 10.6333 31.7462 10.26L32.7822 10.862C32.4835 11.4127 32.0542 11.856 31.4942 12.192C30.9342 12.5187 30.3135 12.682 29.6322 12.682ZM35.6365 6.676C36.0378 5.808 36.7658 5.374 37.8205 5.374V6.648C37.2231 6.62 36.7098 6.77867 36.2805 7.124C35.8511 7.46933 35.6365 8.02467 35.6365 8.79V12.5H34.4185V5.5H35.6365V6.676ZM40.0482 4.226C39.8149 4.226 39.6189 4.14667 39.4602 3.988C39.3015 3.82933 39.2222 3.638 39.2222 3.414C39.2222 3.19 39.3015 2.99867 39.4602 2.84C39.6189 2.672 39.8149 2.588 40.0482 2.588C40.2722 2.588 40.4635 2.672 40.6222 2.84C40.7809 2.99867 40.8602 3.19 40.8602 3.414C40.8602 3.638 40.7809 3.82933 40.6222 3.988C40.4635 4.14667 40.2722 4.226 40.0482 4.226ZM39.4322 12.5V5.5H40.6502V12.5H39.4322ZM46.7924 5.318C47.7724 5.318 48.6077 5.67733 49.2984 6.396C49.989 7.10533 50.3344 7.97333 50.3344 9C50.3344 10.0267 49.989 10.8993 49.2984 11.618C48.6077 12.3273 47.7724 12.682 46.7924 12.682C45.635 12.682 44.753 12.22 44.1464 11.296V15.3H42.9284V5.5H44.1464V6.704C44.753 5.78 45.635 5.318 46.7924 5.318ZM46.6384 11.506C47.3384 11.506 47.9264 11.268 48.4024 10.792C48.8784 10.3067 49.1164 9.70933 49.1164 9C49.1164 8.29067 48.8784 7.698 48.4024 7.222C47.9264 6.73667 47.3384 6.494 46.6384 6.494C45.929 6.494 45.3364 6.73667 44.8604 7.222C44.3844 7.698 44.1464 8.29067 44.1464 9C44.1464 9.70933 44.3844 10.3067 44.8604 10.792C45.3364 11.268 45.929 11.506 46.6384 11.506ZM55.8654 6.676H54.0034V10.47C54.0034 10.8153 54.0687 11.0627 54.1994 11.212C54.3394 11.352 54.5494 11.4267 54.8294 11.436C55.1094 11.436 55.4547 11.4267 55.8654 11.408V12.5C54.8014 12.64 54.022 12.556 53.5274 12.248C53.0327 11.9307 52.7854 11.338 52.7854 10.47V6.676H51.3994V5.5H52.7854V3.904L54.0034 3.54V5.5H55.8654V6.676ZM58.3434 4.226C58.11 4.226 57.914 4.14667 57.7554 3.988C57.5967 3.82933 57.5174 3.638 57.5174 3.414C57.5174 3.19 57.5967 2.99867 57.7554 2.84C57.914 2.672 58.11 2.588 58.3434 2.588C58.5674 2.588 58.7587 2.672 58.9174 2.84C59.076 2.99867 59.1554 3.19 59.1554 3.414C59.1554 3.638 59.076 3.82933 58.9174 3.988C58.7587 4.14667 58.5674 4.226 58.3434 4.226ZM57.7274 12.5V5.5H58.9454V12.5H57.7274ZM67.1315 11.618C66.4129 12.3273 65.5402 12.682 64.5135 12.682C63.4869 12.682 62.6142 12.3273 61.8955 11.618C61.1862 10.9087 60.8315 10.036 60.8315 9C60.8315 7.964 61.1862 7.09133 61.8955 6.382C62.6142 5.67267 63.4869 5.318 64.5135 5.318C65.5402 5.318 66.4129 5.67267 67.1315 6.382C67.8502 7.09133 68.2095 7.964 68.2095 9C68.2095 10.036 67.8502 10.9087 67.1315 11.618ZM64.5135 11.492C65.2135 11.492 65.8015 11.254 66.2775 10.778C66.7535 10.302 66.9915 9.70933 66.9915 9C66.9915 8.29067 66.7535 7.698 66.2775 7.222C65.8015 6.746 65.2135 6.508 64.5135 6.508C63.8229 6.508 63.2395 6.746 62.7635 7.222C62.2875 7.698 62.0495 8.29067 62.0495 9C62.0495 9.70933 62.2875 10.302 62.7635 10.778C63.2395 11.254 63.8229 11.492 64.5135 11.492ZM73.5514 5.318C74.3727 5.318 75.0307 5.57933 75.5254 6.102C76.0201 6.61533 76.2674 7.31533 76.2674 8.202V12.5H75.0494V8.272C75.0494 7.70267 74.8954 7.264 74.5874 6.956C74.2794 6.63867 73.8547 6.48 73.3134 6.48C72.7067 6.48 72.2167 6.67133 71.8434 7.054C71.4701 7.42733 71.2834 8.006 71.2834 8.79V12.5H70.0654V5.5H71.2834V6.508C71.7781 5.71467 72.5341 5.318 73.5514 5.318Z" fill="#465364"/>
<path d="M83.7358 13.9C82.7091 11.8467 82.1958 9.74667 82.1958 7.6C82.1958 5.45333 82.7091 3.35333 83.7358 1.3H84.9538C83.9271 3.35333 83.4138 5.45333 83.4138 7.6C83.4138 9.74667 83.9271 11.8467 84.9538 13.9H83.7358ZM88.4996 2.7H89.6196V12.5H88.3316V4.1L86.2456 4.716L85.9236 3.596L88.4996 2.7ZM98.3338 11.296C97.6711 12.22 96.7425 12.682 95.5478 12.682C94.3531 12.682 93.4245 12.22 92.7618 11.296C92.0991 10.372 91.7678 9.14 91.7678 7.6C91.7678 6.06 92.0991 4.828 92.7618 3.904C93.4245 2.98 94.3531 2.518 95.5478 2.518C96.7425 2.518 97.6711 2.98 98.3338 3.904C98.9965 4.828 99.3278 6.06 99.3278 7.6C99.3278 9.14 98.9965 10.372 98.3338 11.296ZM93.7138 10.414C94.1431 11.0767 94.7545 11.408 95.5478 11.408C96.3411 11.408 96.9525 11.0767 97.3818 10.414C97.8205 9.75133 98.0398 8.81333 98.0398 7.6C98.0398 6.38667 97.8205 5.44867 97.3818 4.786C96.9525 4.114 96.3411 3.778 95.5478 3.778C94.7545 3.778 94.1431 4.10933 93.7138 4.772C93.2845 5.43467 93.0698 6.37733 93.0698 7.6C93.0698 8.81333 93.2845 9.75133 93.7138 10.414ZM102.875 2.7H103.995V12.5H102.707V4.1L100.621 4.716L100.299 3.596L102.875 2.7ZM106.017 12.5V11.436L109.475 7.908C110.399 6.984 110.861 6.19067 110.861 5.528C110.861 4.97733 110.693 4.548 110.357 4.24C110.021 3.932 109.61 3.778 109.125 3.778C108.201 3.778 107.529 4.21667 107.109 5.094L106.017 4.45C106.325 3.81533 106.75 3.33467 107.291 3.008C107.842 2.68133 108.448 2.518 109.111 2.518C109.932 2.518 110.646 2.78867 111.253 3.33C111.86 3.87133 112.163 4.59933 112.163 5.514C112.163 6.50333 111.58 7.58133 110.413 8.748L107.907 11.24H112.345V12.5H106.017ZM124.068 11.618C123.349 12.3273 122.476 12.682 121.45 12.682C120.423 12.682 119.55 12.3273 118.832 11.618C118.122 10.9087 117.768 10.036 117.768 9C117.768 7.964 118.122 7.09133 118.832 6.382C119.55 5.67267 120.423 5.318 121.45 5.318C122.476 5.318 123.349 5.67267 124.068 6.382C124.786 7.09133 125.146 7.964 125.146 9C125.146 10.036 124.786 10.9087 124.068 11.618ZM121.45 11.492C122.15 11.492 122.738 11.254 123.214 10.778C123.69 10.302 123.928 9.70933 123.928 9C123.928 8.29067 123.69 7.698 123.214 7.222C122.738 6.746 122.15 6.508 121.45 6.508C120.759 6.508 120.176 6.746 119.7 7.222C119.224 7.698 118.986 8.29067 118.986 9C118.986 9.70933 119.224 10.302 119.7 10.778C120.176 11.254 120.759 11.492 121.45 11.492ZM130.34 3.694C129.108 3.59133 128.492 4.12333 128.492 5.29V5.5H130.34V6.676H128.492V12.5H127.274V6.676H126.154V5.5H127.274V5.29C127.274 4.34733 127.535 3.63333 128.058 3.148C128.59 2.66267 129.351 2.45267 130.34 2.518V3.694ZM137.455 2.7H138.575V12.5H137.287V4.1L135.201 4.716L134.879 3.596L137.455 2.7ZM147.29 11.296C146.627 12.22 145.698 12.682 144.504 12.682C143.309 12.682 142.38 12.22 141.718 11.296C141.055 10.372 140.724 9.14 140.724 7.6C140.724 6.06 141.055 4.828 141.718 3.904C142.38 2.98 143.309 2.518 144.504 2.518C145.698 2.518 146.627 2.98 147.29 3.904C147.952 4.828 148.284 6.06 148.284 7.6C148.284 9.14 147.952 10.372 147.29 11.296ZM142.67 10.414C143.099 11.0767 143.71 11.408 144.504 11.408C145.297 11.408 145.908 11.0767 146.338 10.414C146.776 9.75133 146.996 8.81333 146.996 7.6C146.996 6.38667 146.776 5.44867 146.338 4.786C145.908 4.114 145.297 3.778 144.504 3.778C143.71 3.778 143.099 4.10933 142.67 4.772C142.24 5.43467 142.026 6.37733 142.026 7.6C142.026 8.81333 142.24 9.75133 142.67 10.414ZM156.528 11.296C155.865 12.22 154.937 12.682 153.742 12.682C152.547 12.682 151.619 12.22 150.956 11.296C150.293 10.372 149.962 9.14 149.962 7.6C149.962 6.06 150.293 4.828 150.956 3.904C151.619 2.98 152.547 2.518 153.742 2.518C154.937 2.518 155.865 2.98 156.528 3.904C157.191 4.828 157.522 6.06 157.522 7.6C157.522 9.14 157.191 10.372 156.528 11.296ZM151.908 10.414C152.337 11.0767 152.949 11.408 153.742 11.408C154.535 11.408 155.147 11.0767 155.576 10.414C156.015 9.75133 156.234 8.81333 156.234 7.6C156.234 6.38667 156.015 5.44867 155.576 4.786C155.147 4.114 154.535 3.778 153.742 3.778C152.949 3.778 152.337 4.10933 151.908 4.772C151.479 5.43467 151.264 6.37733 151.264 7.6C151.264 8.81333 151.479 9.75133 151.908 10.414ZM165.766 11.296C165.104 12.22 164.175 12.682 162.98 12.682C161.786 12.682 160.857 12.22 160.194 11.296C159.532 10.372 159.2 9.14 159.2 7.6C159.2 6.06 159.532 4.828 160.194 3.904C160.857 2.98 161.786 2.518 162.98 2.518C164.175 2.518 165.104 2.98 165.766 3.904C166.429 4.828 166.76 6.06 166.76 7.6C166.76 9.14 166.429 10.372 165.766 11.296ZM161.146 10.414C161.576 11.0767 162.187 11.408 162.98 11.408C163.774 11.408 164.385 11.0767 164.814 10.414C165.253 9.75133 165.472 8.81333 165.472 7.6C165.472 6.38667 165.253 5.44867 164.814 4.786C164.385 4.114 163.774 3.778 162.98 3.778C162.187 3.778 161.576 4.10933 161.146 4.772C160.717 5.43467 160.502 6.37733 160.502 7.6C160.502 8.81333 160.717 9.75133 161.146 10.414ZM175.943 12.682C174.888 12.682 174.011 12.332 173.311 11.632C172.611 10.9227 172.261 10.0453 172.261 9C172.261 7.95467 172.611 7.082 173.311 6.382C174.011 5.67267 174.888 5.318 175.943 5.318C176.633 5.318 177.254 5.486 177.805 5.822C178.355 6.14867 178.766 6.592 179.037 7.152L178.015 7.74C177.837 7.36667 177.562 7.068 177.189 6.844C176.825 6.62 176.409 6.508 175.943 6.508C175.243 6.508 174.655 6.746 174.179 7.222C173.712 7.698 173.479 8.29067 173.479 9C173.479 9.7 173.712 10.288 174.179 10.764C174.655 11.24 175.243 11.478 175.943 11.478C176.409 11.478 176.829 11.3707 177.203 11.156C177.576 10.932 177.861 10.6333 178.057 10.26L179.093 10.862C178.794 11.4127 178.365 11.856 177.805 12.192C177.245 12.5187 176.624 12.682 175.943 12.682ZM184.201 5.318C185.023 5.318 185.681 5.57933 186.175 6.102C186.67 6.61533 186.917 7.31533 186.917 8.202V12.5H185.699V8.272C185.699 7.70267 185.545 7.264 185.237 6.956C184.929 6.63867 184.505 6.48 183.963 6.48C183.357 6.48 182.867 6.67133 182.493 7.054C182.12 7.42733 181.933 8.006 181.933 8.79V12.5H180.715V2.7H181.933V6.508C182.428 5.71467 183.184 5.318 184.201 5.318ZM194.834 5.5H196.052V12.5H194.834V11.296C194.227 12.22 193.345 12.682 192.188 12.682C191.208 12.682 190.372 12.3273 189.682 11.618C188.991 10.8993 188.646 10.0267 188.646 9C188.646 7.97333 188.991 7.10533 189.682 6.396C190.372 5.67733 191.208 5.318 192.188 5.318C193.345 5.318 194.227 5.78 194.834 6.704V5.5ZM192.342 11.506C193.051 11.506 193.644 11.268 194.12 10.792C194.596 10.3067 194.834 9.70933 194.834 9C194.834 8.29067 194.596 7.698 194.12 7.222C193.644 6.73667 193.051 6.494 192.342 6.494C191.642 6.494 191.054 6.73667 190.578 7.222C190.102 7.698 189.864 8.29067 189.864 9C189.864 9.70933 190.102 10.3067 190.578 10.792C191.054 11.268 191.642 11.506 192.342 11.506ZM199.535 6.676C199.936 5.808 200.664 5.374 201.719 5.374V6.648C201.122 6.62 200.608 6.77867 200.179 7.124C199.75 7.46933 199.535 8.02467 199.535 8.79V12.5H198.317V5.5H199.535V6.676ZM208.744 5.5H209.962V12.5H208.744V11.296C208.137 12.22 207.255 12.682 206.098 12.682C205.118 12.682 204.283 12.3273 203.592 11.618C202.901 10.8993 202.556 10.0267 202.556 9C202.556 7.97333 202.901 7.10533 203.592 6.396C204.283 5.67733 205.118 5.318 206.098 5.318C207.255 5.318 208.137 5.78 208.744 6.704V5.5ZM206.252 11.506C206.961 11.506 207.554 11.268 208.03 10.792C208.506 10.3067 208.744 9.70933 208.744 9C208.744 8.29067 208.506 7.698 208.03 7.222C207.554 6.73667 206.961 6.494 206.252 6.494C205.552 6.494 204.964 6.73667 204.488 7.222C204.012 7.698 203.774 8.29067 203.774 9C203.774 9.70933 204.012 10.3067 204.488 10.792C204.964 11.268 205.552 11.506 206.252 11.506ZM215.517 12.682C214.463 12.682 213.585 12.332 212.885 11.632C212.185 10.9227 211.835 10.0453 211.835 9C211.835 7.95467 212.185 7.082 212.885 6.382C213.585 5.67267 214.463 5.318 215.517 5.318C216.208 5.318 216.829 5.486 217.379 5.822C217.93 6.14867 218.341 6.592 218.611 7.152L217.589 7.74C217.412 7.36667 217.137 7.068 216.763 6.844C216.399 6.62 215.984 6.508 215.517 6.508C214.817 6.508 214.229 6.746 213.753 7.222C213.287 7.698 213.053 8.29067 213.053 9C213.053 9.7 213.287 10.288 213.753 10.764C214.229 11.24 214.817 11.478 215.517 11.478C215.984 11.478 216.404 11.3707 216.777 11.156C217.151 10.932 217.435 10.6333 217.631 10.26L218.667 10.862C218.369 11.4127 217.939 11.856 217.379 12.192C216.819 12.5187 216.199 12.682 215.517 12.682ZM224.098 6.676H222.236V10.47C222.236 10.8153 222.301 11.0627 222.432 11.212C222.572 11.352 222.782 11.4267 223.062 11.436C223.342 11.436 223.687 11.4267 224.098 11.408V12.5C223.034 12.64 222.254 12.556 221.76 12.248C221.265 11.9307 221.018 11.338 221.018 10.47V6.676H219.632V5.5H221.018V3.904L222.236 3.54V5.5H224.098V6.676ZM226.458 9.56C226.58 10.1853 226.864 10.6707 227.312 11.016C227.77 11.3613 228.33 11.534 228.992 11.534C229.916 11.534 230.588 11.1933 231.008 10.512L232.044 11.1C231.363 12.1547 230.336 12.682 228.964 12.682C227.854 12.682 226.948 12.3367 226.248 11.646C225.558 10.946 225.212 10.064 225.212 9C225.212 7.94533 225.553 7.068 226.234 6.368C226.916 5.668 227.798 5.318 228.88 5.318C229.907 5.318 230.742 5.682 231.386 6.41C232.04 7.12867 232.366 7.99667 232.366 9.014C232.366 9.19133 232.352 9.37333 232.324 9.56H226.458ZM228.88 6.466C228.227 6.466 227.686 6.65267 227.256 7.026C226.827 7.39 226.561 7.88 226.458 8.496H231.134C231.032 7.83333 230.77 7.32933 230.35 6.984C229.93 6.63867 229.44 6.466 228.88 6.466ZM235.404 6.676C235.806 5.808 236.534 5.374 237.588 5.374V6.648C236.991 6.62 236.478 6.77867 236.048 7.124C235.619 7.46933 235.404 8.02467 235.404 8.79V12.5H234.186V5.5H235.404V6.676ZM239.99 7.39C239.99 7.66067 240.126 7.88 240.396 8.048C240.667 8.20667 240.994 8.33733 241.376 8.44C241.759 8.53333 242.142 8.64533 242.524 8.776C242.907 8.89733 243.234 9.112 243.504 9.42C243.775 9.71867 243.91 10.106 243.91 10.582C243.91 11.2167 243.663 11.7253 243.168 12.108C242.683 12.4907 242.058 12.682 241.292 12.682C240.611 12.682 240.028 12.5327 239.542 12.234C239.057 11.9353 238.712 11.5387 238.506 11.044L239.556 10.442C239.668 10.778 239.878 11.044 240.186 11.24C240.494 11.436 240.863 11.534 241.292 11.534C241.694 11.534 242.025 11.4593 242.286 11.31C242.548 11.1513 242.678 10.9087 242.678 10.582C242.678 10.3113 242.543 10.0967 242.272 9.938C242.002 9.77 241.675 9.63933 241.292 9.546C240.91 9.44333 240.527 9.32667 240.144 9.196C239.762 9.06533 239.435 8.85067 239.164 8.552C238.894 8.25333 238.758 7.87067 238.758 7.404C238.758 6.79733 238.992 6.298 239.458 5.906C239.934 5.514 240.527 5.318 241.236 5.318C241.806 5.318 242.31 5.44867 242.748 5.71C243.196 5.962 243.532 6.31667 243.756 6.774L242.734 7.348C242.482 6.75067 241.983 6.452 241.236 6.452C240.891 6.452 240.597 6.536 240.354 6.704C240.112 6.86267 239.99 7.09133 239.99 7.39ZM254.523 5.5H255.741V12.5H254.523V11.492C254.028 12.2853 253.272 12.682 252.255 12.682C251.433 12.682 250.775 12.4253 250.281 11.912C249.786 11.3893 249.539 10.6847 249.539 9.798V5.5H250.757V9.728C250.757 10.2973 250.911 10.7407 251.219 11.058C251.527 11.366 251.951 11.52 252.493 11.52C253.099 11.52 253.589 11.3333 253.963 10.96C254.336 10.5773 254.523 9.994 254.523 9.21V5.5ZM259.051 7.39C259.051 7.66067 259.187 7.88 259.457 8.048C259.728 8.20667 260.055 8.33733 260.437 8.44C260.82 8.53333 261.203 8.64533 261.585 8.776C261.968 8.89733 262.295 9.112 262.565 9.42C262.836 9.71867 262.971 10.106 262.971 10.582C262.971 11.2167 262.724 11.7253 262.229 12.108C261.744 12.4907 261.119 12.682 260.353 12.682C259.672 12.682 259.089 12.5327 258.603 12.234C258.118 11.9353 257.773 11.5387 257.567 11.044L258.617 10.442C258.729 10.778 258.939 11.044 259.247 11.24C259.555 11.436 259.924 11.534 260.353 11.534C260.755 11.534 261.086 11.4593 261.347 11.31C261.609 11.1513 261.739 10.9087 261.739 10.582C261.739 10.3113 261.604 10.0967 261.333 9.938C261.063 9.77 260.736 9.63933 260.353 9.546C259.971 9.44333 259.588 9.32667 259.205 9.196C258.823 9.06533 258.496 8.85067 258.225 8.552C257.955 8.25333 257.819 7.87067 257.819 7.404C257.819 6.79733 258.053 6.298 258.519 5.906C258.995 5.514 259.588 5.318 260.297 5.318C260.867 5.318 261.371 5.44867 261.809 5.71C262.257 5.962 262.593 6.31667 262.817 6.774L261.795 7.348C261.543 6.75067 261.044 6.452 260.297 6.452C259.952 6.452 259.658 6.536 259.415 6.704C259.173 6.86267 259.051 7.09133 259.051 7.39ZM265.496 9.56C265.617 10.1853 265.902 10.6707 266.35 11.016C266.807 11.3613 267.367 11.534 268.03 11.534C268.954 11.534 269.626 11.1933 270.046 10.512L271.082 11.1C270.401 12.1547 269.374 12.682 268.002 12.682C266.891 12.682 265.986 12.3367 265.286 11.646C264.595 10.946 264.25 10.064 264.25 9C264.25 7.94533 264.591 7.068 265.272 6.368C265.953 5.668 266.835 5.318 267.918 5.318C268.945 5.318 269.78 5.682 270.424 6.41C271.077 7.12867 271.404 7.99667 271.404 9.014C271.404 9.19133 271.39 9.37333 271.362 9.56H265.496ZM267.918 6.466C267.265 6.466 266.723 6.65267 266.294 7.026C265.865 7.39 265.599 7.88 265.496 8.496H270.172C270.069 7.83333 269.808 7.32933 269.388 6.984C268.968 6.63867 268.478 6.466 267.918 6.466ZM279.006 2.7H280.224V12.5H279.006V11.296C278.4 12.22 277.518 12.682 276.36 12.682C275.38 12.682 274.545 12.3273 273.854 11.618C273.164 10.8993 272.818 10.0267 272.818 9C272.818 7.97333 273.164 7.10533 273.854 6.396C274.545 5.67733 275.38 5.318 276.36 5.318C277.518 5.318 278.4 5.78 279.006 6.704V2.7ZM276.514 11.506C277.224 11.506 277.816 11.268 278.292 10.792C278.768 10.3067 279.006 9.70933 279.006 9C279.006 8.29067 278.768 7.698 278.292 7.222C277.816 6.73667 277.224 6.494 276.514 6.494C275.814 6.494 275.226 6.73667 274.75 7.222C274.274 7.698 274.036 8.29067 274.036 9C274.036 9.70933 274.274 10.3067 274.75 10.792C275.226 11.268 275.814 11.506 276.514 11.506ZM283.134 13.9H281.916C282.942 11.8467 283.456 9.74667 283.456 7.6C283.456 5.45333 282.942 3.35333 281.916 1.3H283.134C284.16 3.35333 284.674 5.45333 284.674 7.6C284.674 9.74667 284.16 11.8467 283.134 13.9Z" fill="#ABB2BD"/>
<rect y="27.5" width="580" height="129" rx="8" fill="#F7F9FA"/>
<rect x="0.25" y="27.75" width="579.5" height="128.5" rx="7.75" stroke="#ABB2BD" stroke-opacity="0.5" stroke-width="0.5"/>
<path d="M2.376 169.1H3.336V177.5H2.232V170.3L0.444 170.828L0.168 169.868L2.376 169.1ZM5.06934 177.5V176.588L8.03334 173.564C8.82534 172.772 9.22134 172.092 9.22134 171.524C9.22134 171.052 9.07734 170.684 8.78934 170.42C8.50134 170.156 8.14934 170.024 7.73334 170.024C6.94134 170.024 6.36534 170.4 6.00534 171.152L5.06934 170.6C5.33334 170.056 5.69734 169.644 6.16134 169.364C6.63334 169.084 7.15334 168.944 7.72134 168.944C8.42534 168.944 9.03734 169.176 9.55734 169.64C10.0773 170.104 10.3373 170.728 10.3373 171.512C10.3373 172.36 9.83734 173.284 8.83734 174.284L6.68934 176.42H10.4933V177.5H5.06934ZM18.2975 177.656C17.3935 177.656 16.6415 177.356 16.0415 176.756C15.4415 176.148 15.1415 175.396 15.1415 174.5C15.1415 173.604 15.4415 172.856 16.0415 172.256C16.6415 171.648 17.3935 171.344 18.2975 171.344C18.8895 171.344 19.4215 171.488 19.8935 171.776C20.3655 172.056 20.7175 172.436 20.9495 172.916L20.0735 173.42C19.9215 173.1 19.6855 172.844 19.3655 172.652C19.0535 172.46 18.6975 172.364 18.2975 172.364C17.6975 172.364 17.1935 172.568 16.7855 172.976C16.3855 173.384 16.1855 173.892 16.1855 174.5C16.1855 175.1 16.3855 175.604 16.7855 176.012C17.1935 176.42 17.6975 176.624 18.2975 176.624C18.6975 176.624 19.0575 176.532 19.3775 176.348C19.6975 176.156 19.9415 175.9 20.1095 175.58L20.9975 176.096C20.7415 176.568 20.3735 176.948 19.8935 177.236C19.4135 177.516 18.8815 177.656 18.2975 177.656ZM25.3763 171.344C26.0803 171.344 26.6443 171.568 27.0683 172.016C27.4923 172.456 27.7043 173.056 27.7043 173.816V177.5H26.6603V173.876C26.6603 173.388 26.5283 173.012 26.2643 172.748C26.0003 172.476 25.6363 172.34 25.1723 172.34C24.6523 172.34 24.2323 172.504 23.9123 172.832C23.5923 173.152 23.4323 173.648 23.4323 174.32V177.5H22.3883V169.1H23.4323V172.364C23.8563 171.684 24.5043 171.344 25.3763 171.344ZM34.4897 171.5H35.5337V177.5H34.4897V176.468C33.9697 177.26 33.2137 177.656 32.2217 177.656C31.3817 177.656 30.6657 177.352 30.0737 176.744C29.4817 176.128 29.1857 175.38 29.1857 174.5C29.1857 173.62 29.4817 172.876 30.0737 172.268C30.6657 171.652 31.3817 171.344 32.2217 171.344C33.2137 171.344 33.9697 171.74 34.4897 172.532V171.5ZM32.3537 176.648C32.9617 176.648 33.4697 176.444 33.8777 176.036C34.2857 175.62 34.4897 175.108 34.4897 174.5C34.4897 173.892 34.2857 173.384 33.8777 172.976C33.4697 172.56 32.9617 172.352 32.3537 172.352C31.7537 172.352 31.2497 172.56 30.8417 172.976C30.4337 173.384 30.2297 173.892 30.2297 174.5C30.2297 175.108 30.4337 175.62 30.8417 176.036C31.2497 176.444 31.7537 176.648 32.3537 176.648ZM38.5194 172.508C38.8634 171.764 39.4874 171.392 40.3914 171.392V172.484C39.8794 172.46 39.4394 172.596 39.0714 172.892C38.7034 173.188 38.5194 173.664 38.5194 174.32V177.5H37.4754V171.5H38.5194V172.508ZM46.4128 171.5H47.4568V177.5H46.4128V176.468C45.8928 177.26 45.1368 177.656 44.1448 177.656C43.3048 177.656 42.5888 177.352 41.9968 176.744C41.4048 176.128 41.1088 175.38 41.1088 174.5C41.1088 173.62 41.4048 172.876 41.9968 172.268C42.5888 171.652 43.3048 171.344 44.1448 171.344C45.1368 171.344 45.8928 171.74 46.4128 172.532V171.5ZM44.2768 176.648C44.8848 176.648 45.3928 176.444 45.8008 176.036C46.2088 175.62 46.4128 175.108 46.4128 174.5C46.4128 173.892 46.2088 173.384 45.8008 172.976C45.3928 172.56 44.8848 172.352 44.2768 172.352C43.6768 172.352 43.1728 172.56 42.7648 172.976C42.3568 173.384 42.1528 173.892 42.1528 174.5C42.1528 175.108 42.3568 175.62 42.7648 176.036C43.1728 176.444 43.6768 176.648 44.2768 176.648ZM52.2186 177.656C51.3146 177.656 50.5626 177.356 49.9626 176.756C49.3626 176.148 49.0626 175.396 49.0626 174.5C49.0626 173.604 49.3626 172.856 49.9626 172.256C50.5626 171.648 51.3146 171.344 52.2186 171.344C52.8106 171.344 53.3426 171.488 53.8146 171.776C54.2866 172.056 54.6386 172.436 54.8706 172.916L53.9946 173.42C53.8426 173.1 53.6066 172.844 53.2866 172.652C52.9746 172.46 52.6186 172.364 52.2186 172.364C51.6186 172.364 51.1146 172.568 50.7066 172.976C50.3066 173.384 50.1066 173.892 50.1066 174.5C50.1066 175.1 50.3066 175.604 50.7066 176.012C51.1146 176.42 51.6186 176.624 52.2186 176.624C52.6186 176.624 52.9786 176.532 53.2986 176.348C53.6186 176.156 53.8626 175.9 54.0306 175.58L54.9186 176.096C54.6626 176.568 54.2946 176.948 53.8146 177.236C53.3346 177.516 52.8026 177.656 52.2186 177.656ZM59.5733 172.508H57.9773V175.76C57.9773 176.056 58.0333 176.268 58.1453 176.396C58.2653 176.516 58.4453 176.58 58.6853 176.588C58.9253 176.588 59.2213 176.58 59.5733 176.564V177.5C58.6613 177.62 57.9933 177.548 57.5693 177.284C57.1453 177.012 56.9333 176.504 56.9333 175.76V172.508H55.7453V171.5H56.9333V170.132L57.9773 169.82V171.5H59.5733V172.508ZM61.5967 174.98C61.7007 175.516 61.9447 175.932 62.3287 176.228C62.7207 176.524 63.2007 176.672 63.7687 176.672C64.5607 176.672 65.1367 176.38 65.4967 175.796L66.3847 176.3C65.8007 177.204 64.9207 177.656 63.7447 177.656C62.7927 177.656 62.0167 177.36 61.4167 176.768C60.8247 176.168 60.5287 175.412 60.5287 174.5C60.5287 173.596 60.8207 172.844 61.4047 172.244C61.9887 171.644 62.7447 171.344 63.6727 171.344C64.5527 171.344 65.2687 171.656 65.8207 172.28C66.3807 172.896 66.6607 173.64 66.6607 174.512C66.6607 174.664 66.6487 174.82 66.6247 174.98H61.5967ZM63.6727 172.328C63.1127 172.328 62.6487 172.488 62.2807 172.808C61.9127 173.12 61.6847 173.54 61.5967 174.068H65.6047C65.5167 173.5 65.2927 173.068 64.9327 172.772C64.5727 172.476 64.1527 172.328 63.6727 172.328ZM69.2647 172.508C69.6087 171.764 70.2327 171.392 71.1367 171.392V172.484C70.6247 172.46 70.1847 172.596 69.8167 172.892C69.4487 173.188 69.2647 173.664 69.2647 174.32V177.5H68.2207V171.5H69.2647V172.508ZM73.1956 173.12C73.1956 173.352 73.3116 173.54 73.5436 173.684C73.7756 173.82 74.0556 173.932 74.3836 174.02C74.7116 174.1 75.0396 174.196 75.3676 174.308C75.6956 174.412 75.9756 174.596 76.2076 174.86C76.4396 175.116 76.5556 175.448 76.5556 175.856C76.5556 176.4 76.3436 176.836 75.9196 177.164C75.5036 177.492 74.9676 177.656 74.3116 177.656C73.7276 177.656 73.2276 177.528 72.8116 177.272C72.3956 177.016 72.0996 176.676 71.9236 176.252L72.8236 175.736C72.9196 176.024 73.0996 176.252 73.3636 176.42C73.6276 176.588 73.9436 176.672 74.3116 176.672C74.6556 176.672 74.9396 176.608 75.1636 176.48C75.3876 176.344 75.4996 176.136 75.4996 175.856C75.4996 175.624 75.3836 175.44 75.1516 175.304C74.9196 175.16 74.6396 175.048 74.3116 174.968C73.9836 174.88 73.6556 174.78 73.3276 174.668C72.9996 174.556 72.7196 174.372 72.4876 174.116C72.2556 173.86 72.1396 173.532 72.1396 173.132C72.1396 172.612 72.3396 172.184 72.7396 171.848C73.1476 171.512 73.6556 171.344 74.2636 171.344C74.7516 171.344 75.1836 171.456 75.5596 171.68C75.9436 171.896 76.2316 172.2 76.4236 172.592L75.5476 173.084C75.3316 172.572 74.9036 172.316 74.2636 172.316C73.9676 172.316 73.7156 172.388 73.5076 172.532C73.2996 172.668 73.1956 172.864 73.1956 173.12ZM87.9917 171.344C88.6637 171.344 89.2077 171.564 89.6237 172.004C90.0397 172.436 90.2477 173.024 90.2477 173.768V177.5H89.2037V173.804C89.2037 173.34 89.0837 172.98 88.8437 172.724C88.6037 172.468 88.2837 172.34 87.8837 172.34C87.4357 172.34 87.0757 172.492 86.8037 172.796C86.5397 173.092 86.4077 173.548 86.4077 174.164V177.5H85.3637V173.804C85.3637 173.34 85.2477 172.98 85.0157 172.724C84.7917 172.468 84.4837 172.34 84.0917 172.34C83.6517 172.34 83.2837 172.492 82.9877 172.796C82.6997 173.1 82.5557 173.556 82.5557 174.164V177.5H81.5117V171.5H82.5557V172.304C82.9637 171.664 83.5597 171.344 84.3437 171.344C85.1517 171.344 85.7397 171.684 86.1077 172.364C86.5237 171.684 87.1517 171.344 87.9917 171.344ZM97.1193 176.744C96.5033 177.352 95.7553 177.656 94.8753 177.656C93.9953 177.656 93.2473 177.352 92.6313 176.744C92.0233 176.136 91.7193 175.388 91.7193 174.5C91.7193 173.612 92.0233 172.864 92.6313 172.256C93.2473 171.648 93.9953 171.344 94.8753 171.344C95.7553 171.344 96.5033 171.648 97.1193 172.256C97.7353 172.864 98.0433 173.612 98.0433 174.5C98.0433 175.388 97.7353 176.136 97.1193 176.744ZM94.8753 176.636C95.4753 176.636 95.9793 176.432 96.3873 176.024C96.7953 175.616 96.9993 175.108 96.9993 174.5C96.9993 173.892 96.7953 173.384 96.3873 172.976C95.9793 172.568 95.4753 172.364 94.8753 172.364C94.2833 172.364 93.7833 172.568 93.3753 172.976C92.9673 173.384 92.7633 173.892 92.7633 174.5C92.7633 175.108 92.9673 175.616 93.3753 176.024C93.7833 176.432 94.2833 176.636 94.8753 176.636ZM100.678 172.508C101.022 171.764 101.646 171.392 102.55 171.392V172.484C102.038 172.46 101.598 172.596 101.23 172.892C100.862 173.188 100.678 173.664 100.678 174.32V177.5H99.634V171.5H100.678V172.508ZM104.335 174.98C104.439 175.516 104.683 175.932 105.067 176.228C105.459 176.524 105.939 176.672 106.507 176.672C107.299 176.672 107.875 176.38 108.235 175.796L109.123 176.3C108.539 177.204 107.659 177.656 106.483 177.656C105.531 177.656 104.755 177.36 104.155 176.768C103.563 176.168 103.267 175.412 103.267 174.5C103.267 173.596 103.559 172.844 104.143 172.244C104.727 171.644 105.483 171.344 106.411 171.344C107.291 171.344 108.007 171.656 108.559 172.28C109.119 172.896 109.399 173.64 109.399 174.512C109.399 174.664 109.387 174.82 109.363 174.98H104.335ZM106.411 172.328C105.851 172.328 105.387 172.488 105.019 172.808C104.651 173.12 104.423 173.54 104.335 174.068H108.343C108.255 173.5 108.031 173.068 107.671 172.772C107.311 172.476 106.891 172.328 106.411 172.328ZM118.46 171.5H119.504V177.5H118.46V176.636C118.036 177.316 117.388 177.656 116.516 177.656C115.812 177.656 115.248 177.436 114.824 176.996C114.4 176.548 114.188 175.944 114.188 175.184V171.5H115.232V175.124C115.232 175.612 115.364 175.992 115.628 176.264C115.892 176.528 116.256 176.66 116.72 176.66C117.24 176.66 117.66 176.5 117.98 176.18C118.3 175.852 118.46 175.352 118.46 174.68V171.5ZM122.341 173.12C122.341 173.352 122.457 173.54 122.689 173.684C122.921 173.82 123.201 173.932 123.529 174.02C123.857 174.1 124.185 174.196 124.513 174.308C124.841 174.412 125.121 174.596 125.353 174.86C125.585 175.116 125.701 175.448 125.701 175.856C125.701 176.4 125.489 176.836 125.065 177.164C124.649 177.492 124.113 177.656 123.457 177.656C122.873 177.656 122.373 177.528 121.957 177.272C121.541 177.016 121.245 176.676 121.069 176.252L121.969 175.736C122.065 176.024 122.245 176.252 122.509 176.42C122.773 176.588 123.089 176.672 123.457 176.672C123.801 176.672 124.085 176.608 124.309 176.48C124.533 176.344 124.645 176.136 124.645 175.856C124.645 175.624 124.529 175.44 124.297 175.304C124.065 175.16 123.785 175.048 123.457 174.968C123.129 174.88 122.801 174.78 122.473 174.668C122.145 174.556 121.865 174.372 121.633 174.116C121.401 173.86 121.285 173.532 121.285 173.132C121.285 172.612 121.485 172.184 121.885 171.848C122.293 171.512 122.801 171.344 123.409 171.344C123.897 171.344 124.329 171.456 124.705 171.68C125.089 171.896 125.377 172.2 125.569 172.592L124.693 173.084C124.477 172.572 124.049 172.316 123.409 172.316C123.113 172.316 122.861 172.388 122.653 172.532C122.445 172.668 122.341 172.864 122.341 173.12ZM127.865 174.98C127.969 175.516 128.213 175.932 128.597 176.228C128.989 176.524 129.469 176.672 130.037 176.672C130.829 176.672 131.405 176.38 131.765 175.796L132.653 176.3C132.069 177.204 131.189 177.656 130.013 177.656C129.061 177.656 128.285 177.36 127.685 176.768C127.093 176.168 126.797 175.412 126.797 174.5C126.797 173.596 127.089 172.844 127.673 172.244C128.257 171.644 129.013 171.344 129.941 171.344C130.821 171.344 131.537 171.656 132.089 172.28C132.649 172.896 132.929 173.64 132.929 174.512C132.929 174.664 132.917 174.82 132.893 174.98H127.865ZM129.941 172.328C129.381 172.328 128.917 172.488 128.549 172.808C128.181 173.12 127.953 173.54 127.865 174.068H131.873C131.785 173.5 131.561 173.068 131.201 172.772C130.841 172.476 130.421 172.328 129.941 172.328ZM139.446 169.1H140.49V177.5H139.446V176.468C138.926 177.26 138.17 177.656 137.178 177.656C136.338 177.656 135.622 177.352 135.03 176.744C134.438 176.128 134.142 175.38 134.142 174.5C134.142 173.62 134.438 172.876 135.03 172.268C135.622 171.652 136.338 171.344 137.178 171.344C138.17 171.344 138.926 171.74 139.446 172.532V169.1ZM137.31 176.648C137.918 176.648 138.426 176.444 138.834 176.036C139.242 175.62 139.446 175.108 139.446 174.5C139.446 173.892 139.242 173.384 138.834 172.976C138.426 172.56 137.918 172.352 137.31 172.352C136.71 172.352 136.206 172.56 135.798 172.976C135.39 173.384 135.186 173.892 135.186 174.5C135.186 175.108 135.39 175.62 135.798 176.036C136.206 176.444 136.71 176.648 137.31 176.648ZM149.055 172.508H147.459V175.76C147.459 176.056 147.515 176.268 147.627 176.396C147.747 176.516 147.927 176.58 148.167 176.588C148.407 176.588 148.703 176.58 149.055 176.564V177.5C148.143 177.62 147.475 177.548 147.051 177.284C146.627 177.012 146.415 176.504 146.415 175.76V172.508H145.227V171.5H146.415V170.132L147.459 169.82V171.5H149.055V172.508ZM153.639 171.344C154.343 171.344 154.907 171.568 155.331 172.016C155.755 172.456 155.967 173.056 155.967 173.816V177.5H154.923V173.876C154.923 173.388 154.791 173.012 154.527 172.748C154.263 172.476 153.899 172.34 153.435 172.34C152.915 172.34 152.495 172.504 152.175 172.832C151.855 173.152 151.695 173.648 151.695 174.32V177.5H150.651V169.1H151.695V172.364C152.119 171.684 152.767 171.344 153.639 171.344ZM162.753 171.5H163.797V177.5H162.753V176.468C162.233 177.26 161.477 177.656 160.485 177.656C159.645 177.656 158.929 177.352 158.337 176.744C157.745 176.128 157.449 175.38 157.449 174.5C157.449 173.62 157.745 172.876 158.337 172.268C158.929 171.652 159.645 171.344 160.485 171.344C161.477 171.344 162.233 171.74 162.753 172.532V171.5ZM160.617 176.648C161.225 176.648 161.733 176.444 162.141 176.036C162.549 175.62 162.753 175.108 162.753 174.5C162.753 173.892 162.549 173.384 162.141 172.976C161.733 172.56 161.225 172.352 160.617 172.352C160.017 172.352 159.513 172.56 159.105 172.976C158.697 173.384 158.493 173.892 158.493 174.5C158.493 175.108 158.697 175.62 159.105 176.036C159.513 176.444 160.017 176.648 160.617 176.648ZM168.727 171.344C169.431 171.344 169.995 171.568 170.419 172.016C170.843 172.456 171.055 173.056 171.055 173.816V177.5H170.011V173.876C170.011 173.388 169.879 173.012 169.615 172.748C169.351 172.476 168.987 172.34 168.523 172.34C168.003 172.34 167.583 172.504 167.263 172.832C166.943 173.152 166.783 173.648 166.783 174.32V177.5H165.739V171.5H166.783V172.364C167.207 171.684 167.855 171.344 168.727 171.344ZM179.496 172.508H177.9V175.76C177.9 176.056 177.956 176.268 178.068 176.396C178.188 176.516 178.368 176.58 178.608 176.588C178.848 176.588 179.144 176.58 179.496 176.564V177.5C178.584 177.62 177.916 177.548 177.492 177.284C177.068 177.012 176.856 176.504 176.856 175.76V172.508H175.668V171.5H176.856V170.132L177.9 169.82V171.5H179.496V172.508ZM184.08 171.344C184.784 171.344 185.348 171.568 185.772 172.016C186.196 172.456 186.408 173.056 186.408 173.816V177.5H185.364V173.876C185.364 173.388 185.232 173.012 184.968 172.748C184.704 172.476 184.34 172.34 183.876 172.34C183.356 172.34 182.936 172.504 182.616 172.832C182.296 173.152 182.136 173.648 182.136 174.32V177.5H181.092V169.1H182.136V172.364C182.56 171.684 183.208 171.344 184.08 171.344ZM188.957 174.98C189.061 175.516 189.305 175.932 189.689 176.228C190.081 176.524 190.561 176.672 191.129 176.672C191.921 176.672 192.497 176.38 192.857 175.796L193.745 176.3C193.161 177.204 192.281 177.656 191.105 177.656C190.153 177.656 189.377 177.36 188.777 176.768C188.185 176.168 187.889 175.412 187.889 174.5C187.889 173.596 188.181 172.844 188.765 172.244C189.349 171.644 190.105 171.344 191.033 171.344C191.913 171.344 192.629 171.656 193.181 172.28C193.741 172.896 194.021 173.64 194.021 174.512C194.021 174.664 194.009 174.82 193.985 174.98H188.957ZM191.033 172.328C190.473 172.328 190.009 172.488 189.641 172.808C189.273 173.12 189.045 173.54 188.957 174.068H192.965C192.877 173.5 192.653 173.068 192.293 172.772C191.933 172.476 191.513 172.328 191.033 172.328ZM203.91 171.5H204.954V177.5H203.91V176.468C203.39 177.26 202.634 177.656 201.642 177.656C200.802 177.656 200.086 177.352 199.494 176.744C198.902 176.128 198.606 175.38 198.606 174.5C198.606 173.62 198.902 172.876 199.494 172.268C200.086 171.652 200.802 171.344 201.642 171.344C202.634 171.344 203.39 171.74 203.91 172.532V171.5ZM201.774 176.648C202.382 176.648 202.89 176.444 203.298 176.036C203.706 175.62 203.91 175.108 203.91 174.5C203.91 173.892 203.706 173.384 203.298 172.976C202.89 172.56 202.382 172.352 201.774 172.352C201.174 172.352 200.67 172.56 200.262 172.976C199.854 173.384 199.65 173.892 199.65 174.5C199.65 175.108 199.854 175.62 200.262 176.036C200.67 176.444 201.174 176.648 201.774 176.648ZM209.715 177.656C208.811 177.656 208.059 177.356 207.459 176.756C206.859 176.148 206.559 175.396 206.559 174.5C206.559 173.604 206.859 172.856 207.459 172.256C208.059 171.648 208.811 171.344 209.715 171.344C210.307 171.344 210.839 171.488 211.311 171.776C211.783 172.056 212.135 172.436 212.367 172.916L211.491 173.42C211.339 173.1 211.103 172.844 210.783 172.652C210.471 172.46 210.115 172.364 209.715 172.364C209.115 172.364 208.611 172.568 208.203 172.976C207.803 173.384 207.603 173.892 207.603 174.5C207.603 175.1 207.803 175.604 208.203 176.012C208.611 176.42 209.115 176.624 209.715 176.624C210.115 176.624 210.475 176.532 210.795 176.348C211.115 176.156 211.359 175.9 211.527 175.58L212.415 176.096C212.159 176.568 211.791 176.948 211.311 177.236C210.831 177.516 210.299 177.656 209.715 177.656ZM216.544 177.656C215.64 177.656 214.888 177.356 214.288 176.756C213.688 176.148 213.388 175.396 213.388 174.5C213.388 173.604 213.688 172.856 214.288 172.256C214.888 171.648 215.64 171.344 216.544 171.344C217.136 171.344 217.668 171.488 218.14 171.776C218.612 172.056 218.964 172.436 219.196 172.916L218.32 173.42C218.168 173.1 217.932 172.844 217.612 172.652C217.3 172.46 216.944 172.364 216.544 172.364C215.944 172.364 215.44 172.568 215.032 172.976C214.632 173.384 214.432 173.892 214.432 174.5C214.432 175.1 214.632 175.604 215.032 176.012C215.44 176.42 215.944 176.624 216.544 176.624C216.944 176.624 217.304 176.532 217.624 176.348C217.944 176.156 218.188 175.9 218.356 175.58L219.244 176.096C218.988 176.568 218.62 176.948 218.14 177.236C217.66 177.516 217.128 177.656 216.544 177.656ZM221.285 174.98C221.389 175.516 221.633 175.932 222.017 176.228C222.409 176.524 222.889 176.672 223.457 176.672C224.249 176.672 224.825 176.38 225.185 175.796L226.073 176.3C225.489 177.204 224.609 177.656 223.433 177.656C222.481 177.656 221.705 177.36 221.105 176.768C220.513 176.168 220.217 175.412 220.217 174.5C220.217 173.596 220.509 172.844 221.093 172.244C221.677 171.644 222.433 171.344 223.361 171.344C224.241 171.344 224.957 171.656 225.509 172.28C226.069 172.896 226.349 173.64 226.349 174.512C226.349 174.664 226.337 174.82 226.313 174.98H221.285ZM223.361 172.328C222.801 172.328 222.337 172.488 221.969 172.808C221.601 173.12 221.373 173.54 221.285 174.068H225.293C225.205 173.5 224.981 173.068 224.621 172.772C224.261 172.476 223.841 172.328 223.361 172.328ZM231.221 171.344C232.061 171.344 232.777 171.652 233.369 172.268C233.961 172.876 234.257 173.62 234.257 174.5C234.257 175.38 233.961 176.128 233.369 176.744C232.777 177.352 232.061 177.656 231.221 177.656C230.229 177.656 229.473 177.26 228.953 176.468V179.9H227.909V171.5H228.953V172.532C229.473 171.74 230.229 171.344 231.221 171.344ZM231.089 176.648C231.689 176.648 232.193 176.444 232.601 176.036C233.009 175.62 233.213 175.108 233.213 174.5C233.213 173.892 233.009 173.384 232.601 172.976C232.193 172.56 231.689 172.352 231.089 172.352C230.481 172.352 229.973 172.56 229.565 172.976C229.157 173.384 228.953 173.892 228.953 174.5C228.953 175.108 229.157 175.62 229.565 176.036C229.973 176.444 230.481 176.648 231.089 176.648ZM238.998 172.508H237.402V175.76C237.402 176.056 237.458 176.268 237.57 176.396C237.69 176.516 237.87 176.58 238.11 176.588C238.35 176.588 238.646 176.58 238.998 176.564V177.5C238.086 177.62 237.418 177.548 236.994 177.284C236.57 177.012 236.358 176.504 236.358 175.76V172.508H235.17V171.5H236.358V170.132L237.402 169.82V171.5H238.998V172.508ZM241.021 174.98C241.125 175.516 241.369 175.932 241.753 176.228C242.145 176.524 242.625 176.672 243.193 176.672C243.985 176.672 244.561 176.38 244.921 175.796L245.809 176.3C245.225 177.204 244.345 177.656 243.169 177.656C242.217 177.656 241.441 177.36 240.841 176.768C240.249 176.168 239.953 175.412 239.953 174.5C239.953 173.596 240.245 172.844 240.829 172.244C241.413 171.644 242.169 171.344 243.097 171.344C243.977 171.344 244.693 171.656 245.245 172.28C245.805 172.896 246.085 173.64 246.085 174.512C246.085 174.664 246.073 174.82 246.049 174.98H241.021ZM243.097 172.328C242.537 172.328 242.073 172.488 241.705 172.808C241.337 173.12 241.109 173.54 241.021 174.068H245.029C244.941 173.5 244.717 173.068 244.357 172.772C243.997 172.476 243.577 172.328 243.097 172.328ZM252.601 169.1H253.645V177.5H252.601V176.468C252.081 177.26 251.325 177.656 250.333 177.656C249.493 177.656 248.777 177.352 248.185 176.744C247.593 176.128 247.297 175.38 247.297 174.5C247.297 173.62 247.593 172.876 248.185 172.268C248.777 171.652 249.493 171.344 250.333 171.344C251.325 171.344 252.081 171.74 252.601 172.532V169.1ZM250.465 176.648C251.073 176.648 251.581 176.444 251.989 176.036C252.397 175.62 252.601 175.108 252.601 174.5C252.601 173.892 252.397 173.384 251.989 172.976C251.581 172.56 251.073 172.352 250.465 172.352C249.865 172.352 249.361 172.56 248.953 172.976C248.545 173.384 248.341 173.892 248.341 174.5C248.341 175.108 248.545 175.62 248.953 176.036C249.361 176.444 249.865 176.648 250.465 176.648ZM258.947 177.5V168.74H259.991V177.5H258.947ZM262.472 170.408C262.272 170.408 262.104 170.34 261.968 170.204C261.832 170.068 261.764 169.904 261.764 169.712C261.764 169.52 261.832 169.356 261.968 169.22C262.104 169.076 262.272 169.004 262.472 169.004C262.664 169.004 262.828 169.076 262.964 169.22C263.1 169.356 263.168 169.52 263.168 169.712C263.168 169.904 263.1 170.068 262.964 170.204C262.828 170.34 262.664 170.408 262.472 170.408ZM261.944 177.5V171.5H262.988V177.5H261.944ZM271.421 171.344C272.093 171.344 272.637 171.564 273.053 172.004C273.469 172.436 273.677 173.024 273.677 173.768V177.5H272.633V173.804C272.633 173.34 272.513 172.98 272.273 172.724C272.033 172.468 271.713 172.34 271.313 172.34C270.865 172.34 270.505 172.492 270.233 172.796C269.969 173.092 269.837 173.548 269.837 174.164V177.5H268.793V173.804C268.793 173.34 268.677 172.98 268.445 172.724C268.221 172.468 267.913 172.34 267.521 172.34C267.081 172.34 266.713 172.492 266.417 172.796C266.129 173.1 265.985 173.556 265.985 174.164V177.5H264.941V171.5H265.985V172.304C266.393 171.664 266.989 171.344 267.773 171.344C268.581 171.344 269.169 171.684 269.537 172.364C269.953 171.684 270.581 171.344 271.421 171.344ZM276.012 170.408C275.812 170.408 275.644 170.34 275.508 170.204C275.372 170.068 275.304 169.904 275.304 169.712C275.304 169.52 275.372 169.356 275.508 169.22C275.644 169.076 275.812 169.004 276.012 169.004C276.204 169.004 276.368 169.076 276.504 169.22C276.64 169.356 276.708 169.52 276.708 169.712C276.708 169.904 276.64 170.068 276.504 170.204C276.368 170.34 276.204 170.408 276.012 170.408ZM275.484 177.5V171.5H276.528V177.5H275.484ZM281.745 172.508H280.149V175.76C280.149 176.056 280.205 176.268 280.317 176.396C280.437 176.516 280.617 176.58 280.857 176.588C281.097 176.588 281.393 176.58 281.745 176.564V177.5C280.833 177.62 280.165 177.548 279.741 177.284C279.317 177.012 279.105 176.504 279.105 175.76V172.508H277.917V171.5H279.105V170.132L280.149 169.82V171.5H281.745V172.508Z" fill="#FAC53C"/>
<path d="M18.616 59.5L15.4 48.3H16.968L19.528 57.516L22.248 48.3H23.752L26.472 57.516L29.032 48.3H30.6L27.384 59.5H25.656L23 50.556L20.344 59.5H18.616ZM36.2075 51.292C37.1462 51.292 37.8982 51.5907 38.4635 52.188C39.0288 52.7747 39.3115 53.5747 39.3115 54.588V59.5H37.9195V54.668C37.9195 54.0173 37.7435 53.516 37.3915 53.164C37.0395 52.8013 36.5542 52.62 35.9355 52.62C35.2422 52.62 34.6822 52.8387 34.2555 53.276C33.8288 53.7027 33.6155 54.364 33.6155 55.26V59.5H32.2235V48.3H33.6155V52.652C34.1808 51.7453 35.0448 51.292 36.2075 51.292ZM48.3587 51.5H49.7507V59.5H48.3587V58.124C47.6654 59.18 46.6574 59.708 45.3347 59.708C44.2147 59.708 43.2601 59.3027 42.4707 58.492C41.6814 57.6707 41.2867 56.6733 41.2867 55.5C41.2867 54.3267 41.6814 53.3347 42.4707 52.524C43.2601 51.7027 44.2147 51.292 45.3347 51.292C46.6574 51.292 47.6654 51.82 48.3587 52.876V51.5ZM45.5107 58.364C46.3214 58.364 46.9987 58.092 47.5427 57.548C48.0867 56.9933 48.3587 56.3107 48.3587 55.5C48.3587 54.6893 48.0867 54.012 47.5427 53.468C46.9987 52.9133 46.3214 52.636 45.5107 52.636C44.7107 52.636 44.0387 52.9133 43.4947 53.468C42.9507 54.012 42.6787 54.6893 42.6787 55.5C42.6787 56.3107 42.9507 56.9933 43.4947 57.548C44.0387 58.092 44.7107 58.364 45.5107 58.364ZM56.6917 52.844H54.5637V57.18C54.5637 57.5747 54.6384 57.8573 54.7877 58.028C54.9477 58.188 55.1877 58.2733 55.5077 58.284C55.8277 58.284 56.2224 58.2733 56.6917 58.252V59.5C55.4757 59.66 54.5851 59.564 54.0197 59.212C53.4544 58.8493 53.1717 58.172 53.1717 57.18V52.844H51.5877V51.5H53.1717V49.676L54.5637 49.26V51.5H56.6917V52.844ZM64.0506 50.044C63.784 50.044 63.56 49.9533 63.3786 49.772C63.1973 49.5907 63.1066 49.372 63.1066 49.116C63.1066 48.86 63.1973 48.6413 63.3786 48.46C63.56 48.268 63.784 48.172 64.0506 48.172C64.3066 48.172 64.5253 48.268 64.7066 48.46C64.888 48.6413 64.9786 48.86 64.9786 49.116C64.9786 49.372 64.888 49.5907 64.7066 49.772C64.5253 49.9533 64.3066 50.044 64.0506 50.044ZM63.3466 59.5V51.5H64.7386V59.5H63.3466ZM68.5266 53.66C68.5266 53.9693 68.6813 54.22 68.9906 54.412C69.3 54.5933 69.6733 54.7427 70.1106 54.86C70.548 54.9667 70.9853 55.0947 71.4226 55.244C71.86 55.3827 72.2333 55.628 72.5426 55.98C72.852 56.3213 73.0066 56.764 73.0066 57.308C73.0066 58.0333 72.724 58.6147 72.1586 59.052C71.604 59.4893 70.8893 59.708 70.0146 59.708C69.236 59.708 68.5693 59.5373 68.0146 59.196C67.46 58.8547 67.0653 58.4013 66.8306 57.836L68.0306 57.148C68.1586 57.532 68.3986 57.836 68.7506 58.06C69.1026 58.284 69.524 58.396 70.0146 58.396C70.4733 58.396 70.852 58.3107 71.1506 58.14C71.4493 57.9587 71.5986 57.6813 71.5986 57.308C71.5986 56.9987 71.444 56.7533 71.1346 56.572C70.8253 56.38 70.452 56.2307 70.0146 56.124C69.5773 56.0067 69.14 55.8733 68.7026 55.724C68.2653 55.5747 67.892 55.3293 67.5826 54.988C67.2733 54.6467 67.1186 54.2093 67.1186 53.676C67.1186 52.9827 67.3853 52.412 67.9186 51.964C68.4626 51.516 69.14 51.292 69.9506 51.292C70.6013 51.292 71.1773 51.4413 71.6786 51.74C72.1906 52.028 72.5746 52.4333 72.8306 52.956L71.6626 53.612C71.3746 52.9293 70.804 52.588 69.9506 52.588C69.556 52.588 69.22 52.684 68.9426 52.876C68.6653 53.0573 68.5266 53.3187 68.5266 53.66ZM83.9668 52.844H81.8388V57.18C81.8388 57.5747 81.9134 57.8573 82.0628 58.028C82.2228 58.188 82.4628 58.2733 82.7828 58.284C83.1028 58.284 83.4974 58.2733 83.9668 58.252V59.5C82.7508 59.66 81.8601 59.564 81.2948 59.212C80.7294 58.8493 80.4468 58.172 80.4468 57.18V52.844H78.8628V51.5H80.4468V49.676L81.8388 49.26V51.5H83.9668V52.844ZM90.0788 51.292C91.0174 51.292 91.7694 51.5907 92.3348 52.188C92.9001 52.7747 93.1827 53.5747 93.1827 54.588V59.5H91.7908V54.668C91.7908 54.0173 91.6148 53.516 91.2628 53.164C90.9107 52.8013 90.4254 52.62 89.8067 52.62C89.1134 52.62 88.5534 52.8387 88.1267 53.276C87.7001 53.7027 87.4867 54.364 87.4867 55.26V59.5H86.0947V48.3H87.4867V52.652C88.0521 51.7453 88.9161 51.292 90.0788 51.292ZM96.582 56.14C96.7207 56.8547 97.046 57.4093 97.558 57.804C98.0807 58.1987 98.7207 58.396 99.478 58.396C100.534 58.396 101.302 58.0067 101.782 57.228L102.966 57.9C102.187 59.1053 101.014 59.708 99.446 59.708C98.1767 59.708 97.142 59.3133 96.342 58.524C95.5527 57.724 95.158 56.716 95.158 55.5C95.158 54.2947 95.5473 53.292 96.326 52.492C97.1047 51.692 98.1127 51.292 99.35 51.292C100.523 51.292 101.478 51.708 102.214 52.54C102.961 53.3613 103.334 54.3533 103.334 55.516C103.334 55.7187 103.318 55.9267 103.286 56.14H96.582ZM99.35 52.604C98.6033 52.604 97.9847 52.8173 97.494 53.244C97.0033 53.66 96.6993 54.22 96.582 54.924H101.926C101.809 54.1667 101.51 53.5907 101.03 53.196C100.55 52.8013 99.99 52.604 99.35 52.604ZM114.31 51.292C115.43 51.292 116.385 51.7027 117.174 52.524C117.963 53.3347 118.358 54.3267 118.358 55.5C118.358 56.6733 117.963 57.6707 117.174 58.492C116.385 59.3027 115.43 59.708 114.31 59.708C112.987 59.708 111.979 59.18 111.286 58.124V59.5H109.894V48.3H111.286V52.876C111.979 51.82 112.987 51.292 114.31 51.292ZM114.134 58.364C114.934 58.364 115.606 58.092 116.15 57.548C116.694 56.9933 116.966 56.3107 116.966 55.5C116.966 54.6893 116.694 54.012 116.15 53.468C115.606 52.9133 114.934 52.636 114.134 52.636C113.323 52.636 112.646 52.9133 112.102 53.468C111.558 54.012 111.286 54.6893 111.286 55.5C111.286 56.3107 111.558 56.9933 112.102 57.548C112.646 58.092 113.323 58.364 114.134 58.364ZM121.475 56.14C121.614 56.8547 121.939 57.4093 122.451 57.804C122.974 58.1987 123.614 58.396 124.371 58.396C125.427 58.396 126.195 58.0067 126.675 57.228L127.859 57.9C127.08 59.1053 125.907 59.708 124.339 59.708C123.07 59.708 122.035 59.3133 121.235 58.524C120.446 57.724 120.051 56.716 120.051 55.5C120.051 54.2947 120.44 53.292 121.219 52.492C121.998 51.692 123.006 51.292 124.243 51.292C125.416 51.292 126.371 51.708 127.107 52.54C127.854 53.3613 128.227 54.3533 128.227 55.516C128.227 55.7187 128.211 55.9267 128.179 56.14H121.475ZM124.243 52.604C123.496 52.604 122.878 52.8173 122.387 53.244C121.896 53.66 121.592 54.22 121.475 54.924H126.819C126.702 54.1667 126.403 53.5907 125.923 53.196C125.443 52.8013 124.883 52.604 124.243 52.604ZM131.195 53.66C131.195 53.9693 131.349 54.22 131.659 54.412C131.968 54.5933 132.341 54.7427 132.779 54.86C133.216 54.9667 133.653 55.0947 134.091 55.244C134.528 55.3827 134.901 55.628 135.211 55.98C135.52 56.3213 135.675 56.764 135.675 57.308C135.675 58.0333 135.392 58.6147 134.827 59.052C134.272 59.4893 133.557 59.708 132.683 59.708C131.904 59.708 131.237 59.5373 130.683 59.196C130.128 58.8547 129.733 58.4013 129.499 57.836L130.699 57.148C130.827 57.532 131.067 57.836 131.419 58.06C131.771 58.284 132.192 58.396 132.683 58.396C133.141 58.396 133.52 58.3107 133.819 58.14C134.117 57.9587 134.267 57.6813 134.267 57.308C134.267 56.9987 134.112 56.7533 133.803 56.572C133.493 56.38 133.12 56.2307 132.683 56.124C132.245 56.0067 131.808 55.8733 131.371 55.724C130.933 55.5747 130.56 55.3293 130.251 54.988C129.941 54.6467 129.787 54.2093 129.787 53.676C129.787 52.9827 130.053 52.412 130.587 51.964C131.131 51.516 131.808 51.292 132.619 51.292C133.269 51.292 133.845 51.4413 134.347 51.74C134.859 52.028 135.243 52.4333 135.499 52.956L134.331 53.612C134.043 52.9293 133.472 52.588 132.619 52.588C132.224 52.588 131.888 52.684 131.611 52.876C131.333 53.0573 131.195 53.3187 131.195 53.66ZM141.842 52.844H139.714V57.18C139.714 57.5747 139.789 57.8573 139.938 58.028C140.098 58.188 140.338 58.2733 140.658 58.284C140.978 58.284 141.373 58.2733 141.842 58.252V59.5C140.626 59.66 139.736 59.564 139.17 59.212C138.605 58.8493 138.322 58.172 138.322 57.18V52.844H136.738V51.5H138.322V49.676L139.714 49.26V51.5H141.842V52.844ZM157.921 51.5H159.377L156.897 59.5H155.473L153.601 53.58L151.729 59.5H150.305L147.825 51.5H149.281L151.041 57.58L152.929 51.5H154.273L156.161 57.596L157.921 51.5ZM167.601 51.5H168.993V59.5H167.601V58.124C166.908 59.18 165.9 59.708 164.577 59.708C163.457 59.708 162.503 59.3027 161.713 58.492C160.924 57.6707 160.529 56.6733 160.529 55.5C160.529 54.3267 160.924 53.3347 161.713 52.524C162.503 51.7027 163.457 51.292 164.577 51.292C165.9 51.292 166.908 51.82 167.601 52.876V51.5ZM164.753 58.364C165.564 58.364 166.241 58.092 166.785 57.548C167.329 56.9933 167.601 56.3107 167.601 55.5C167.601 54.6893 167.329 54.012 166.785 53.468C166.241 52.9133 165.564 52.636 164.753 52.636C163.953 52.636 163.281 52.9133 162.737 53.468C162.193 54.012 161.921 54.6893 161.921 55.5C161.921 56.3107 162.193 56.9933 162.737 57.548C163.281 58.092 163.953 58.364 164.753 58.364ZM177.166 51.5H178.654L175.39 59.996C175.049 60.9027 174.569 61.5907 173.95 62.06C173.342 62.54 172.638 62.7533 171.838 62.7V61.404C172.82 61.4787 173.54 60.9347 173.998 59.772L174.142 59.468L170.654 51.5H172.142L174.862 57.772L177.166 51.5ZM189.129 52.844H187.001V57.18C187.001 57.5747 187.075 57.8573 187.225 58.028C187.385 58.188 187.625 58.2733 187.945 58.284C188.265 58.284 188.659 58.2733 189.129 58.252V59.5C187.913 59.66 187.022 59.564 186.457 59.212C185.891 58.8493 185.609 58.172 185.609 57.18V52.844H184.025V51.5H185.609V49.676L187.001 49.26V51.5H189.129V52.844ZM197.602 58.492C196.781 59.3027 195.784 59.708 194.61 59.708C193.437 59.708 192.44 59.3027 191.618 58.492C190.808 57.6813 190.402 56.684 190.402 55.5C190.402 54.316 190.808 53.3187 191.618 52.508C192.44 51.6973 193.437 51.292 194.61 51.292C195.784 51.292 196.781 51.6973 197.602 52.508C198.424 53.3187 198.834 54.316 198.834 55.5C198.834 56.684 198.424 57.6813 197.602 58.492ZM194.61 58.348C195.41 58.348 196.082 58.076 196.626 57.532C197.17 56.988 197.442 56.3107 197.442 55.5C197.442 54.6893 197.17 54.012 196.626 53.468C196.082 52.924 195.41 52.652 194.61 52.652C193.821 52.652 193.154 52.924 192.61 53.468C192.066 54.012 191.794 54.6893 191.794 55.5C191.794 56.3107 192.066 56.988 192.61 57.532C193.154 58.076 193.821 58.348 194.61 58.348ZM212.059 48.3H213.451V59.5H212.059V58.124C211.366 59.18 210.358 59.708 209.035 59.708C207.915 59.708 206.961 59.3027 206.171 58.492C205.382 57.6707 204.987 56.6733 204.987 55.5C204.987 54.3267 205.382 53.3347 206.171 52.524C206.961 51.7027 207.915 51.292 209.035 51.292C210.358 51.292 211.366 51.82 212.059 52.876V48.3ZM209.211 58.364C210.022 58.364 210.699 58.092 211.243 57.548C211.787 56.9933 212.059 56.3107 212.059 55.5C212.059 54.6893 211.787 54.012 211.243 53.468C210.699 52.9133 210.022 52.636 209.211 52.636C208.411 52.636 207.739 52.9133 207.195 53.468C206.651 54.012 206.379 54.6893 206.379 55.5C206.379 56.3107 206.651 56.9933 207.195 57.548C207.739 58.092 208.411 58.364 209.211 58.364ZM217.016 56.14C217.155 56.8547 217.48 57.4093 217.992 57.804C218.515 58.1987 219.155 58.396 219.912 58.396C220.968 58.396 221.736 58.0067 222.216 57.228L223.4 57.9C222.622 59.1053 221.448 59.708 219.88 59.708C218.611 59.708 217.576 59.3133 216.776 58.524C215.987 57.724 215.592 56.716 215.592 55.5C215.592 54.2947 215.982 53.292 216.76 52.492C217.539 51.692 218.547 51.292 219.784 51.292C220.958 51.292 221.912 51.708 222.648 52.54C223.395 53.3613 223.768 54.3533 223.768 55.516C223.768 55.7187 223.752 55.9267 223.72 56.14H217.016ZM219.784 52.604C219.038 52.604 218.419 52.8173 217.928 53.244C217.438 53.66 217.134 54.22 217.016 54.924H222.36C222.243 54.1667 221.944 53.5907 221.464 53.196C220.984 52.8013 220.424 52.604 219.784 52.604ZM226.736 53.66C226.736 53.9693 226.891 54.22 227.2 54.412C227.509 54.5933 227.883 54.7427 228.32 54.86C228.757 54.9667 229.195 55.0947 229.632 55.244C230.069 55.3827 230.443 55.628 230.752 55.98C231.061 56.3213 231.216 56.764 231.216 57.308C231.216 58.0333 230.933 58.6147 230.368 59.052C229.813 59.4893 229.099 59.708 228.224 59.708C227.445 59.708 226.779 59.5373 226.224 59.196C225.669 58.8547 225.275 58.4013 225.04 57.836L226.24 57.148C226.368 57.532 226.608 57.836 226.96 58.06C227.312 58.284 227.733 58.396 228.224 58.396C228.683 58.396 229.061 58.3107 229.36 58.14C229.659 57.9587 229.808 57.6813 229.808 57.308C229.808 56.9987 229.653 56.7533 229.344 56.572C229.035 56.38 228.661 56.2307 228.224 56.124C227.787 56.0067 227.349 55.8733 226.912 55.724C226.475 55.5747 226.101 55.3293 225.792 54.988C225.483 54.6467 225.328 54.2093 225.328 53.676C225.328 52.9827 225.595 52.412 226.128 51.964C226.672 51.516 227.349 51.292 228.16 51.292C228.811 51.292 229.387 51.4413 229.888 51.74C230.4 52.028 230.784 52.4333 231.04 52.956L229.872 53.612C229.584 52.9293 229.013 52.588 228.16 52.588C227.765 52.588 227.429 52.684 227.152 52.876C226.875 53.0573 226.736 53.3187 226.736 53.66ZM236.885 59.708C235.68 59.708 234.677 59.308 233.877 58.508C233.077 57.6973 232.677 56.6947 232.677 55.5C232.677 54.3053 233.077 53.308 233.877 52.508C234.677 51.6973 235.68 51.292 236.885 51.292C237.675 51.292 238.384 51.484 239.013 51.868C239.643 52.2413 240.112 52.748 240.421 53.388L239.253 54.06C239.051 53.6333 238.736 53.292 238.309 53.036C237.893 52.78 237.419 52.652 236.885 52.652C236.085 52.652 235.413 52.924 234.869 53.468C234.336 54.012 234.069 54.6893 234.069 55.5C234.069 56.3 234.336 56.972 234.869 57.516C235.413 58.06 236.085 58.332 236.885 58.332C237.419 58.332 237.899 58.2093 238.325 57.964C238.752 57.708 239.077 57.3667 239.301 56.94L240.485 57.628C240.144 58.2573 239.653 58.764 239.013 59.148C238.373 59.5213 237.664 59.708 236.885 59.708ZM243.747 52.844C244.206 51.852 245.038 51.356 246.243 51.356V52.812C245.561 52.78 244.974 52.9613 244.483 53.356C243.993 53.7507 243.747 54.3853 243.747 55.26V59.5H242.355V51.5H243.747V52.844ZM248.789 50.044C248.523 50.044 248.299 49.9533 248.117 49.772C247.936 49.5907 247.845 49.372 247.845 49.116C247.845 48.86 247.936 48.6413 248.117 48.46C248.299 48.268 248.523 48.172 248.789 48.172C249.045 48.172 249.264 48.268 249.445 48.46C249.627 48.6413 249.717 48.86 249.717 49.116C249.717 49.372 249.627 49.5907 249.445 49.772C249.264 49.9533 249.045 50.044 248.789 50.044ZM248.085 59.5V51.5H249.477V59.5H248.085ZM256.497 51.292C257.617 51.292 258.572 51.7027 259.361 52.524C260.15 53.3347 260.545 54.3267 260.545 55.5C260.545 56.6733 260.15 57.6707 259.361 58.492C258.572 59.3027 257.617 59.708 256.497 59.708C255.174 59.708 254.166 59.18 253.473 58.124V59.5H252.081V48.3H253.473V52.876C254.166 51.82 255.174 51.292 256.497 51.292ZM256.321 58.364C257.121 58.364 257.793 58.092 258.337 57.548C258.881 56.9933 259.153 56.3107 259.153 55.5C259.153 54.6893 258.881 54.012 258.337 53.468C257.793 52.9133 257.121 52.636 256.321 52.636C255.51 52.636 254.833 52.9133 254.289 53.468C253.745 54.012 253.473 54.6893 253.473 55.5C253.473 56.3107 253.745 56.9933 254.289 57.548C254.833 58.092 255.51 58.364 256.321 58.364ZM263.662 56.14C263.801 56.8547 264.126 57.4093 264.638 57.804C265.161 58.1987 265.801 58.396 266.558 58.396C267.614 58.396 268.382 58.0067 268.862 57.228L270.046 57.9C269.267 59.1053 268.094 59.708 266.526 59.708C265.257 59.708 264.222 59.3133 263.422 58.524C262.633 57.724 262.238 56.716 262.238 55.5C262.238 54.2947 262.627 53.292 263.406 52.492C264.185 51.692 265.193 51.292 266.43 51.292C267.603 51.292 268.558 51.708 269.294 52.54C270.041 53.3613 270.414 54.3533 270.414 55.516C270.414 55.7187 270.398 55.9267 270.366 56.14H263.662ZM266.43 52.604C265.683 52.604 265.065 52.8173 264.574 53.244C264.083 53.66 263.779 54.22 263.662 54.924H269.006C268.889 54.1667 268.59 53.5907 268.11 53.196C267.63 52.8013 267.07 52.604 266.43 52.604ZM281.326 52.844H279.198V57.18C279.198 57.5747 279.273 57.8573 279.422 58.028C279.582 58.188 279.822 58.2733 280.142 58.284C280.462 58.284 280.857 58.2733 281.326 58.252V59.5C280.11 59.66 279.219 59.564 278.654 59.212C278.089 58.8493 277.806 58.172 277.806 57.18V52.844H276.222V51.5H277.806V49.676L279.198 49.26V51.5H281.326V52.844ZM287.438 51.292C288.377 51.292 289.129 51.5907 289.694 52.188C290.259 52.7747 290.542 53.5747 290.542 54.588V59.5H289.15V54.668C289.15 54.0173 288.974 53.516 288.622 53.164C288.27 52.8013 287.785 52.62 287.166 52.62C286.473 52.62 285.913 52.8387 285.486 53.276C285.059 53.7027 284.846 54.364 284.846 55.26V59.5H283.454V48.3H284.846V52.652C285.411 51.7453 286.275 51.292 287.438 51.292ZM293.669 50.044C293.403 50.044 293.179 49.9533 292.997 49.772C292.816 49.5907 292.725 49.372 292.725 49.116C292.725 48.86 292.816 48.6413 292.997 48.46C293.179 48.268 293.403 48.172 293.669 48.172C293.925 48.172 294.144 48.268 294.325 48.46C294.507 48.6413 294.597 48.86 294.597 49.116C294.597 49.372 294.507 49.5907 294.325 49.772C294.144 49.9533 293.925 50.044 293.669 50.044ZM292.965 59.5V51.5H294.357V59.5H292.965ZM298.145 53.66C298.145 53.9693 298.3 54.22 298.609 54.412C298.919 54.5933 299.292 54.7427 299.729 54.86C300.167 54.9667 300.604 55.0947 301.041 55.244C301.479 55.3827 301.852 55.628 302.161 55.98C302.471 56.3213 302.625 56.764 302.625 57.308C302.625 58.0333 302.343 58.6147 301.777 59.052C301.223 59.4893 300.508 59.708 299.633 59.708C298.855 59.708 298.188 59.5373 297.633 59.196C297.079 58.8547 296.684 58.4013 296.449 57.836L297.649 57.148C297.777 57.532 298.017 57.836 298.369 58.06C298.721 58.284 299.143 58.396 299.633 58.396C300.092 58.396 300.471 58.3107 300.769 58.14C301.068 57.9587 301.217 57.6813 301.217 57.308C301.217 56.9987 301.063 56.7533 300.753 56.572C300.444 56.38 300.071 56.2307 299.633 56.124C299.196 56.0067 298.759 55.8733 298.321 55.724C297.884 55.5747 297.511 55.3293 297.201 54.988C296.892 54.6467 296.737 54.2093 296.737 53.676C296.737 52.9827 297.004 52.412 297.537 51.964C298.081 51.516 298.759 51.292 299.569 51.292C300.22 51.292 300.796 51.4413 301.297 51.74C301.809 52.028 302.193 52.4333 302.449 52.956L301.281 53.612C300.993 52.9293 300.423 52.588 299.569 52.588C299.175 52.588 298.839 52.684 298.561 52.876C298.284 53.0573 298.145 53.3187 298.145 53.66ZM319.857 48.3V59.5H318.385V50.748L314.721 56.844H314.529L310.865 50.764V59.5H309.377V48.3H311.057L314.625 54.22L318.177 48.3H319.857ZM328.109 51.5H329.501V59.5H328.109V58.348C327.543 59.2547 326.679 59.708 325.517 59.708C324.578 59.708 323.826 59.4147 323.261 58.828C322.695 58.2307 322.413 57.4253 322.413 56.412V51.5H323.805V56.332C323.805 56.9827 323.981 57.4893 324.333 57.852C324.685 58.204 325.17 58.38 325.789 58.38C326.482 58.38 327.042 58.1667 327.469 57.74C327.895 57.3027 328.109 56.636 328.109 55.74V51.5ZM333.284 53.66C333.284 53.9693 333.439 54.22 333.748 54.412C334.057 54.5933 334.431 54.7427 334.868 54.86C335.305 54.9667 335.743 55.0947 336.18 55.244C336.617 55.3827 336.991 55.628 337.3 55.98C337.609 56.3213 337.764 56.764 337.764 57.308C337.764 58.0333 337.481 58.6147 336.916 59.052C336.361 59.4893 335.647 59.708 334.772 59.708C333.993 59.708 333.327 59.5373 332.772 59.196C332.217 58.8547 331.823 58.4013 331.588 57.836L332.788 57.148C332.916 57.532 333.156 57.836 333.508 58.06C333.86 58.284 334.281 58.396 334.772 58.396C335.231 58.396 335.609 58.3107 335.908 58.14C336.207 57.9587 336.356 57.6813 336.356 57.308C336.356 56.9987 336.201 56.7533 335.892 56.572C335.583 56.38 335.209 56.2307 334.772 56.124C334.335 56.0067 333.897 55.8733 333.46 55.724C333.023 55.5747 332.649 55.3293 332.34 54.988C332.031 54.6467 331.876 54.2093 331.876 53.676C331.876 52.9827 332.143 52.412 332.676 51.964C333.22 51.516 333.897 51.292 334.708 51.292C335.359 51.292 335.935 51.4413 336.436 51.74C336.948 52.028 337.332 52.4333 337.588 52.956L336.42 53.612C336.132 52.9293 335.561 52.588 334.708 52.588C334.313 52.588 333.977 52.684 333.7 52.876C333.423 53.0573 333.284 53.3187 333.284 53.66ZM340.518 50.044C340.251 50.044 340.027 49.9533 339.846 49.772C339.665 49.5907 339.574 49.372 339.574 49.116C339.574 48.86 339.665 48.6413 339.846 48.46C340.027 48.268 340.251 48.172 340.518 48.172C340.774 48.172 340.993 48.268 341.174 48.46C341.355 48.6413 341.446 48.86 341.446 49.116C341.446 49.372 341.355 49.5907 341.174 49.772C340.993 49.9533 340.774 50.044 340.518 50.044ZM339.814 59.5V51.5H341.206V59.5H339.814ZM347.57 59.708C346.364 59.708 345.362 59.308 344.562 58.508C343.762 57.6973 343.362 56.6947 343.362 55.5C343.362 54.3053 343.762 53.308 344.562 52.508C345.362 51.6973 346.364 51.292 347.57 51.292C348.359 51.292 349.068 51.484 349.698 51.868C350.327 52.2413 350.796 52.748 351.106 53.388L349.938 54.06C349.735 53.6333 349.42 53.292 348.994 53.036C348.578 52.78 348.103 52.652 347.57 52.652C346.77 52.652 346.098 52.924 345.554 53.468C345.02 54.012 344.754 54.6893 344.754 55.5C344.754 56.3 345.02 56.972 345.554 57.516C346.098 58.06 346.77 58.332 347.57 58.332C348.103 58.332 348.583 58.2093 349.01 57.964C349.436 57.708 349.762 57.3667 349.986 56.94L351.17 57.628C350.828 58.2573 350.338 58.764 349.698 59.148C349.058 59.5213 348.348 59.708 347.57 59.708ZM362.928 59.708C361.232 59.708 359.829 59.148 358.72 58.028C357.621 56.908 357.072 55.532 357.072 53.9C357.072 52.268 357.621 50.892 358.72 49.772C359.829 48.652 361.232 48.092 362.928 48.092C363.952 48.092 364.89 48.3373 365.744 48.828C366.608 49.3187 367.28 49.98 367.76 50.812L366.464 51.564C366.144 50.9453 365.664 50.4547 365.024 50.092C364.394 49.7187 363.696 49.532 362.928 49.532C361.637 49.532 360.581 49.948 359.76 50.78C358.949 51.612 358.544 52.652 358.544 53.9C358.544 55.1373 358.949 56.172 359.76 57.004C360.581 57.836 361.637 58.252 362.928 58.252C363.696 58.252 364.394 58.0707 365.024 57.708C365.664 57.3347 366.144 56.844 366.464 56.236L367.76 56.972C367.29 57.804 366.624 58.4707 365.76 58.972C364.896 59.4627 363.952 59.708 362.928 59.708ZM376.502 58.492C375.68 59.3027 374.683 59.708 373.51 59.708C372.336 59.708 371.339 59.3027 370.518 58.492C369.707 57.6813 369.302 56.684 369.302 55.5C369.302 54.316 369.707 53.3187 370.518 52.508C371.339 51.6973 372.336 51.292 373.51 51.292C374.683 51.292 375.68 51.6973 376.502 52.508C377.323 53.3187 377.734 54.316 377.734 55.5C377.734 56.684 377.323 57.6813 376.502 58.492ZM373.51 58.348C374.31 58.348 374.982 58.076 375.526 57.532C376.07 56.988 376.342 56.3107 376.342 55.5C376.342 54.6893 376.07 54.012 375.526 53.468C374.982 52.924 374.31 52.652 373.51 52.652C372.72 52.652 372.054 52.924 371.51 53.468C370.966 54.012 370.694 54.6893 370.694 55.5C370.694 56.3107 370.966 56.988 371.51 57.532C372.054 58.076 372.72 58.348 373.51 58.348ZM379.855 59.5V47.82H381.247V59.5H379.855ZM383.85 59.5V47.82H385.242V59.5H383.85ZM388.822 56.14C388.961 56.8547 389.286 57.4093 389.798 57.804C390.321 58.1987 390.961 58.396 391.718 58.396C392.774 58.396 393.542 58.0067 394.022 57.228L395.206 57.9C394.427 59.1053 393.254 59.708 391.686 59.708C390.417 59.708 389.382 59.3133 388.582 58.524C387.793 57.724 387.398 56.716 387.398 55.5C387.398 54.2947 387.787 53.292 388.566 52.492C389.345 51.692 390.353 51.292 391.59 51.292C392.763 51.292 393.718 51.708 394.454 52.54C395.201 53.3613 395.574 54.3533 395.574 55.516C395.574 55.7187 395.558 55.9267 395.526 56.14H388.822ZM391.59 52.604C390.843 52.604 390.225 52.8173 389.734 53.244C389.243 53.66 388.939 54.22 388.822 54.924H394.166C394.049 54.1667 393.75 53.5907 393.27 53.196C392.79 52.8013 392.23 52.604 391.59 52.604ZM401.398 59.708C400.193 59.708 399.19 59.308 398.39 58.508C397.59 57.6973 397.19 56.6947 397.19 55.5C397.19 54.3053 397.59 53.308 398.39 52.508C399.19 51.6973 400.193 51.292 401.398 51.292C402.188 51.292 402.897 51.484 403.526 51.868C404.156 52.2413 404.625 52.748 404.934 53.388L403.766 54.06C403.564 53.6333 403.249 53.292 402.822 53.036C402.406 52.78 401.932 52.652 401.398 52.652C400.598 52.652 399.926 52.924 399.382 53.468C398.849 54.012 398.582 54.6893 398.582 55.5C398.582 56.3 398.849 56.972 399.382 57.516C399.926 58.06 400.598 58.332 401.398 58.332C401.932 58.332 402.412 58.2093 402.838 57.964C403.265 57.708 403.59 57.3667 403.814 56.94L404.998 57.628C404.657 58.2573 404.166 58.764 403.526 59.148C402.886 59.5213 402.177 59.708 401.398 59.708ZM411.205 52.844H409.077V57.18C409.077 57.5747 409.152 57.8573 409.301 58.028C409.461 58.188 409.701 58.2733 410.021 58.284C410.341 58.284 410.736 58.2733 411.205 58.252V59.5C409.989 59.66 409.098 59.564 408.533 59.212C407.968 58.8493 407.685 58.172 407.685 57.18V52.844H406.101V51.5H407.685V49.676L409.077 49.26V51.5H411.205V52.844ZM419.551 51.5H420.943V59.5H419.551V58.124C418.857 59.18 417.849 59.708 416.527 59.708C415.407 59.708 414.452 59.3027 413.663 58.492C412.873 57.6707 412.479 56.6733 412.479 55.5C412.479 54.3267 412.873 53.3347 413.663 52.524C414.452 51.7027 415.407 51.292 416.527 51.292C417.849 51.292 418.857 51.82 419.551 52.876V51.5ZM416.703 58.364C417.513 58.364 418.191 58.092 418.735 57.548C419.279 56.9933 419.551 56.3107 419.551 55.5C419.551 54.6893 419.279 54.012 418.735 53.468C418.191 52.9133 417.513 52.636 416.703 52.636C415.903 52.636 415.231 52.9133 414.687 53.468C414.143 54.012 413.871 54.6893 413.871 55.5C413.871 56.3107 414.143 56.9933 414.687 57.548C415.231 58.092 415.903 58.364 416.703 58.364ZM427.948 51.292C429.068 51.292 430.022 51.7027 430.812 52.524C431.601 53.3347 431.996 54.3267 431.996 55.5C431.996 56.6733 431.601 57.6707 430.812 58.492C430.022 59.3027 429.068 59.708 427.948 59.708C426.625 59.708 425.617 59.18 424.924 58.124V59.5H423.532V48.3H424.924V52.876C425.617 51.82 426.625 51.292 427.948 51.292ZM427.772 58.364C428.572 58.364 429.244 58.092 429.788 57.548C430.332 56.9933 430.604 56.3107 430.604 55.5C430.604 54.6893 430.332 54.012 429.788 53.468C429.244 52.9133 428.572 52.636 427.772 52.636C426.961 52.636 426.284 52.9133 425.74 53.468C425.196 54.012 424.924 54.6893 424.924 55.5C424.924 56.3107 425.196 56.9933 425.74 57.548C426.284 58.092 426.961 58.364 427.772 58.364ZM434.137 59.5V47.82H435.529V59.5H434.137ZM439.108 56.14C439.247 56.8547 439.572 57.4093 440.084 57.804C440.607 58.1987 441.247 58.396 442.004 58.396C443.06 58.396 443.828 58.0067 444.308 57.228L445.492 57.9C444.714 59.1053 443.54 59.708 441.972 59.708C440.703 59.708 439.668 59.3133 438.868 58.524C438.079 57.724 437.684 56.716 437.684 55.5C437.684 54.2947 438.074 53.292 438.852 52.492C439.631 51.692 440.639 51.292 441.876 51.292C443.05 51.292 444.004 51.708 444.74 52.54C445.487 53.3613 445.86 54.3533 445.86 55.516C445.86 55.7187 445.844 55.9267 445.812 56.14H439.108ZM441.876 52.604C441.13 52.604 440.511 52.8173 440.02 53.244C439.53 53.66 439.226 54.22 439.108 54.924H444.452C444.335 54.1667 444.036 53.5907 443.556 53.196C443.076 52.8013 442.516 52.604 441.876 52.604ZM454.644 56.22C454.644 55.7507 454.746 55.3133 454.948 54.908C455.151 54.5027 455.396 54.156 455.684 53.868C455.972 53.58 456.26 53.308 456.548 53.052C456.836 52.7853 457.082 52.4973 457.284 52.188C457.487 51.868 457.588 51.532 457.588 51.18C457.588 50.6467 457.402 50.2413 457.028 49.964C456.666 49.676 456.191 49.532 455.604 49.532C454.431 49.532 453.679 50.0493 453.348 51.084L452.084 50.38C452.351 49.6333 452.804 49.068 453.444 48.684C454.084 48.2893 454.81 48.092 455.62 48.092C456.57 48.092 457.38 48.3587 458.052 48.892C458.735 49.4253 459.076 50.1667 459.076 51.116C459.076 51.564 458.975 51.9853 458.772 52.38C458.57 52.7747 458.324 53.116 458.036 53.404C457.748 53.692 457.46 53.9747 457.172 54.252C456.884 54.5187 456.639 54.8227 456.436 55.164C456.234 55.4947 456.132 55.8467 456.132 56.22H454.644ZM455.38 59.676C455.092 59.676 454.847 59.5747 454.644 59.372C454.442 59.1693 454.34 58.924 454.34 58.636C454.34 58.348 454.442 58.1027 454.644 57.9C454.847 57.6973 455.092 57.596 455.38 57.596C455.679 57.596 455.924 57.6973 456.116 57.9C456.319 58.1027 456.42 58.348 456.42 58.636C456.42 58.924 456.319 59.1693 456.116 59.372C455.924 59.5747 455.679 59.676 455.38 59.676Z" fill="#293341"/>
<path d="M570.349 150.667L573.985 146.333" stroke="#1A79E8" stroke-width="0.8"/>
<path d="M566 150.5L573 142.5" stroke="#1A79E8" stroke-width="0.8"/>
</svg>
