<svg width="24" height="25" viewBox="0 0 24 25" fill="none" xmlns="http://www.w3.org/2000/svg">
<g clip-path="url(#clip0_3_2590)">
<path d="M1 4.5V10.5H7" stroke="#293341" stroke-width="2" stroke-linecap="round" stroke-linejoin="round"/>
<path d="M23 20.5V14.5H17" stroke="#293341" stroke-width="2" stroke-linecap="round" stroke-linejoin="round"/>
<path d="M20.49 9.49995C19.9828 8.06674 19.1209 6.78536 17.9845 5.77537C16.8482 4.76539 15.4745 4.05972 13.9917 3.72421C12.5089 3.3887 10.9652 3.43429 9.50481 3.85673C8.04437 4.27916 6.71475 5.06467 5.64 6.13995L1 10.5M23 14.5L18.36 18.86C17.2853 19.9352 15.9556 20.7207 14.4952 21.1432C13.0348 21.5656 11.4911 21.6112 10.0083 21.2757C8.52547 20.9402 7.1518 20.2345 6.01547 19.2245C4.87913 18.2145 4.01717 16.9332 3.51 15.5" stroke="#293341" stroke-width="2" stroke-linecap="round" stroke-linejoin="round"/>
</g>
<defs>
<clipPath id="clip0_3_2590">
<rect width="24" height="24" fill="white" transform="translate(0 0.5)"/>
</clipPath>
</defs>
</svg>
