<svg width="578" height="45" viewBox="0 0 578 45" fill="none" xmlns="http://www.w3.org/2000/svg">
<path d="M8.19 31.7L4.648 37.482V41.5H3.668V37.454L0.14 31.7H1.246L4.172 36.502L7.084 31.7H8.19ZM14.1976 40.618C13.4883 41.318 12.6203 41.668 11.5936 41.668C10.567 41.668 9.69431 41.318 8.97564 40.618C8.26631 39.9087 7.91164 39.036 7.91164 38C7.91164 36.964 8.26631 36.096 8.97564 35.396C9.69431 34.6867 10.567 34.332 11.5936 34.332C12.6203 34.332 13.4883 34.6867 14.1976 35.396C14.9163 36.096 15.2756 36.964 15.2756 38C15.2756 39.036 14.9163 39.9087 14.1976 40.618ZM9.63364 39.974C10.1656 40.506 10.819 40.772 11.5936 40.772C12.3683 40.772 13.0216 40.506 13.5536 39.974C14.0856 39.4327 14.3516 38.7747 14.3516 38C14.3516 37.2253 14.0856 36.572 13.5536 36.04C13.0216 35.4987 12.3683 35.228 11.5936 35.228C10.819 35.228 10.1656 35.4987 9.63364 36.04C9.10164 36.572 8.83564 37.2253 8.83564 38C8.83564 38.7747 9.10164 39.4327 9.63364 39.974ZM22.1699 34.5H23.0939V41.5H22.1699V40.408C21.6472 41.248 20.8632 41.668 19.8179 41.668C18.9685 41.668 18.2965 41.4113 17.8019 40.898C17.3165 40.3753 17.0739 39.6753 17.0739 38.798V34.5H17.9979V38.798C17.9979 39.4233 18.1612 39.9087 18.4879 40.254C18.8239 40.5993 19.2952 40.772 19.9019 40.772C20.5739 40.772 21.1199 40.562 21.5399 40.142C21.9599 39.7127 22.1699 39.0547 22.1699 38.168V34.5ZM27.0085 31.7L26.1685 34.85H25.3285L25.8885 31.7H27.0085ZM29.2518 41.5V31.28H30.1758V41.5H29.2518ZM32.5566 41.5V31.28H33.4806V41.5H32.5566ZM40.7053 35.662C41.1347 34.8127 41.872 34.388 42.9173 34.388V35.284C42.2827 35.284 41.7553 35.4707 41.3353 35.844C40.9153 36.2173 40.7053 36.8053 40.7053 37.608V41.5H39.7813V34.5H40.7053V35.662ZM47.4138 34.332C48.4498 34.332 49.2852 34.7007 49.9198 35.438C50.5638 36.166 50.8858 37.0293 50.8858 38.028C50.8858 38.1307 50.8765 38.2753 50.8578 38.462H44.7118C44.8052 39.1713 45.1038 39.736 45.6078 40.156C46.1212 40.5667 46.7512 40.772 47.4978 40.772C48.0298 40.772 48.4872 40.6647 48.8698 40.45C49.2618 40.226 49.5558 39.9367 49.7518 39.582L50.5638 40.058C50.2558 40.5527 49.8358 40.9447 49.3038 41.234C48.7718 41.5233 48.1652 41.668 47.4838 41.668C46.3825 41.668 45.4865 41.3227 44.7958 40.632C44.1052 39.9413 43.7598 39.064 43.7598 38C43.7598 36.9547 44.1005 36.082 44.7818 35.382C45.4632 34.682 46.3405 34.332 47.4138 34.332ZM47.4138 35.228C46.6858 35.228 46.0745 35.4473 45.5798 35.886C45.0945 36.3153 44.8052 36.8753 44.7118 37.566H49.9338C49.8405 36.8287 49.5558 36.2547 49.0798 35.844C48.6038 35.4333 48.0485 35.228 47.4138 35.228ZM56.0376 41.668C54.983 41.668 54.1056 41.318 53.4056 40.618C52.7056 39.9087 52.3556 39.036 52.3556 38C52.3556 36.964 52.7056 36.096 53.4056 35.396C54.1056 34.6867 54.983 34.332 56.0376 34.332C56.7283 34.332 57.349 34.5 57.8996 34.836C58.4503 35.1627 58.8516 35.606 59.1036 36.166L58.3476 36.6C58.161 36.18 57.8576 35.8487 57.4376 35.606C57.027 35.354 56.5603 35.228 56.0376 35.228C55.263 35.228 54.6096 35.4987 54.0776 36.04C53.5456 36.572 53.2796 37.2253 53.2796 38C53.2796 38.7747 53.5456 39.4327 54.0776 39.974C54.6096 40.506 55.263 40.772 56.0376 40.772C56.5603 40.772 57.027 40.6507 57.4376 40.408C57.8483 40.156 58.1703 39.82 58.4036 39.4L59.1736 39.848C58.8843 40.408 58.4596 40.8513 57.8996 41.178C57.3396 41.5047 56.719 41.668 56.0376 41.668ZM64.0859 34.332C65.1219 34.332 65.9572 34.7007 66.5919 35.438C67.2359 36.166 67.5579 37.0293 67.5579 38.028C67.5579 38.1307 67.5485 38.2753 67.5299 38.462H61.3839C61.4772 39.1713 61.7759 39.736 62.2799 40.156C62.7932 40.5667 63.4232 40.772 64.1699 40.772C64.7019 40.772 65.1592 40.6647 65.5419 40.45C65.9339 40.226 66.2279 39.9367 66.4239 39.582L67.2359 40.058C66.9279 40.5527 66.5079 40.9447 65.9759 41.234C65.4439 41.5233 64.8372 41.668 64.1559 41.668C63.0545 41.668 62.1585 41.3227 61.4679 40.632C60.7772 39.9413 60.4319 39.064 60.4319 38C60.4319 36.9547 60.7725 36.082 61.4539 35.382C62.1352 34.682 63.0125 34.332 64.0859 34.332ZM64.0859 35.228C63.3579 35.228 62.7465 35.4473 62.2519 35.886C61.7665 36.3153 61.4772 36.8753 61.3839 37.566H66.6059C66.5125 36.8287 66.2279 36.2547 65.7519 35.844C65.2759 35.4333 64.7205 35.228 64.0859 35.228ZM70.3857 32.82C70.255 32.9507 70.0963 33.016 69.9097 33.016C69.723 33.016 69.5643 32.9507 69.4337 32.82C69.303 32.6893 69.2377 32.5307 69.2377 32.344C69.2377 32.1573 69.303 31.9987 69.4337 31.868C69.5643 31.7373 69.723 31.672 69.9097 31.672C70.0963 31.672 70.255 31.7373 70.3857 31.868C70.5163 31.9987 70.5817 32.1573 70.5817 32.344C70.5817 32.5307 70.5163 32.6893 70.3857 32.82ZM69.4477 41.5V34.5H70.3717V41.5H69.4477ZM77.7924 34.5H78.7724L75.9024 41.5H74.7824L71.9124 34.5H72.8924L75.3424 40.534L77.7924 34.5ZM83.2697 34.332C84.3057 34.332 85.141 34.7007 85.7757 35.438C86.4197 36.166 86.7417 37.0293 86.7417 38.028C86.7417 38.1307 86.7324 38.2753 86.7137 38.462H80.5677C80.661 39.1713 80.9597 39.736 81.4637 40.156C81.977 40.5667 82.607 40.772 83.3537 40.772C83.8857 40.772 84.343 40.6647 84.7257 40.45C85.1177 40.226 85.4117 39.9367 85.6077 39.582L86.4197 40.058C86.1117 40.5527 85.6917 40.9447 85.1597 41.234C84.6277 41.5233 84.021 41.668 83.3397 41.668C82.2384 41.668 81.3424 41.3227 80.6517 40.632C79.961 39.9413 79.6157 39.064 79.6157 38C79.6157 36.9547 79.9564 36.082 80.6377 35.382C81.319 34.682 82.1964 34.332 83.2697 34.332ZM83.2697 35.228C82.5417 35.228 81.9304 35.4473 81.4357 35.886C80.9504 36.3153 80.661 36.8753 80.5677 37.566H85.7897C85.6964 36.8287 85.4117 36.2547 84.9357 35.844C84.4597 35.4333 83.9044 35.228 83.2697 35.228ZM96.3035 34.332C97.3022 34.332 98.1515 34.6867 98.8515 35.396C99.5608 36.1053 99.9155 36.9733 99.9155 38C99.9155 39.0267 99.5608 39.8947 98.8515 40.604C98.1515 41.3133 97.3022 41.668 96.3035 41.668C95.0622 41.668 94.1195 41.1547 93.4755 40.128V41.5H92.5515V31.7H93.4755V35.872C94.1195 34.8453 95.0622 34.332 96.3035 34.332ZM94.2735 39.974C94.8055 40.506 95.4588 40.772 96.2335 40.772C97.0082 40.772 97.6615 40.506 98.1935 39.974C98.7255 39.4327 98.9915 38.7747 98.9915 38C98.9915 37.2253 98.7255 36.572 98.1935 36.04C97.6615 35.4987 97.0082 35.228 96.2335 35.228C95.4588 35.228 94.8055 35.4987 94.2735 36.04C93.7415 36.572 93.4755 37.2253 93.4755 38C93.4755 38.7747 93.7415 39.4327 94.2735 39.974ZM102.81 32.82C102.679 32.9507 102.521 33.016 102.334 33.016C102.147 33.016 101.989 32.9507 101.858 32.82C101.727 32.6893 101.662 32.5307 101.662 32.344C101.662 32.1573 101.727 31.9987 101.858 31.868C101.989 31.7373 102.147 31.672 102.334 31.672C102.521 31.672 102.679 31.7373 102.81 31.868C102.941 31.9987 103.006 32.1573 103.006 32.344C103.006 32.5307 102.941 32.6893 102.81 32.82ZM101.872 41.5V34.5H102.796V41.5H101.872ZM111.197 31.7H112.121V41.5H111.197V40.128C110.553 41.1547 109.61 41.668 108.369 41.668C107.37 41.668 106.516 41.3133 105.807 40.604C105.107 39.8947 104.757 39.0267 104.757 38C104.757 36.9733 105.107 36.1053 105.807 35.396C106.516 34.6867 107.37 34.332 108.369 34.332C109.61 34.332 110.553 34.8453 111.197 35.872V31.7ZM106.479 39.974C107.011 40.506 107.664 40.772 108.439 40.772C109.213 40.772 109.867 40.506 110.399 39.974C110.931 39.4327 111.197 38.7747 111.197 38C111.197 37.2253 110.931 36.572 110.399 36.04C109.867 35.4987 109.213 35.228 108.439 35.228C107.664 35.228 107.011 35.4987 106.479 36.04C105.947 36.572 105.681 37.2253 105.681 38C105.681 38.7747 105.947 39.4327 106.479 39.974ZM115.225 36.334C115.225 36.6513 115.365 36.9033 115.645 37.09C115.925 37.2767 116.266 37.4213 116.667 37.524C117.068 37.6267 117.47 37.7433 117.871 37.874C118.272 37.9953 118.613 38.2053 118.893 38.504C119.173 38.7933 119.313 39.176 119.313 39.652C119.313 40.2493 119.075 40.7347 118.599 41.108C118.132 41.4813 117.526 41.668 116.779 41.668C116.107 41.668 115.533 41.5187 115.057 41.22C114.59 40.9213 114.264 40.534 114.077 40.058L114.861 39.596C114.992 39.96 115.225 40.2493 115.561 40.464C115.906 40.6693 116.312 40.772 116.779 40.772C117.236 40.772 117.619 40.6833 117.927 40.506C118.235 40.3193 118.389 40.0347 118.389 39.652C118.389 39.3347 118.249 39.0827 117.969 38.896C117.689 38.7093 117.348 38.5647 116.947 38.462C116.546 38.3593 116.144 38.2473 115.743 38.126C115.342 37.9953 115.001 37.7853 114.721 37.496C114.441 37.1973 114.301 36.81 114.301 36.334C114.301 35.7647 114.525 35.2887 114.973 34.906C115.43 34.5233 116.004 34.332 116.695 34.332C117.264 34.332 117.764 34.4627 118.193 34.724C118.622 34.976 118.94 35.3213 119.145 35.76L118.375 36.208C118.104 35.5547 117.544 35.228 116.695 35.228C116.294 35.228 115.948 35.326 115.659 35.522C115.37 35.7087 115.225 35.9793 115.225 36.334ZM131.06 40.618C130.351 41.318 129.483 41.668 128.456 41.668C127.43 41.668 126.557 41.318 125.838 40.618C125.129 39.9087 124.774 39.036 124.774 38C124.774 36.964 125.129 36.096 125.838 35.396C126.557 34.6867 127.43 34.332 128.456 34.332C129.483 34.332 130.351 34.6867 131.06 35.396C131.779 36.096 132.138 36.964 132.138 38C132.138 39.036 131.779 39.9087 131.06 40.618ZM126.496 39.974C127.028 40.506 127.682 40.772 128.456 40.772C129.231 40.772 129.884 40.506 130.416 39.974C130.948 39.4327 131.214 38.7747 131.214 38C131.214 37.2253 130.948 36.572 130.416 36.04C129.884 35.4987 129.231 35.228 128.456 35.228C127.682 35.228 127.028 35.4987 126.496 36.04C125.964 36.572 125.698 37.2253 125.698 38C125.698 38.7747 125.964 39.4327 126.496 39.974ZM137.381 34.332C138.23 34.332 138.897 34.5933 139.383 35.116C139.877 35.6293 140.125 36.3247 140.125 37.202V41.5H139.201V37.202C139.201 36.5767 139.033 36.0913 138.697 35.746C138.37 35.4007 137.903 35.228 137.297 35.228C136.625 35.228 136.079 35.4427 135.659 35.872C135.239 36.292 135.029 36.9453 135.029 37.832V41.5H134.105V34.5H135.029V35.592C135.551 34.752 136.335 34.332 137.381 34.332ZM149.961 35.396H147.945V39.638C147.945 40.0207 148.02 40.296 148.169 40.464C148.319 40.6227 148.543 40.7067 148.841 40.716C149.14 40.716 149.513 40.7067 149.961 40.688V41.5C148.981 41.6493 148.244 41.5793 147.749 41.29C147.264 41.0007 147.021 40.45 147.021 39.638V35.396H145.551V34.5H147.021V32.82L147.945 32.54V34.5H149.961V35.396ZM155.197 34.332C156.047 34.332 156.714 34.5933 157.199 35.116C157.694 35.6293 157.941 36.3247 157.941 37.202V41.5H157.017V37.202C157.017 36.5767 156.849 36.0913 156.513 35.746C156.187 35.4007 155.72 35.228 155.113 35.228C154.441 35.228 153.895 35.4427 153.475 35.872C153.055 36.292 152.845 36.9453 152.845 37.832V41.5H151.921V31.7H152.845V35.592C153.368 34.752 154.152 34.332 155.197 34.332ZM161.086 32.82C160.955 32.9507 160.797 33.016 160.61 33.016C160.423 33.016 160.265 32.9507 160.134 32.82C160.003 32.6893 159.938 32.5307 159.938 32.344C159.938 32.1573 160.003 31.9987 160.134 31.868C160.265 31.7373 160.423 31.672 160.61 31.672C160.797 31.672 160.955 31.7373 161.086 31.868C161.217 31.9987 161.282 32.1573 161.282 32.344C161.282 32.5307 161.217 32.6893 161.086 32.82ZM160.148 41.5V34.5H161.072V41.5H160.148ZM164.181 36.334C164.181 36.6513 164.321 36.9033 164.601 37.09C164.881 37.2767 165.221 37.4213 165.623 37.524C166.024 37.6267 166.425 37.7433 166.827 37.874C167.228 37.9953 167.569 38.2053 167.849 38.504C168.129 38.7933 168.269 39.176 168.269 39.652C168.269 40.2493 168.031 40.7347 167.555 41.108C167.088 41.4813 166.481 41.668 165.735 41.668C165.063 41.668 164.489 41.5187 164.013 41.22C163.546 40.9213 163.219 40.534 163.033 40.058L163.817 39.596C163.947 39.96 164.181 40.2493 164.517 40.464C164.862 40.6693 165.268 40.772 165.735 40.772C166.192 40.772 166.575 40.6833 166.883 40.506C167.191 40.3193 167.345 40.0347 167.345 39.652C167.345 39.3347 167.205 39.0827 166.925 38.896C166.645 38.7093 166.304 38.5647 165.903 38.462C165.501 38.3593 165.1 38.2473 164.699 38.126C164.297 37.9953 163.957 37.7853 163.677 37.496C163.397 37.1973 163.257 36.81 163.257 36.334C163.257 35.7647 163.481 35.2887 163.929 34.906C164.386 34.5233 164.96 34.332 165.651 34.332C166.22 34.332 166.719 34.4627 167.149 34.724C167.578 34.976 167.895 35.3213 168.101 35.76L167.331 36.208C167.06 35.5547 166.5 35.228 165.651 35.228C165.249 35.228 164.904 35.326 164.615 35.522C164.325 35.7087 164.181 35.9793 164.181 36.334ZM175.088 32.82C174.957 32.9507 174.799 33.016 174.612 33.016C174.425 33.016 174.267 32.9507 174.136 32.82C174.005 32.6893 173.94 32.5307 173.94 32.344C173.94 32.1573 174.005 31.9987 174.136 31.868C174.267 31.7373 174.425 31.672 174.612 31.672C174.799 31.672 174.957 31.7373 175.088 31.868C175.219 31.9987 175.284 32.1573 175.284 32.344C175.284 32.5307 175.219 32.6893 175.088 32.82ZM174.15 41.5V34.5H175.074V41.5H174.15ZM181.165 35.396H179.149V39.638C179.149 40.0207 179.224 40.296 179.373 40.464C179.522 40.6227 179.746 40.7067 180.045 40.716C180.344 40.716 180.717 40.7067 181.165 40.688V41.5C180.185 41.6493 179.448 41.5793 178.953 41.29C178.468 41.0007 178.225 40.45 178.225 39.638V35.396H176.755V34.5H178.225V32.82L179.149 32.54V34.5H181.165V35.396ZM185.935 34.332C186.971 34.332 187.806 34.7007 188.441 35.438C189.085 36.166 189.407 37.0293 189.407 38.028C189.407 38.1307 189.398 38.2753 189.379 38.462H183.233C183.326 39.1713 183.625 39.736 184.129 40.156C184.642 40.5667 185.272 40.772 186.019 40.772C186.551 40.772 187.008 40.6647 187.391 40.45C187.783 40.226 188.077 39.9367 188.273 39.582L189.085 40.058C188.777 40.5527 188.357 40.9447 187.825 41.234C187.293 41.5233 186.686 41.668 186.005 41.668C184.904 41.668 184.008 41.3227 183.317 40.632C182.626 39.9413 182.281 39.064 182.281 38C182.281 36.9547 182.622 36.082 183.303 35.382C183.984 34.682 184.862 34.332 185.935 34.332ZM185.935 35.228C185.207 35.228 184.596 35.4473 184.101 35.886C183.616 36.3153 183.326 36.8753 183.233 37.566H188.455C188.362 36.8287 188.077 36.2547 187.601 35.844C187.125 35.4333 186.57 35.228 185.935 35.228ZM198.759 34.332C199.543 34.332 200.173 34.584 200.649 35.088C201.134 35.592 201.377 36.2733 201.377 37.132V41.5H200.453V37.132C200.453 36.5253 200.294 36.0587 199.977 35.732C199.669 35.396 199.258 35.228 198.745 35.228C198.166 35.228 197.695 35.424 197.331 35.816C196.976 36.1987 196.799 36.8007 196.799 37.622V41.5H195.875V37.132C195.875 36.516 195.726 36.0447 195.427 35.718C195.138 35.3913 194.741 35.228 194.237 35.228C193.677 35.228 193.201 35.424 192.809 35.816C192.417 36.208 192.221 36.81 192.221 37.622V41.5H191.297V34.5H192.221V35.522C192.725 34.7287 193.439 34.332 194.363 34.332C195.371 34.332 196.08 34.7567 196.491 35.606C196.995 34.7567 197.751 34.332 198.759 34.332Z" fill="#465364"/>
<path d="M5.264 6.3C6.29867 6.3 7.15733 6.64667 7.84 7.34C8.53333 8.02267 8.88 8.876 8.88 9.9C8.88 10.9133 8.53333 11.7667 7.84 12.46C7.15733 13.1533 6.29867 13.5 5.264 13.5H2.688V17.5H1.2V6.3H5.264ZM5.264 12.108C5.88267 12.108 6.39467 11.9 6.8 11.484C7.20533 11.0573 7.408 10.5293 7.408 9.9C7.408 9.26 7.20533 8.732 6.8 8.316C6.39467 7.9 5.88267 7.692 5.264 7.692H2.688V12.108H5.264ZM16.4935 9.5H17.8855V17.5H16.4935V16.348C15.9282 17.2547 15.0642 17.708 13.9015 17.708C12.9628 17.708 12.2108 17.4147 11.6455 16.828C11.0802 16.2307 10.7975 15.4253 10.7975 14.412V9.5H12.1895V14.332C12.1895 14.9827 12.3655 15.4893 12.7175 15.852C13.0695 16.204 13.5548 16.38 14.1735 16.38C14.8668 16.38 15.4268 16.1667 15.8535 15.74C16.2802 15.3027 16.4935 14.636 16.4935 13.74V9.5ZM24.8367 10.844H22.7087V15.18C22.7087 15.5747 22.7834 15.8573 22.9327 16.028C23.0927 16.188 23.3327 16.2733 23.6527 16.284C23.9727 16.284 24.3674 16.2733 24.8367 16.252V17.5C23.6207 17.66 22.7301 17.564 22.1647 17.212C21.5994 16.8493 21.3167 16.172 21.3167 15.18V10.844H19.7327V9.5H21.3167V7.676L22.7087 7.26V9.5H24.8367V10.844ZM38.2436 16.492C37.4223 17.3027 36.425 17.708 35.2516 17.708C34.0783 17.708 33.081 17.3027 32.2596 16.492C31.449 15.6813 31.0436 14.684 31.0436 13.5C31.0436 12.316 31.449 11.3187 32.2596 10.508C33.081 9.69733 34.0783 9.292 35.2516 9.292C36.425 9.292 37.4223 9.69733 38.2436 10.508C39.065 11.3187 39.4756 12.316 39.4756 13.5C39.4756 14.684 39.065 15.6813 38.2436 16.492ZM35.2516 16.348C36.0516 16.348 36.7236 16.076 37.2676 15.532C37.8116 14.988 38.0836 14.3107 38.0836 13.5C38.0836 12.6893 37.8116 12.012 37.2676 11.468C36.7236 10.924 36.0516 10.652 35.2516 10.652C34.4623 10.652 33.7956 10.924 33.2516 11.468C32.7076 12.012 32.4356 12.6893 32.4356 13.5C32.4356 14.3107 32.7076 14.988 33.2516 15.532C33.7956 16.076 34.4623 16.348 35.2516 16.348ZM45.5806 9.292C46.5193 9.292 47.2713 9.59067 47.8366 10.188C48.402 10.7747 48.6846 11.5747 48.6846 12.588V17.5H47.2926V12.668C47.2926 12.0173 47.1166 11.516 46.7646 11.164C46.4126 10.8013 45.9273 10.62 45.3086 10.62C44.6153 10.62 44.0553 10.8387 43.6286 11.276C43.202 11.7027 42.9886 12.364 42.9886 13.26V17.5H41.5966V9.5H42.9886V10.652C43.554 9.74533 44.418 9.292 45.5806 9.292ZM56.7879 11.66C56.7879 11.9693 56.9425 12.22 57.2519 12.412C57.5612 12.5933 57.9345 12.7427 58.3719 12.86C58.8092 12.9667 59.2465 13.0947 59.6839 13.244C60.1212 13.3827 60.4945 13.628 60.8039 13.98C61.1132 14.3213 61.2679 14.764 61.2679 15.308C61.2679 16.0333 60.9852 16.6147 60.4199 17.052C59.8652 17.4893 59.1505 17.708 58.2759 17.708C57.4972 17.708 56.8305 17.5373 56.2759 17.196C55.7212 16.8547 55.3265 16.4013 55.0919 15.836L56.2919 15.148C56.4199 15.532 56.6599 15.836 57.0119 16.06C57.3639 16.284 57.7852 16.396 58.2759 16.396C58.7345 16.396 59.1132 16.3107 59.4119 16.14C59.7105 15.9587 59.8599 15.6813 59.8599 15.308C59.8599 14.9987 59.7052 14.7533 59.3959 14.572C59.0865 14.38 58.7132 14.2307 58.2759 14.124C57.8385 14.0067 57.4012 13.8733 56.9639 13.724C56.5265 13.5747 56.1532 13.3293 55.8439 12.988C55.5345 12.6467 55.3799 12.2093 55.3799 11.676C55.3799 10.9827 55.6465 10.412 56.1799 9.964C56.7239 9.516 57.4012 9.292 58.2119 9.292C58.8625 9.292 59.4385 9.44133 59.9399 9.74C60.4519 10.028 60.8359 10.4333 61.0919 10.956L59.9239 11.612C59.6359 10.9293 59.0652 10.588 58.2119 10.588C57.8172 10.588 57.4812 10.684 57.2039 10.876C56.9265 11.0573 56.7879 11.3187 56.7879 11.66ZM69.8013 9.5H71.1933V17.5H69.8013V16.124C69.1079 17.18 68.0999 17.708 66.7773 17.708C65.6573 17.708 64.7026 17.3027 63.9133 16.492C63.1239 15.6707 62.7293 14.6733 62.7293 13.5C62.7293 12.3267 63.1239 11.3347 63.9133 10.524C64.7026 9.70267 65.6573 9.292 66.7773 9.292C68.0999 9.292 69.1079 9.82 69.8013 10.876V9.5ZM66.9533 16.364C67.7639 16.364 68.4413 16.092 68.9853 15.548C69.5293 14.9933 69.8013 14.3107 69.8013 13.5C69.8013 12.6893 69.5293 12.012 68.9853 11.468C68.4413 10.9133 67.7639 10.636 66.9533 10.636C66.1533 10.636 65.4813 10.9133 64.9373 11.468C64.3933 12.012 64.1213 12.6893 64.1213 13.5C64.1213 14.3107 64.3933 14.9933 64.9373 15.548C65.4813 16.092 66.1533 16.364 66.9533 16.364ZM73.7822 17.5V5.82H75.1742V17.5H73.7822ZM78.7539 14.14C78.8925 14.8547 79.2179 15.4093 79.7299 15.804C80.2525 16.1987 80.8925 16.396 81.6499 16.396C82.7059 16.396 83.4739 16.0067 83.9539 15.228L85.1379 15.9C84.3592 17.1053 83.1859 17.708 81.6179 17.708C80.3485 17.708 79.3139 17.3133 78.5139 16.524C77.7245 15.724 77.3299 14.716 77.3299 13.5C77.3299 12.2947 77.7192 11.292 78.4979 10.492C79.2765 9.692 80.2845 9.292 81.5219 9.292C82.6952 9.292 83.6499 9.708 84.3859 10.54C85.1325 11.3613 85.5059 12.3533 85.5059 13.516C85.5059 13.7187 85.4899 13.9267 85.4579 14.14H78.7539ZM81.5219 10.604C80.7752 10.604 80.1565 10.8173 79.6659 11.244C79.1752 11.66 78.8712 12.22 78.7539 12.924H84.0979C83.9805 12.1667 83.6819 11.5907 83.2019 11.196C82.7219 10.8013 82.1619 10.604 81.5219 10.604Z" fill="#293341"/>
<path d="M532.5 22.5C532.5 15.5964 538.096 10 545 10H565C571.904 10 577.5 15.5964 577.5 22.5C577.5 29.4036 571.904 35 565 35H545C538.096 35 532.5 29.4036 532.5 22.5Z" fill="white" stroke="#465364"/>
<path fill-rule="evenodd" clip-rule="evenodd" d="M537 22.5C537 18.0817 540.582 14.5 545 14.5C549.418 14.5 553 18.0817 553 22.5C553 26.9183 549.418 30.5 545 30.5C540.582 30.5 537 26.9183 537 22.5Z" fill="#465364"/>
</svg>
