<svg width="580" height="68" viewBox="0 0 580 68" fill="none" xmlns="http://www.w3.org/2000/svg">
<path d="M6.86 12.5L4.662 8.748H2.352V12.5H1.05V2.7H4.97C5.81 2.7 6.52867 2.99867 7.126 3.596C7.72333 4.184 8.022 4.898 8.022 5.738C8.022 6.37267 7.83067 6.95133 7.448 7.474C7.07467 7.99667 6.58933 8.36533 5.992 8.58L8.302 12.5H6.86ZM2.352 3.918V7.572H4.97C5.45533 7.572 5.866 7.39467 6.202 7.04C6.54733 6.676 6.72 6.242 6.72 5.738C6.72 5.234 6.54733 4.80467 6.202 4.45C5.866 4.09533 5.45533 3.918 4.97 3.918H2.352ZM15.4551 11.618C14.7365 12.3273 13.8638 12.682 12.8371 12.682C11.8105 12.682 10.9378 12.3273 10.2191 11.618C9.50979 10.9087 9.15513 10.036 9.15513 9C9.15513 7.964 9.50979 7.09133 10.2191 6.382C10.9378 5.67267 11.8105 5.318 12.8371 5.318C13.8638 5.318 14.7365 5.67267 15.4551 6.382C16.1738 7.09133 16.5331 7.964 16.5331 9C16.5331 10.036 16.1738 10.9087 15.4551 11.618ZM12.8371 11.492C13.5371 11.492 14.1251 11.254 14.6011 10.778C15.0771 10.302 15.3151 9.70933 15.3151 9C15.3151 8.29067 15.0771 7.698 14.6011 7.222C14.1251 6.746 13.5371 6.508 12.8371 6.508C12.1465 6.508 11.5631 6.746 11.0871 7.222C10.6111 7.698 10.3731 8.29067 10.3731 9C10.3731 9.70933 10.6111 10.302 11.0871 10.778C11.5631 11.254 12.1465 11.492 12.8371 11.492ZM23.0016 5.5H24.3036L21.4476 12.934C21.1489 13.7273 20.7289 14.3293 20.1876 14.74C19.6556 15.16 19.0396 15.3467 18.3396 15.3V14.166C19.1982 14.2313 19.8282 13.7553 20.2296 12.738L20.3556 12.472L17.3036 5.5H18.6056L20.9856 10.988L23.0016 5.5ZM31.2632 5.5H32.4812V12.5H31.2632V11.296C30.6565 12.22 29.7745 12.682 28.6172 12.682C27.6372 12.682 26.8019 12.3273 26.1112 11.618C25.4205 10.8993 25.0752 10.0267 25.0752 9C25.0752 7.97333 25.4205 7.10533 26.1112 6.396C26.8019 5.67733 27.6372 5.318 28.6172 5.318C29.7745 5.318 30.6565 5.78 31.2632 6.704V5.5ZM28.7712 11.506C29.4805 11.506 30.0732 11.268 30.5492 10.792C31.0252 10.3067 31.2632 9.70933 31.2632 9C31.2632 8.29067 31.0252 7.698 30.5492 7.222C30.0732 6.73667 29.4805 6.494 28.7712 6.494C28.0712 6.494 27.4832 6.73667 27.0072 7.222C26.5312 7.698 26.2932 8.29067 26.2932 9C26.2932 9.70933 26.5312 10.3067 27.0072 10.792C27.4832 11.268 28.0712 11.506 28.7712 11.506ZM34.7466 12.5V2.28H35.9646V12.5H34.7466ZM42.0507 6.676H40.1887V10.47C40.1887 10.8153 40.2541 11.0627 40.3847 11.212C40.5247 11.352 40.7347 11.4267 41.0147 11.436C41.2947 11.436 41.6401 11.4267 42.0507 11.408V12.5C40.9867 12.64 40.2074 12.556 39.7127 12.248C39.2181 11.9307 38.9707 11.338 38.9707 10.47V6.676H37.5847V5.5H38.9707V3.904L40.1887 3.54V5.5H42.0507V6.676ZM44.5288 4.226C44.2954 4.226 44.0994 4.14667 43.9408 3.988C43.7821 3.82933 43.7028 3.638 43.7028 3.414C43.7028 3.19 43.7821 2.99867 43.9408 2.84C44.0994 2.672 44.2954 2.588 44.5288 2.588C44.7528 2.588 44.9441 2.672 45.1028 2.84C45.2614 2.99867 45.3408 3.19 45.3408 3.414C45.3408 3.638 45.2614 3.82933 45.1028 3.988C44.9441 4.14667 44.7528 4.226 44.5288 4.226ZM43.9128 12.5V5.5H45.1308V12.5H43.9128ZM48.2629 9.56C48.3843 10.1853 48.6689 10.6707 49.1169 11.016C49.5743 11.3613 50.1343 11.534 50.7969 11.534C51.7209 11.534 52.3929 11.1933 52.8129 10.512L53.8489 11.1C53.1676 12.1547 52.1409 12.682 50.7689 12.682C49.6583 12.682 48.7529 12.3367 48.0529 11.646C47.3623 10.946 47.0169 10.064 47.0169 9C47.0169 7.94533 47.3576 7.068 48.0389 6.368C48.7203 5.668 49.6023 5.318 50.6849 5.318C51.7116 5.318 52.5469 5.682 53.1909 6.41C53.8443 7.12867 54.1709 7.99667 54.1709 9.014C54.1709 9.19133 54.1569 9.37333 54.1289 9.56H48.2629ZM50.6849 6.466C50.0316 6.466 49.4903 6.65267 49.0609 7.026C48.6316 7.39 48.3656 7.88 48.2629 8.496H52.9389C52.8363 7.83333 52.5749 7.32933 52.1549 6.984C51.7349 6.63867 51.2449 6.466 50.6849 6.466ZM56.7676 7.39C56.7676 7.66067 56.9029 7.88 57.1736 8.048C57.4443 8.20667 57.7709 8.33733 58.1536 8.44C58.5363 8.53333 58.9189 8.64533 59.3016 8.776C59.6843 8.89733 60.0109 9.112 60.2816 9.42C60.5523 9.71867 60.6876 10.106 60.6876 10.582C60.6876 11.2167 60.4403 11.7253 59.9456 12.108C59.4603 12.4907 58.8349 12.682 58.0696 12.682C57.3883 12.682 56.8049 12.5327 56.3196 12.234C55.8343 11.9353 55.4889 11.5387 55.2836 11.044L56.3336 10.442C56.4456 10.778 56.6556 11.044 56.9636 11.24C57.2716 11.436 57.6403 11.534 58.0696 11.534C58.4709 11.534 58.8023 11.4593 59.0636 11.31C59.3249 11.1513 59.4556 10.9087 59.4556 10.582C59.4556 10.3113 59.3203 10.0967 59.0496 9.938C58.7789 9.77 58.4523 9.63933 58.0696 9.546C57.6869 9.44333 57.3043 9.32667 56.9216 9.196C56.5389 9.06533 56.2123 8.85067 55.9416 8.552C55.6709 8.25333 55.5356 7.87067 55.5356 7.404C55.5356 6.79733 55.7689 6.298 56.2356 5.906C56.7116 5.514 57.3043 5.318 58.0136 5.318C58.5829 5.318 59.0869 5.44867 59.5256 5.71C59.9736 5.962 60.3096 6.31667 60.5336 6.774L59.5116 7.348C59.2596 6.75067 58.7603 6.452 58.0136 6.452C57.6683 6.452 57.3743 6.536 57.1316 6.704C56.8889 6.86267 56.7676 7.09133 56.7676 7.39Z" fill="#465364"/>
<rect y="27.5" width="556" height="40" rx="20" fill="#F7F9FA"/>
<rect x="0.25" y="27.75" width="555.5" height="39.5" rx="19.75" stroke="#ABB2BD" stroke-opacity="0.5" stroke-width="0.5"/>
<path opacity="0.6" d="M17.1 50.576H21.86V51.5H16.12V41.7H21.79V42.624H17.1V46.096H21.44V47.02H17.1V50.576ZM29.7071 44.5H30.6311V51.22C30.6311 52.228 30.2858 53.0213 29.5951 53.6C28.9044 54.1787 28.0784 54.468 27.1171 54.468C25.4744 54.468 24.3684 53.8987 23.7991 52.76L24.6111 52.298C25.0311 53.1473 25.8664 53.572 27.1171 53.572C27.9198 53.572 28.5498 53.3573 29.0071 52.928C29.4738 52.508 29.7071 51.9387 29.7071 51.22V50.128C29.0631 51.1547 28.1204 51.668 26.8791 51.668C25.8804 51.668 25.0264 51.3133 24.3171 50.604C23.6171 49.8947 23.2671 49.0267 23.2671 48C23.2671 46.9733 23.6171 46.1053 24.3171 45.396C25.0264 44.6867 25.8804 44.332 26.8791 44.332C28.1204 44.332 29.0631 44.8453 29.7071 45.872V44.5ZM24.9891 49.974C25.5211 50.506 26.1744 50.772 26.9491 50.772C27.7238 50.772 28.3771 50.506 28.9091 49.974C29.4411 49.4327 29.7071 48.7747 29.7071 48C29.7071 47.2253 29.4411 46.572 28.9091 46.04C28.3771 45.4987 27.7238 45.228 26.9491 45.228C26.1744 45.228 25.5211 45.4987 24.9891 46.04C24.4571 46.572 24.1911 47.2253 24.1911 48C24.1911 48.7747 24.4571 49.4327 24.9891 49.974ZM38.7475 41.7H39.5875V51.5H38.6075V42.778L36.4095 43.436L36.1575 42.596L38.7475 41.7ZM48.2653 50.296C47.6213 51.2107 46.7113 51.668 45.5353 51.668C44.3593 51.668 43.4446 51.2107 42.7913 50.296C42.1473 49.372 41.8253 48.14 41.8253 46.6C41.8253 45.06 42.1473 43.8327 42.7913 42.918C43.4446 41.994 44.3593 41.532 45.5353 41.532C46.7113 41.532 47.6213 41.994 48.2653 42.918C48.9186 43.8327 49.2453 45.06 49.2453 46.6C49.2453 48.14 48.9186 49.372 48.2653 50.296ZM43.5193 49.638C44.0046 50.3567 44.6766 50.716 45.5353 50.716C46.394 50.716 47.0613 50.3567 47.5373 49.638C48.0226 48.9193 48.2653 47.9067 48.2653 46.6C48.2653 45.2933 48.0226 44.2807 47.5373 43.562C47.0613 42.8433 46.394 42.484 45.5353 42.484C44.6766 42.484 44.0046 42.8433 43.5193 43.562C43.0433 44.2807 42.8053 45.2933 42.8053 46.6C42.8053 47.9067 43.0433 48.9193 43.5193 49.638ZM52.4598 50.31L51.6198 53.46H50.7798L51.3398 50.31H52.4598ZM58.2031 51.5V50.618L61.7311 47.062C62.7391 46.054 63.2431 45.1907 63.2431 44.472C63.2431 43.8467 63.0471 43.3613 62.6551 43.016C62.2725 42.6613 61.8105 42.484 61.2691 42.484C60.2611 42.484 59.5285 42.946 59.0711 43.87L58.2451 43.38C58.5531 42.7733 58.9731 42.316 59.5051 42.008C60.0371 41.6907 60.6251 41.532 61.2691 41.532C62.0531 41.532 62.7391 41.798 63.3271 42.33C63.9245 42.8527 64.2231 43.5667 64.2231 44.472C64.2231 45.0413 64.0645 45.5873 63.7471 46.11C63.4298 46.6327 62.9818 47.1833 62.4031 47.762L59.6031 50.548H64.4331V51.5H58.2031ZM72.4219 50.296C71.7779 51.2107 70.8679 51.668 69.6919 51.668C68.5159 51.668 67.6012 51.2107 66.9479 50.296C66.3039 49.372 65.9819 48.14 65.9819 46.6C65.9819 45.06 66.3039 43.8327 66.9479 42.918C67.6012 41.994 68.5159 41.532 69.6919 41.532C70.8679 41.532 71.7779 41.994 72.4219 42.918C73.0752 43.8327 73.4019 45.06 73.4019 46.6C73.4019 48.14 73.0752 49.372 72.4219 50.296ZM67.6759 49.638C68.1612 50.3567 68.8332 50.716 69.6919 50.716C70.5505 50.716 71.2179 50.3567 71.6939 49.638C72.1792 48.9193 72.4219 47.9067 72.4219 46.6C72.4219 45.2933 72.1792 44.2807 71.6939 43.562C71.2179 42.8433 70.5505 42.484 69.6919 42.484C68.8332 42.484 68.1612 42.8433 67.6759 43.562C67.1999 44.2807 66.9619 45.2933 66.9619 46.6C66.9619 47.9067 67.1999 48.9193 67.6759 49.638ZM76.6164 50.31L75.7764 53.46H74.9364L75.4964 50.31H76.6164ZM85.9577 45.774C86.7417 45.8767 87.3857 46.18 87.8897 46.684C88.403 47.1787 88.6597 47.8367 88.6597 48.658C88.6597 49.5913 88.3377 50.3287 87.6937 50.87C87.059 51.402 86.2844 51.668 85.3697 51.668C84.6417 51.668 83.993 51.5 83.4237 51.164C82.8544 50.828 82.453 50.3473 82.2197 49.722L83.0317 49.246C83.1904 49.7313 83.475 50.1 83.8857 50.352C84.2964 50.5947 84.791 50.716 85.3697 50.716C86.0417 50.716 86.5924 50.5387 87.0217 50.184C87.4604 49.82 87.6797 49.3113 87.6797 48.658C87.6797 48.0047 87.4604 47.5007 87.0217 47.146C86.5924 46.782 86.0417 46.6 85.3697 46.6V46.586L85.3557 46.6H85.0897L84.6697 45.956L87.1057 42.624H82.4997V41.7H88.2397V42.624L85.9577 45.774ZM96.7835 50.296C96.1395 51.2107 95.2295 51.668 94.0535 51.668C92.8775 51.668 91.9628 51.2107 91.3095 50.296C90.6655 49.372 90.3435 48.14 90.3435 46.6C90.3435 45.06 90.6655 43.8327 91.3095 42.918C91.9628 41.994 92.8775 41.532 94.0535 41.532C95.2295 41.532 96.1395 41.994 96.7835 42.918C97.4369 43.8327 97.7635 45.06 97.7635 46.6C97.7635 48.14 97.4369 49.372 96.7835 50.296ZM92.0375 49.638C92.5228 50.3567 93.1949 50.716 94.0535 50.716C94.9122 50.716 95.5795 50.3567 96.0555 49.638C96.5409 48.9193 96.7835 47.9067 96.7835 46.6C96.7835 45.2933 96.5409 44.2807 96.0555 43.562C95.5795 42.8433 94.9122 42.484 94.0535 42.484C93.1949 42.484 92.5228 42.8433 92.0375 43.562C91.5615 44.2807 91.3235 45.2933 91.3235 46.6C91.3235 47.9067 91.5615 48.9193 92.0375 49.638ZM100.978 50.31L100.138 53.46H99.298L99.858 50.31H100.978ZM113.931 48.616V49.54H112.671V51.5H111.691V49.54H106.511V48.616L110.151 41.7H111.229L107.589 48.616H111.691V45.62H112.671V48.616H113.931ZM121.842 50.296C121.198 51.2107 120.288 51.668 119.112 51.668C117.936 51.668 117.022 51.2107 116.368 50.296C115.724 49.372 115.402 48.14 115.402 46.6C115.402 45.06 115.724 43.8327 116.368 42.918C117.022 41.994 117.936 41.532 119.112 41.532C120.288 41.532 121.198 41.994 121.842 42.918C122.496 43.8327 122.822 45.06 122.822 46.6C122.822 48.14 122.496 49.372 121.842 50.296ZM117.096 49.638C117.582 50.3567 118.254 50.716 119.112 50.716C119.971 50.716 120.638 50.3567 121.114 49.638C121.6 48.9193 121.842 47.9067 121.842 46.6C121.842 45.2933 121.6 44.2807 121.114 43.562C120.638 42.8433 119.971 42.484 119.112 42.484C118.254 42.484 117.582 42.8433 117.096 43.562C116.62 44.2807 116.382 45.2933 116.382 46.6C116.382 47.9067 116.62 48.9193 117.096 49.638Z" fill="#8390A2"/>
<path d="M569.834 45.246C569.018 45.246 568.34 44.976 567.8 44.436C567.26 43.896 566.99 43.236 566.99 42.456C566.99 41.688 567.26 41.034 567.8 40.494C568.352 39.942 569.03 39.666 569.834 39.666C570.65 39.666 571.328 39.936 571.868 40.476C572.408 41.016 572.678 41.676 572.678 42.456C572.678 43.236 572.408 43.896 571.868 44.436C571.34 44.976 570.662 45.246 569.834 45.246ZM568.79 43.518C569.066 43.794 569.414 43.932 569.834 43.932C570.254 43.932 570.596 43.788 570.86 43.5C571.136 43.212 571.274 42.864 571.274 42.456C571.274 42.048 571.136 41.706 570.86 41.43C570.596 41.142 570.254 40.998 569.834 40.998C569.414 40.998 569.066 41.142 568.79 41.43C568.526 41.706 568.394 42.048 568.394 42.456C568.394 42.876 568.526 43.23 568.79 43.518ZM567.836 50.718L576.206 41.358L577.088 41.844L568.7 51.222L567.836 50.718ZM577.304 51.906C576.764 52.446 576.086 52.716 575.27 52.716C574.454 52.716 573.776 52.446 573.236 51.906C572.696 51.366 572.426 50.706 572.426 49.926C572.426 49.146 572.696 48.486 573.236 47.946C573.776 47.406 574.454 47.136 575.27 47.136C576.086 47.136 576.764 47.406 577.304 47.946C577.844 48.486 578.114 49.146 578.114 49.926C578.114 50.706 577.844 51.366 577.304 51.906ZM574.226 50.97C574.502 51.246 574.85 51.384 575.27 51.384C575.69 51.384 576.032 51.246 576.296 50.97C576.572 50.682 576.71 50.334 576.71 49.926C576.71 49.518 576.572 49.176 576.296 48.9C576.032 48.612 575.69 48.468 575.27 48.468C574.85 48.468 574.502 48.612 574.226 48.9C573.962 49.176 573.83 49.518 573.83 49.926C573.83 50.334 573.962 50.682 574.226 50.97Z" fill="#293341"/>
</svg>
