<svg width="40" height="41" viewBox="0 0 40 41" fill="none" xmlns="http://www.w3.org/2000/svg">
<path d="M26.6666 27.1667L19.9999 20.5L13.3333 27.1667" stroke="black" stroke-width="2" stroke-linecap="round" stroke-linejoin="round"/>
<path d="M20 20.5V35.5" stroke="#1A79E8" stroke-width="3" stroke-linecap="round" stroke-linejoin="round"/>
<path d="M33.9833 31.15C35.6088 30.2638 36.893 28.8615 37.6331 27.1644C38.3731 25.4673 38.527 23.572 38.0703 21.7778C37.6136 19.9836 36.5724 18.3925 35.1111 17.2557C33.6497 16.119 31.8514 15.5012 29.9999 15.5H27.8999C27.3955 13.5487 26.4552 11.7372 25.1498 10.2016C23.8445 8.66608 22.208 7.44641 20.3634 6.63434C18.5189 5.82227 16.5142 5.43892 14.5001 5.51313C12.4861 5.58734 10.515 6.11716 8.73523 7.06277C6.95541 8.00838 5.41312 9.34516 4.2243 10.9726C3.03549 12.6001 2.23108 14.4759 1.87157 16.459C1.51205 18.4421 1.60678 20.4809 2.14862 22.4221C2.69047 24.3633 3.66534 26.1564 4.99993 27.6667" stroke="#1A79E8" stroke-width="3" stroke-linecap="round" stroke-linejoin="round"/>
<path d="M26.6666 27.1667L19.9999 20.5L13.3333 27.1667" stroke="#1A79E8" stroke-width="3" stroke-linecap="round" stroke-linejoin="round"/>
</svg>
