<svg width="24" height="26" viewBox="0 0 24 26" fill="none" xmlns="http://www.w3.org/2000/svg">
<path d="M22.5401 6.07967C22.4213 5.60508 22.1794 5.17024 21.8387 4.81907C21.4981 4.46791 21.0708 4.21285 20.6001 4.07967C18.8801 3.65967 12.0001 3.65967 12.0001 3.65967C12.0001 3.65967 5.12008 3.65967 3.40008 4.11967C2.92933 4.25285 2.50206 4.50791 2.16143 4.85907C1.8208 5.21024 1.57887 5.64508 1.46008 6.11967C1.1453 7.86522 0.991319 9.63598 1.00008 11.4097C0.988863 13.1967 1.14285 14.981 1.46008 16.7397C1.59104 17.1995 1.83839 17.6178 2.17823 17.9541C2.51806 18.2905 2.9389 18.5335 3.40008 18.6597C5.12008 19.1197 12.0001 19.1197 12.0001 19.1197C12.0001 19.1197 18.8801 19.1197 20.6001 18.6597C21.0708 18.5265 21.4981 18.2714 21.8387 17.9203C22.1794 17.5691 22.4213 17.1343 22.5401 16.6597C22.8524 14.9273 23.0064 13.17 23.0001 11.4097C23.0113 9.62262 22.8573 7.83837 22.5401 6.07967V6.07967Z" stroke="#293341" stroke-width="2" stroke-linecap="round" stroke-linejoin="round"/>
<path d="M9.75 14.6796L15.5 11.4096L9.75 8.13965V14.6796Z" stroke="#293341" stroke-width="2" stroke-linecap="round" stroke-linejoin="round"/>
</svg>
